<?xml version="1.0" encoding="UTF-8" standalone="no"?>
<!-- Created with Inkscape (http://www.inkscape.org/) -->

<svg
   xmlns:dc="http://purl.org/dc/elements/1.1/"
   xmlns:cc="http://creativecommons.org/ns#"
   xmlns:rdf="http://www.w3.org/1999/02/22-rdf-syntax-ns#"
   xmlns:svg="http://www.w3.org/2000/svg"
   xmlns="http://www.w3.org/2000/svg"
   xmlns:sodipodi="http://sodipodi.sourceforge.net/DTD/sodipodi-0.dtd"
   xmlns:inkscape="http://www.inkscape.org/namespaces/inkscape"
   width="50"
   height="50"
   viewBox="0 0 13.229166 13.229167"
   version="1.1"
   id="svg833"
   sodipodi:docname="bb.svg"
   inkscape:version="0.92.4 (5da689c313, 2019-01-14)">
  <defs
     id="defs827" />
  <sodipodi:namedview
     id="base"
     pagecolor="#ffffff"
     bordercolor="#666666"
     borderopacity="1.0"
     inkscape:pageopacity="0.0"
     inkscape:pageshadow="2"
     inkscape:zoom="11.2"
     inkscape:cx="28.279969"
     inkscape:cy="25.942401"
     inkscape:document-units="mm"
     inkscape:current-layer="layer1"
     showgrid="false"
     units="px"
     inkscape:window-width="1920"
     inkscape:window-height="975"
     inkscape:window-x="-8"
     inkscape:window-y="-8"
     inkscape:window-maximized="1" />
  <metadata
     id="metadata830">
    <rdf:RDF>
      <cc:Work
         rdf:about="">
        <dc:format>image/svg+xml</dc:format>
        <dc:type
           rdf:resource="http://purl.org/dc/dcmitype/StillImage" />
        <dc:title></dc:title>
      </cc:Work>
    </rdf:RDF>
  </metadata>
  <g
     inkscape:label="Layer 1"
     inkscape:groupmode="layer"
     id="layer1"
     transform="translate(0,-283.77082)">
    <g
       id="g1579"
       transform="matrix(0.26458333,0,0,0.26458333,6.6608854,290.3854)">
      <path
         id="path1567"
         d="m 2.8,-17.1 1.6,5.95 q 0.45,1.9 2.6,7.9 l 1.9,1.2 q 1.25,1.15 1.25,2.5 0,1.7 -1.35,2 L 9,3.2 l 1.2,-0.15 1.7,0.2 q 0.7,0.3 1.2,1.2 l 0.4,2.75 -0.25,1.1 -0.2,0.75 -0.5,0.55 -1.15,0.65 q -0.75,0.15 -0.75,0.65 l -0.25,6.45 0.2,1.35 Q 9.8,18.4 8.55,17.6 L 7.75,17.1 Q 7.45,18.9 6.35,19.4 4.95,20 3.3,21 l -1.75,0.5 -2.9,-0.15 h -0.1 Q -3.8,21.3 -4.3,20.45 -4.85,19.55 -5.1,19.5 -6.5,19.35 -6.7,17.85 l -0.65,-0.4 -1.25,0.7 -0.55,0.25 -0.25,-3.35 Q -9.65,11.2 -10.1,11.2 l -0.95,0.05 V 11.2 L -12.7,10.5 -13.25,9.7 Q -13.75,9 -13.8,7.9 L -13.85,7 q 0,-2.75 1.7,-3.15 0.5,-0.45 1.25,-0.2 l 1.65,0.2 0.2,-0.6 Q -9.95,2.9 -9.95,1.6 L -9.7,0.5 q 0.15,-1.5 0.95,-2.05 l 0.35,-0.35 1.1,-0.65 q 2.35,-5.55 2.95,-7.9 l 2.15,-6.4 q 1.55,-4.65 2.6,-4.65 1.15,0 2.4,4.4 M 1.95,-4.35 2.65,-4.3 H 2.7 l 1.45,0.15 h 0.1 L 4.3,-4.1 4.8,-4 Q 4,-5.65 3.1,-9.5 1.05,-17.9 0.25,-19.65 L -3,-8.75 q -1,3.25 -1.7,5 l 5.2,-0.65 1.45,0.05 m 1.95,1.9 H 3.85 L 0.3,-2.6 q -3.65,0.05 -5.85,0.95 L -6.5,-1.2 q -1.4,0.6 -1.55,1.55 L -8.3,1.05 V 1.1 q 0.1,0.6 0.75,0.6 l 0.7,-0.2 0.2,-0.2 0.1,-0.05 0.3,-0.1 0.4,-0.15 0.3,-0.15 Q -2.4,-0.35 1,-0.35 L 3.85,-0.1 3.9,-0.05 4.05,-0.1 5.55,0.25 V 0.3 l 0.1,0.05 h 0.1 l 0.8,0.3 1.15,0.4 0.45,-0.1 Q 8.7,0.9 8.75,0.2 L 8.3,-0.65 q -0.5,-0.5 -1.6,-1 L 5.95,-1.95 H 5.9 L 5.75,-2.05 5.7,-2 5.65,-2.05 4.15,-2.4 3.95,-2.45 H 3.9 m 7,8.5 V 6.2 L 9.85,6.75 9.45,7.3 9.35,7.8 V 8 l 0.1,0.5 q 0.3,0.75 0.95,0.75 L 10.9,9.2 11.2,9.1 Q 12.3,8.75 12.3,7.05 12.3,5 11,4.6 L 10,4.4 Q 9.45,4.4 9.35,4.8 H 9.3 V 4.85 Q 9.15,5.15 9.15,5.75 V 5.9 l 0.9,-0.15 q 0.8,0 0.85,0.3 M 5.6,5.7 5.45,6.95 6.2,6.75 6.85,6.45 6.95,5.25 5.95,5.1 H 5.55 L 5.6,5.7 M 1.6,1.35 H 0.75 L 0.1,1.3 -2.75,1.5 Q -1.6,2 -1.3,2.35 -0.75,2.95 -0.7,4.4 L -0.9,7.2 -0.95,7.3 H -1 v 0.05 l -0.05,0.3 q -0.3,0.7 -0.3,2.4 l 0.05,1.1 v 0.35 l 0.1,0.2 q 0.45,1.25 1.5,1.25 1,0 1.4,-1.05 l 0.05,-0.15 0.1,-1.6 v -0.1 L 1.3,7.6 Q 0.6,5.2 0.65,4.5 L 0.6,3.9 Q 0.6,2.05 2.15,1.35 H 1.6 M 6.75,3.5 Q 6.4,2.3 5.4,2.3 L 3.4,2.4 3,2.55 Q 1.95,2.9 1.95,3.85 V 4.1 L 2.8,4.2 q 3.45,0 3.95,-0.7 M 2.15,6.05 Q 2.2,6.4 2.55,6.65 2.85,7 3.75,7 L 3.65,5.45 3.7,5.15 2.05,5.4 2.15,6.05 M 3.65,8.2 H 3.6 Q 3.15,8.2 3.15,8.7 L 3.35,10 3.3,10.9 V 10.95 11 q 0,0.6 0.7,0.6 2.4,0 2.4,-2.55 0,-0.9 -2.3,-0.9 L 3.65,8.2 M 2.2,17 q 0,-1 -2.15,-0.9 H -0.3 q -1.6,0.15 -1.6,1 0,1.15 2.5,1.15 1.6,0 1.6,-1.25 M -3.1,2.75 -3.6,2.65 -4.8,2.55 q -1.4,0 -2,0.45 l -0.2,0.45 0.05,0.5 1.35,0.2 3.25,-0.35 0.1,-0.25 Q -2.35,3.05 -2.7,2.9 L -3,2.8 -3.1,2.75 m -0.4,2.8 v 0.8 l -0.05,0.7 0.7,-0.15 0.5,-0.1 0.1,-0.05 0.05,-0.1 0.05,-0.85 V 5.45 L -3.2,5.25 h -0.35 l 0.05,0.3 M -9.65,6.2 V 6.15 5.9 L -9.6,5.6 q 0,-0.65 -0.85,-0.65 L -10.8,4.9 q -1.8,0 -1.8,2.5 0.2,2.3 1.5,2.3 h 0.15 0.1 L -10.2,9.45 Q -9.85,9.25 -9.8,8.8 L -9.95,8 q -0.5,-0.6 -1.1,-0.7 l -0.35,-0.4 0.05,-0.35 0.05,-0.05 0.25,-0.15 0.4,-0.05 0.8,0.2 0.2,-0.3 M -6.8,5.7 -6.85,6.2 q 0.15,0.6 0.9,0.75 l 0.7,0.1 -0.1,-1.2 V 5.35 L -5.85,5.4 H -6 L -6.4,5.45 -6.8,5.7 M -4.35,8.35 -5,8.25 q -1.25,0 -1.25,0.85 0,2.45 2.95,2.45 0.4,0 0.45,-0.55 V 10.9 10.85 L -2.9,9.15 V 8.4 h -0.05 l -1,-0.1 -0.4,0.05"
         inkscape:connector-curvature="0"
         style="fill:#000000;fill-rule:evenodd;stroke:none" />
      <path
         id="path1569"
         d="M 3.85,-2.45 H 3.9 L 3.85,-2.4 v -0.05 m 0,2.25 v 0.1 -0.1 M 5.6,5.7 5.55,5.1 h 0.4 l 1,0.15 -0.1,1.2 L 6.2,6.75 5.45,6.95 5.6,5.7 M 2.15,6.05 2.05,5.4 3.7,5.15 3.65,5.45 3.75,7 Q 2.85,7 2.55,6.65 2.2,6.4 2.15,6.05 M -3.5,5.55 -3.55,5.25 h 0.35 l 1.05,0.2 V 5.8 l -0.05,0.85 -0.05,0.1 -0.1,0.05 -0.5,0.1 -0.7,0.15 0.05,-0.7 V 5.55 M -6.8,5.7 -6.4,5.45 -6,5.4 h 0.15 l 0.5,-0.05 v 0.5 l 0.1,1.2 -0.7,-0.1 Q -6.7,6.8 -6.85,6.2 L -6.8,5.7"
         inkscape:connector-curvature="0"
         style="fill:#ffffff;fill-rule:evenodd;stroke:none" />
      <path
         id="path1571"
         d="M 1.95,-4.35 0.5,-4.4 -4.7,-3.75 q 0.7,-1.75 1.7,-5 l 3.25,-10.9 1.7,15.3 M 3.85,-0.1 1,-0.35 q -3.4,0 -6.55,1.2 l -0.3,0.15 -0.4,0.15 -0.3,0.1 -0.1,0.05 -0.2,0.2 -0.7,0.2 Q -8.2,1.7 -8.3,1.1 V 1.05 l 0.25,-0.7 Q -7.9,-0.6 -6.5,-1.2 l 0.95,-0.45 q 2.2,-0.9 5.85,-0.95 l 3.55,0.15 v 0.05 l 0.4,1.15 -0.05,0.3 -0.35,0.75 v 0.1"
         inkscape:connector-curvature="0"
         style="fill:#666666;fill-rule:evenodd;stroke:none" />
      <path
         id="path1573"
         d="M 0.25,-19.65 Q 1.05,-17.9 3.1,-9.5 4,-5.65 4.8,-4 L 4.3,-4.1 4.25,-4.15 H 4.15 L 2.7,-4.3 H 2.65 l -0.7,-0.05 -1.7,-15.3 m 3.65,17.2 h 0.05 l 0.2,0.05 1.5,0.35 V -2 H 5.7 l 0.05,-0.05 0.15,0.1 h 0.05 l 0.75,0.3 q 1.1,0.5 1.6,1 L 8.75,0.2 Q 8.7,0.9 8.15,0.95 L 7.7,1.05 6.55,0.65 5.75,0.35 H 5.65 L 5.55,0.3 V 0.25 L 4.05,-0.1 3.9,-0.05 3.85,-0.1 V -0.2 L 4.2,-0.95 4.25,-1.25 3.85,-2.4 3.9,-2.45"
         inkscape:connector-curvature="0"
         style="fill:#404040;fill-rule:evenodd;stroke:none" />
      <path
         id="path1575"
         d="M 10.9,6.05 Q 10.85,5.75 10.05,5.75 L 9.15,5.9 V 5.75 q 0,-0.6 0.15,-0.9 V 4.8 H 9.35 Q 9.45,4.4 10,4.4 l 1,0.2 q 1.3,0.4 1.3,2.45 0,1.7 -1.1,2.05 L 10.9,9.2 10.4,9.25 Q 9.75,9.25 9.45,8.5 L 9.35,8 V 7.8 L 9.45,7.3 9.85,6.75 10.9,6.2 V 6.05 M 6.75,3.5 Q 6.25,4.2 2.8,4.2 L 1.95,4.1 V 3.85 Q 1.95,2.9 3,2.55 L 3.4,2.4 5.4,2.3 q 1,0 1.35,1.2 M 1.6,1.35 H 2.15 Q 0.6,2.05 0.6,3.9 L 0.65,4.5 Q 0.6,5.2 1.3,7.6 l 0.55,2.45 v 0.1 l -0.1,1.6 -0.05,0.15 q -0.4,1.05 -1.4,1.05 -1.05,0 -1.5,-1.25 l -0.1,-0.2 v -0.35 l -0.05,-1.1 q 0,-1.7 0.3,-2.4 L -1,7.35 V 7.3 h 0.05 L -0.9,7.2 -0.7,4.4 Q -0.75,2.95 -1.3,2.35 -1.6,2 -2.75,1.5 L 0.1,1.3 0.75,1.35 H 1.6 M 2.2,17 q 0,1.25 -1.6,1.25 -2.5,0 -2.5,-1.15 0,-0.85 1.6,-1 H 0.05 Q 2.2,16 2.2,17 M -3.1,2.75 -3,2.8 -2.7,2.9 q 0.35,0.15 0.45,0.65 L -2.35,3.8 -5.6,4.15 -6.95,3.95 -7,3.45 -6.8,3 q 0.6,-0.45 2,-0.45 l 1.2,0.1 0.5,0.1 m -6.55,3.45 -0.2,0.3 -0.8,-0.2 -0.4,0.05 -0.25,0.15 -0.05,0.05 -0.05,0.35 0.35,0.4 q 0.6,0.1 1.1,0.7 l 0.15,0.8 q -0.05,0.45 -0.4,0.65 l -0.65,0.25 h -0.1 -0.15 q -1.3,0 -1.5,-2.3 0,-2.5 1.8,-2.5 l 0.35,0.05 q 0.85,0 0.85,0.65 L -9.65,5.9 V 6.15 6.2"
         inkscape:connector-curvature="0"
         style="fill:#fdad35;fill-rule:evenodd;stroke:none" />
      <path
         id="path1577"
         d="M 3.65,8.2 4.1,8.15 q 2.3,0 2.3,0.9 Q 6.4,11.6 4,11.6 3.3,11.6 3.3,11 V 10.95 10.9 L 3.35,10 3.15,8.7 q 0,-0.5 0.45,-0.5 h 0.05 m -8,0.15 0.4,-0.05 1,0.1 h 0.05 v 0.75 l 0.05,1.7 V 10.9 11 q -0.05,0.55 -0.45,0.55 -2.95,0 -2.95,-2.45 0,-0.85 1.25,-0.85 l 0.65,0.1"
         inkscape:connector-curvature="0"
         style="fill:#fd9f13;fill-rule:evenodd;stroke:none" />
    </g>
  </g>
</svg>
