<?xml version="1.0" encoding="UTF-8" standalone="no"?>
<!-- Created with Inkscape (http://www.inkscape.org/) -->

<svg
   xmlns:dc="http://purl.org/dc/elements/1.1/"
   xmlns:cc="http://creativecommons.org/ns#"
   xmlns:rdf="http://www.w3.org/1999/02/22-rdf-syntax-ns#"
   xmlns:svg="http://www.w3.org/2000/svg"
   xmlns="http://www.w3.org/2000/svg"
   xmlns:sodipodi="http://sodipodi.sourceforge.net/DTD/sodipodi-0.dtd"
   xmlns:inkscape="http://www.inkscape.org/namespaces/inkscape"
   width="50"
   height="50"
   viewBox="0 0 13.229166 13.229167"
   version="1.1"
   id="svg833"
   sodipodi:docname="bk.svg"
   inkscape:version="0.92.4 (5da689c313, 2019-01-14)">
  <defs
     id="defs827" />
  <sodipodi:namedview
     id="base"
     pagecolor="#ffffff"
     bordercolor="#666666"
     borderopacity="1.0"
     inkscape:pageopacity="0.0"
     inkscape:pageshadow="2"
     inkscape:zoom="11.2"
     inkscape:cx="24.728733"
     inkscape:cy="23.464958"
     inkscape:document-units="mm"
     inkscape:current-layer="layer1"
     showgrid="false"
     units="px"
     inkscape:window-width="1920"
     inkscape:window-height="975"
     inkscape:window-x="-8"
     inkscape:window-y="-8"
     inkscape:window-maximized="1" />
  <metadata
     id="metadata830">
    <rdf:RDF>
      <cc:Work
         rdf:about="">
        <dc:format>image/svg+xml</dc:format>
        <dc:type
           rdf:resource="http://purl.org/dc/dcmitype/StillImage" />
        <dc:title></dc:title>
      </cc:Work>
    </rdf:RDF>
  </metadata>
  <g
     inkscape:label="Layer 1"
     inkscape:groupmode="layer"
     id="layer1"
     transform="translate(0,-283.77082)">
    <g
       id="g1651"
       transform="matrix(0.26458333,0,0,0.26458333,6.588125,290.35233)">
      <path
         id="path1631"
         d="M -5.95,-5.4 -6,-5.5 l 0.05,0.1 m 6.9,-0.95 H 1 v 0.1 L 0.95,-6.35 M 9.4,0.2 9.35,0.15 H 9.4 V 0.2 M 6.75,5.1 Q 6.6,6.3 5.1,6.6 L 4.35,6.75 3.7,6.8 Q 2.55,6.8 2.05,6.2 1.35,5.7 1.35,4.7 1.35,3.05 2.6,2.85 3.1,2.55 4,2.55 L 4.75,2.65 4.9,2.7 Q 5.7,2.8 6.3,3.35 6.9,3.9 6.9,4.25 L 6.75,5.1 M 3.5,5.95 q 1.1,0 1.1,-1.15 0,-1.15 -0.95,-1.15 -1.25,0 -1.25,1.1 0,1.2 1.1,1.2 m -7.75,-3.2 h 0.4 0.25 q 1.25,0 1.7,0.6 0.45,0.45 0.45,1.55 -0.1,0.8 -0.35,1.1 -0.55,0.7 -2,0.8 l -0.65,0.05 q -2.4,0 -2.4,-2.15 0,-0.75 0.45,-1.15 0.2,-0.6 1.75,-0.75 h 0.1 l 0.3,-0.05 m -0.6,2 q 0,1.2 1.1,1.2 1.1,0 1.1,-1.15 0,-1.15 -0.95,-1.15 -1.25,0 -1.25,1.1"
         inkscape:connector-curvature="0"
         style="fill:#ffffff;fill-rule:evenodd;stroke:none" />
      <path
         id="path1633"
         d="m 2.5,-19.45 0.1,0.15 0.05,0.05 q 1.6,0.3 1.75,0.6 0.35,0.7 0.35,1.7 l -0.15,1.7 v 0.05 l -0.1,0.35 q -0.25,0.3 -1.05,0.45 H 3.4 l -0.85,0.2 -0.1,0.2 -0.05,0.15 v 0.05 0.1 H 2.3 l 0.45,0.4 H 3.1 3.25 l 1.2,-0.15 H 4.5 4.6 5.1 q 3.75,0.5 5.35,1.75 1.7,1.45 1.7,4.75 0,1.4 -0.45,2.4 -0.75,1.65 -1.4,2.15 h 0.15 L 10.4,-2.2 10.35,-2.15 10.4,-2 h -0.05 l 0.05,0.05 0.2,0.15 0.55,1.35 v 0.1 0.2 0.1 0.25 L 10.5,2 10.3,2.15 10.15,2.3 h -0.1 v 0.65 l 0.05,0.25 1.1,-0.1 1.15,0.25 q 1.55,0.25 1.75,2.7 0.1,3.2 -0.9,3.55 l -0.1,0.15 q 0.35,0.2 0.5,0.35 l 1.25,1.25 1.1,0.9 q 1.45,1.5 1.45,3.45 l -0.15,1.45 -1,1.6 -0.45,0.6 -0.25,0.25 q -1.45,1.5 -2.6,1.5 l -0.2,-0.15 q 1.8,-2.1 1.8,-3.3 0,-2.15 -2.4,-2.15 -2.9,0 -3.05,2.1 L 7.95,19.7 7.4,20.3 6.05,20.55 Q 5.35,21.45 4.6,21.5 L 3.25,20.85 q -0.95,1.1 -1.85,1.1 -0.45,0 -1.35,-0.85 -1.25,0.8 -1.7,0.8 -1.1,0 -1.85,-1.4 -0.15,0 -1.15,0.5 -0.65,0 -1.2,-1.1 H -6.3 q -0.7,0 -1.55,-1.8 v -0.2 q 0,-0.55 -0.7,-1.3 -0.95,-1.1 -2.5,-1.1 l -0.6,0.05 Q -14,15.9 -14,18.2 l 0.55,2.15 0.35,0.75 q -1,-0.25 -2.25,-1.5 l -0.2,-0.25 -0.5,-0.6 -1,-1.6 -0.15,-1.45 q 0,-1.95 1.45,-3.45 1,-1.05 2.55,-1.55 l 1.45,-0.8 q -0.9,-0.75 -1.05,-3.3 0,-3.3 3.25,-3.3 H -9.2 V 3.25 2.4 L -9.15,2.35 H -9.2 V 2.3 H -9.25 Q -10.35,1.95 -11,0.65 L -11.05,0.1 v -0.15 -0.3 Q -11,-1.5 -10.55,-2 l 0.1,-0.15 0.1,-0.2 0.2,-0.05 q -0.65,-0.5 -1.4,-2.15 -0.45,-1 -0.45,-2.4 0,-3.3 1.7,-4.75 1.55,-1.25 5.3,-1.75 h 0.5 l 1.05,0.1 q 1.1,-0.2 1.1,-0.5 L -2.4,-14.1 -3,-14.25 -3.4,-14.2 q -0.55,-0.1 -0.85,-0.35 l -0.3,-0.5 -0.05,-0.05 -0.05,-0.2 -0.2,-2 q 0,-1.75 1.75,-1.85 l 0.05,-0.05 h 0.45 q 0.2,-0.15 0.2,-1.1 v -0.3 l 0.6,-0.8 1.65,-0.3 0.5,0.05 q 1.9,0.1 2.1,1.35 l 0.05,0.85 m -1.4,-0.2 Q 0.95,-20.1 0.15,-20.1 l -1,0.3 -0.1,0.15 -0.05,0.05 -0.05,0.15 v 0.05 1.85 h -1.9 v 0.05 l -0.3,0.6 -0.05,0.5 q -0.05,0.7 0.35,0.8 h 0.15 1.75 v 3.3 q 0.1,0.75 1.3,0.75 l 0.7,-0.2 0.2,-0.3 V -15.6 H 3 v -0.1 q 0.3,-0.1 0.3,-0.8 v -0.45 L 3,-17.5 v -0.05 l -0.25,-0.05 -0.3,0.05 h -1.3 v -2.1 H 1.1 m 9.25,14.45 0.3,-0.8 v -0.5 l 0.1,-1.05 q 0,-1.9 -1.85,-3.45 l -0.1,-0.05 -0.5,-0.3 Q 5.85,-12.55 4.1,-12.6 H 3.9 q -1.35,0.1 -1.5,1.05 -0.2,1.05 -2.55,1.05 -2,0 -2.3,-1.55 l -0.4,-0.35 -0.2,0.05 -1.1,-0.05 q -1.45,-0.05 -3.05,0.6 l -0.2,0.05 -1.35,0.7 -0.45,0.35 q -1.35,1.25 -1.35,3.6 l 0.3,1.65 h -0.05 l 0.2,0.5 1.15,1.95 0.05,0.1 q 0.25,0.8 1.5,0.8 0.4,0 0.4,-0.3 l -0.1,-0.15 -1.2,-1.95 -0.25,-0.55 -0.1,-0.25 -0.45,-2.45 0.3,-1.35 0.2,-0.3 1.45,-1.1 1.9,-0.7 1.1,-0.3 v 0.15 l -0.95,0.45 q -2.2,1.05 -2.65,2.45 l -0.05,0.1 -0.1,0.6 q 0,1.2 0.5,2.45 l -0.05,0.05 0.1,0.2 0.8,1.65 q 0.9,1.45 1.7,1.45 0.3,0 0.3,-0.3 l -0.2,-0.3 H -4.7 L -5.55,-4.05 -5.9,-5.2 V -5.3 L -5.95,-5.35 V -5.4 L -6,-5.5 l -0.15,-1.4 0.3,-1.8 0.45,-0.65 2.05,-1.15 0.15,0.1 -0.85,0.9 q -0.85,1.25 -0.85,2.55 l 0.1,1.2 0.05,0.15 q 0.25,1.35 1.05,2.55 0.75,1.45 1.5,1.45 0.5,0 0.5,-0.6 L -2.05,-3.25 -2.4,-5.65 -2.35,-6 -2.4,-6.1 -2.45,-6.75 -2.2,-8.3 -1.55,-9.9 h 0.2 l -0.15,1.45 0.1,1.55 v 0.2 l 0.05,0.45 -0.1,0.1 0.15,0.2 q 0.2,2.4 0.6,3.4 0.05,0.65 0.4,0.75 H -0.2 0 Q 0.8,-2.15 0.8,-4.75 L 0.95,-5.85 1.05,-6.2 1,-6.25 v -0.1 L 1.1,-7.65 1,-9.8 1.25,-9.85 1.9,-7.45 2,-6.35 H 1.9 v 0.1 q 0,0.45 0.15,0.7 L 2,-5.1 v 0.05 l -0.1,0.75 -0.1,0.45 -0.45,1.7 q 0,0.4 0.45,0.4 0.95,0 1.6,-2.1 l 0.45,-1.4 0.1,-0.4 0.2,-0.4 -0.1,-0.1 0.2,-1.35 q 0,-0.8 -0.4,-1.95 l -0.75,-1.2 0.25,-0.2 1.1,1 0.55,1.25 0.15,0.7 v 0.45 l -0.1,1.5 H 5 v 0.15 l -0.3,1.4 -0.5,1.25 -0.35,0.7 q 0,0.45 0.5,0.45 0.8,0 1.5,-0.55 H 5.9 l 0.15,-0.25 0.6,-0.95 0.6,-1.45 0.2,-0.3 -0.1,-0.15 0.15,-1.3 -0.05,-0.7 q -0.05,-1.45 -1,-2.2 l -2.4,-1.65 0.05,-0.1 q 1.45,0.3 2.8,1 l 0.7,0.4 0.6,0.9 0.4,1.05 0.1,1.3 -0.1,1.45 H 8.55 v 0.15 l -0.25,0.9 -0.55,1.1 q -0.4,0.2 -0.4,0.85 0,0.35 0.35,0.35 l 0.6,-0.2 0.8,-0.7 0.45,-0.75 0.6,-1 0.35,-0.4 -0.1,-0.1 -0.05,0.1 M 9.35,0.15 9.3,-0.05 9.25,-0.35 9.15,-0.6 9,-0.9 8.85,-0.95 H 8.1 L 1.05,-0.45 -7.75,-1 -8.3,-1.1 q -0.55,0.1 -0.8,0.5 l -0.1,0.2 v 0.05 l -0.05,0.2 v 0.1 l 0.1,0.4 0.55,0.35 q 1.4,0.7 6.65,0.7 H -0.6 L 1,1.45 8.7,0.9 q 0.7,0 0.7,-0.7 V 0.15 H 9.35 M 12.25,4.5 11.6,4.4 H 11.4 L 11.15,4.35 q -1.1,0 -1.1,2 l 0.15,1.05 0.2,0.55 q 0.15,0.7 0.8,0.75 L 11.6,8.9 11.9,8.75 12.05,8.7 Q 12.7,8.5 12.85,6.95 L 12.8,6.05 12.7,5.6 V 5.5 5.45 Q 12.75,4.75 12.25,4.5 m 0.25,6.25 q -1.7,-1 -2.2,-1 L 9.95,9.85 Q 7.9,8.65 6.25,8.3 5.75,8.45 5.75,8.75 L 5.7,9.45 q 0,0.75 0.45,1.2 l 0.1,-0.05 q 0.75,0 2.45,1.2 l 2.15,-0.1 q 0.85,0 3.05,1.7 l 1.55,2.15 0.2,-0.05 v -1.1 q -0.6,-2.05 -1.6,-2.55 L 12.5,10.75 M 6.75,5.1 6.9,4.25 Q 6.9,3.9 6.3,3.35 5.7,2.8 4.9,2.7 L 4.75,2.65 4,2.55 q -0.9,0 -1.4,0.3 -1.25,0.2 -1.25,1.85 0,1 0.7,1.5 0.5,0.6 1.65,0.6 L 4.35,6.75 5.1,6.6 Q 6.6,6.3 6.75,5.1 M 8.2,3.85 q 0.35,0 0.35,-0.6 Q 8.55,2.3 7.9,2.3 7,2.3 7,2.65 7,3 7.7,3.2 L 8.2,3.85 M 0.25,2.95 H -0.8 q 0.4,0.75 0.5,2.25 l -0.2,1.15 q -0.05,1.15 -1.1,1.75 -1.2,0.2 -1.2,1.65 0,1.45 1.7,1.45 0.5,0 1.05,-0.6 l 0.1,-0.05 0.2,-0.2 q 0.2,0.4 0.75,0.6 L 1.5,11.05 2.2,11 q 1,-0.2 1,-1.2 Q 3.05,8.35 2,8.15 1.05,7.6 0.85,7.3 L 0.6,6.95 Q 0.05,6.15 0.05,4.65 0.05,3.6 0.3,2.95 H 0.25 m 3.25,3 q -1.1,0 -1.1,-1.2 0,-1.1 1.25,-1.1 0.95,0 0.95,1.15 0,1.15 -1.1,1.15 M 3.4,14.9 q 0,-0.95 -1.75,-0.95 -4,0 -4,1 0.1,0.9 0.85,1.1 0.65,0.4 2.2,0.4 1.8,0 2.05,-0.55 0.65,-0.25 0.65,-1 m -2,5.45 0.05,-0.05 H 1.4 v 0.05 M -4.25,2.75 -4.55,2.8 h -0.1 q -1.55,0.15 -1.75,0.75 -0.45,0.4 -0.45,1.15 0,2.15 2.4,2.15 L -3.8,6.8 q 1.45,-0.1 2,-0.8 0.25,-0.3 0.35,-1.1 0,-1.1 -0.45,-1.55 -0.45,-0.6 -1.7,-0.6 h -0.25 -0.4 m -0.6,2 q 0,-1.1 1.25,-1.1 0.95,0 0.95,1.15 0,1.15 -1.1,1.15 -1.1,0 -1.1,-1.2 M -6.7,2.65 Q -6.7,2.3 -7.05,2.3 -8,2.3 -8,2.9 -8,3.55 -7.65,3.55 L -6.7,2.65 M -9.75,4.7 -9.95,4.65 q -1.55,0 -1.55,1.95 0.1,2.45 1.45,2.45 L -9.8,9 h 0.05 q 1.1,0 1.1,-2.45 Q -8.6,6.1 -8.7,5.6 -8.85,4.65 -9.55,4.65 l -0.2,0.05 m 3.9,4.2 -6.2,2.4 q -4.15,1.65 -4.15,4.05 0,0.95 0.5,1.75 l 0.2,-0.25 -0.1,-0.25 q 0,-1.45 1.15,-2.4 1.85,-1.6 3.95,-1.6 l 1.8,0.15 q 0.7,0 1.05,-0.55 0.4,-0.6 1.75,-0.7 l 0.95,-0.1 0.1,-0.1 Q -4.6,11 -4.6,10.55 L -5.4,8.8 -5.85,8.9 m 2.25,4.4 -1.05,0.65 -0.5,0.7 q -1.3,0.85 -1.3,1.25 l 0.25,1.15 q 0.5,1 0.95,1 L -4.1,17.4 q 0.55,-0.6 0.55,-0.9 l -0.3,-1.4 0.45,-1.5 q 0,-0.3 -0.2,-0.3 m 2.1,7 h -0.05 v 0.05 L -1.5,20.3"
         inkscape:connector-curvature="0"
         style="fill:#000000;fill-rule:evenodd;stroke:none" />
      <path
         id="path1635"
         d="M 8.2,3.85 7.7,3.2 Q 7,3 7,2.65 7,2.3 7.9,2.3 q 0.65,0 0.65,0.95 0,0.6 -0.35,0.6 M -6.7,2.65 -7.65,3.55 Q -8,3.55 -8,2.9 q 0,-0.6 0.95,-0.6 0.35,0 0.35,0.35"
         inkscape:connector-curvature="0"
         style="fill:#ca7902;fill-rule:evenodd;stroke:none" />
      <path
         id="path1637"
         d="m 1.1,-19.65 h 0.05 v 2.1 h 1.3 l 0.3,-0.05 0.25,0.05 v 0.05 l 0.3,0.55 v 0.45 q 0,0.7 -0.3,0.8 v 0.1 H 1.15 v 3.55 l -0.2,0.3 -0.7,0.2 q -1.2,0 -1.3,-0.75 v -3.3 H -2.8 -2.95 q -0.4,-0.1 -0.35,-0.8 l 0.05,-0.5 0.3,-0.6 v -0.05 h 1.9 v -1.85 -0.05 l 0.05,-0.15 0.05,-0.05 0.1,-0.15 1,-0.3 q 0.8,0 0.95,0.45 m 1.1,2.2 -1.85,-0.05 v -0.4 q 0,-1.85 -0.55,-1.85 -0.65,0 -0.65,1.8 v 0.45 q -2.2,0.05 -2.2,0.6 -0.75,0.55 2.2,0.6 v 2.25 q 0,1.85 0.65,1.85 0.55,0 0.55,-3.8 v -0.3 q 2.2,-0.05 2.2,-0.6 L 2.5,-17.2 2.35,-17.35 2.2,-17.45 m -12.45,12 -0.3,-1.65 q 0,-2.35 1.35,-3.6 l 0.45,-0.35 1.35,-0.7 0.2,-0.05 q 1.6,-0.65 3.05,-0.6 l 1.1,0.05 0.2,-0.05 0.4,0.35 q 0.3,1.55 2.3,1.55 2.35,0 2.55,-1.05 0.15,-0.95 1.5,-1.05 h 0.2 q 1.75,0.05 4.2,1.25 l 0.5,0.3 0.1,0.05 q 1.85,1.55 1.85,3.45 l -0.1,1.05 V -6 l -0.3,0.8 q -0.4,0.5 -1.3,0.5 -0.25,0 -0.25,-0.4 L 8.75,-5.5 H 8.6 L 8.7,-6.95 8.6,-8.25 8.2,-9.3 7.6,-10.2 6.9,-10.6 q -1.35,-0.7 -2.8,-1 l -0.05,0.1 2.4,1.65 q 0.95,0.75 1,2.2 l 0.05,0.7 -0.15,1.3 Q 6.55,-4.8 6,-4.8 5.25,-4.8 5.2,-5.35 L 5.1,-5.95 H 5.05 l 0.1,-1.5 V -7.9 L 5,-8.6 4.45,-9.85 l -1.1,-1 -0.25,0.2 0.75,1.2 q 0.4,1.15 0.4,1.95 l -0.2,1.35 q -0.6,0.7 -1.2,0.7 -0.4,0 -0.55,-0.45 L 2.05,-6.35 H 2 L 1.9,-7.45 1.25,-9.85 1,-9.8 1.1,-7.65 1,-6.35 H 0.95 Q 0.4,-5.7 -0.4,-5.7 q -0.45,0 -0.9,-0.55 H -1.35 L -1.4,-6.7 v -0.2 l -0.1,-1.55 0.15,-1.45 h -0.2 l -0.65,1.6 -0.25,1.55 0.05,0.65 h -0.05 q -0.15,0.85 -1.3,0.85 -0.8,0 -0.95,-0.55 l -0.1,0.05 -0.1,-1.2 q 0,-1.3 0.85,-2.55 l 0.85,-0.9 -0.15,-0.1 -2.05,1.15 -0.45,0.65 -0.3,1.8 0.15,1.4 0.05,0.1 v 0.05 l -0.1,0.15 h -0.3 l -0.3,0.25 q -0.35,0 -0.7,-0.4 L -7.4,-5.3 q -0.5,-1.25 -0.5,-2.45 l 0.1,-0.6 0.05,-0.1 q 0.45,-1.4 2.65,-2.45 l 0.95,-0.45 v -0.15 l -1.1,0.3 -1.9,0.7 -1.45,1.1 -0.2,0.3 -0.3,1.35 0.45,2.45 H -8.7 l -0.15,0.05 q 0,0.7 -0.4,0.7 -0.3,0 -0.9,-0.95 l -0.1,0.05 M 9.4,0.2 q 0,0.7 -0.7,0.7 L 1,1.45 -0.6,1.4 H -1.95 Q -7.2,1.4 -8.6,0.7 l -0.55,-0.35 -0.1,-0.4 v -0.1 l 0.05,-0.2 V -0.4 l 0.1,-0.2 q 0.25,-0.4 0.8,-0.5 l 0.55,0.1 8.8,0.55 7.05,-0.5 H 8.85 L 9,-0.9 l 0.15,0.3 0.1,0.25 0.05,0.3 0.05,0.2 0.05,0.05"
         inkscape:connector-curvature="0"
         style="fill:#666666;fill-rule:evenodd;stroke:none" />
      <path
         id="path1639"
         d="m -10.25,-5.45 0.1,-0.05 q 0.6,0.95 0.9,0.95 0.4,0 0.4,-0.7 L -8.7,-5.3 h 0.05 l 0.1,0.25 0.25,0.55 1.2,1.95 0.1,0.15 q 0,0.3 -0.4,0.3 -1.25,0 -1.5,-0.8 l -0.05,-0.1 -1.15,-1.95 -0.2,-0.5 h 0.05 m 2.85,0.15 0.05,-0.05 q 0.35,0.4 0.7,0.4 l 0.3,-0.25 h 0.3 l 0.1,-0.15 0.05,0.05 v 0.1 l 0.35,1.15 0.85,1.5 h -0.05 l 0.2,0.3 q 0,0.3 -0.3,0.3 -0.8,0 -1.7,-1.45 l -0.8,-1.65 -0.1,-0.2 0.05,-0.05 m 2.6,-0.45 0.1,-0.05 q 0.15,0.55 0.95,0.55 1.15,0 1.3,-0.85 h 0.05 l 0.05,0.1 -0.05,0.35 0.35,2.4 0.35,1.05 q 0,0.6 -0.5,0.6 -0.75,0 -1.5,-1.45 -0.8,-1.2 -1.05,-2.55 L -4.8,-5.75 m 3.45,-0.5 h 0.05 q 0.45,0.55 0.9,0.55 0.8,0 1.35,-0.65 l 0.05,0.1 0.05,0.05 -0.1,0.35 -0.15,1.1 q 0,2.6 -0.8,2.95 h -0.2 -0.1 q -0.35,-0.1 -0.4,-0.75 -0.4,-1 -0.6,-3.4 l -0.15,-0.2 0.1,-0.1 M 2,-6.35 H 2.05 L 2.3,-5.9 q 0.15,0.45 0.55,0.45 0.6,0 1.2,-0.7 l 0.1,0.1 -0.2,0.4 -0.1,0.4 -0.45,1.4 q -0.65,2.1 -1.6,2.1 -0.45,0 -0.45,-0.4 L 1.8,-3.85 1.9,-4.3 2,-5.05 V -5.1 L 2.05,-5.55 Q 1.9,-5.8 1.9,-6.25 v -0.1 H 2 m 3.05,0.4 H 5.1 l 0.1,0.6 q 0.05,0.55 0.8,0.55 0.55,0 1.35,-0.85 l 0.1,0.15 -0.2,0.3 -0.6,1.45 -0.6,0.95 -0.15,0.25 H 5.85 Q 5.15,-2 4.35,-2 3.85,-2 3.85,-2.45 L 4.2,-3.15 4.7,-4.4 5,-5.8 V -5.95 H 5.05 M 8.6,-5.5 h 0.15 l 0.05,0.4 q 0,0.4 0.25,0.4 0.9,0 1.3,-0.5 l 0.05,-0.1 0.1,0.1 -0.35,0.4 -0.6,1 -0.45,0.75 -0.8,0.7 -0.6,0.2 q -0.35,0 -0.35,-0.35 0,-0.65 0.4,-0.85 l 0.55,-1.1 0.25,-0.9 V -5.5 H 8.6"
         inkscape:connector-curvature="0"
         style="fill:#404040;fill-rule:evenodd;stroke:none" />
      <path
         id="path1641"
         d="m 2.2,-17.45 0.15,0.1 0.15,0.15 0.05,0.3 q 0,0.55 -2.2,0.6 v 0.3 q 0,3.8 -0.55,3.8 -0.65,0 -0.65,-1.85 v -2.25 q -2.95,-0.05 -2.2,-0.6 0,-0.55 2.2,-0.6 v -0.45 q 0,-1.8 0.65,-1.8 0.55,0 0.55,1.85 v 0.4 l 1.85,0.05"
         inkscape:connector-curvature="0"
         style="fill:#848484;fill-rule:evenodd;stroke:none" />
      <path
         id="path1643"
         d="m 12.5,10.75 1.55,1.1 q 1,0.5 1.6,2.55 v 1.1 L 15.45,15.55 13.9,13.4 Q 11.7,11.7 10.85,11.7 L 8.7,11.8 Q 7,10.6 6.25,10.6 l -0.1,0.05 Q 5.7,10.2 5.7,9.45 l 0.05,-0.7 q 0,-0.3 0.5,-0.45 1.65,0.35 3.7,1.55 l 0.35,-0.1 q 0.5,0 2.2,1 M -5.85,8.9 -5.4,8.8 l 0.8,1.75 q 0,0.45 -0.25,0.75 l -0.1,0.1 -0.95,0.1 q -1.35,0.1 -1.75,0.7 -0.35,0.55 -1.05,0.55 l -1.8,-0.15 q -2.1,0 -3.95,1.6 -1.15,0.95 -1.15,2.4 l 0.1,0.25 -0.2,0.25 q -0.5,-0.8 -0.5,-1.75 0,-2.4 4.15,-4.05 l 6.2,-2.4 m 2.25,4.4 q 0.2,0 0.2,0.3 l -0.45,1.5 0.3,1.4 q 0,0.3 -0.55,0.9 l -1.15,0.65 q -0.45,0 -0.95,-1 L -6.45,15.9 q 0,-0.4 1.3,-1.25 l 0.5,-0.7 1.05,-0.65"
         inkscape:connector-curvature="0"
         style="fill:#515151;fill-rule:evenodd;stroke:none" />
      <path
         id="path1645"
         d="M 0.25,2.95 H 0.3 q -0.25,0.65 -0.25,1.7 0,1.5 0.55,2.3 L 0.85,7.3 q 0.2,0.3 1.15,0.85 1.05,0.2 1.2,1.65 0,1 -1,1.2 L 1.5,11.05 1,10.95 q -0.55,-0.2 -0.75,-0.6 l -0.2,0.2 -0.1,0.05 q -0.55,0.6 -1.05,0.6 -1.7,0 -1.7,-1.45 0,-1.45 1.2,-1.65 1.05,-0.6 1.1,-1.75 L -0.3,5.2 Q -0.4,3.7 -0.8,2.95 H 0.25 M 3.4,14.9 q 0,0.75 -0.65,1 -0.25,0.55 -2.05,0.55 -1.55,0 -2.2,-0.4 -0.75,-0.2 -0.85,-1.1 0,-1 4,-1 1.75,0 1.75,0.95"
         inkscape:connector-curvature="0"
         style="fill:#fd9f13;fill-rule:evenodd;stroke:none" />
      <path
         id="path1647"
         d="m 12.25,4.5 q 0.5,0.25 0.45,0.95 V 5.5 5.6 l 0.1,0.45 0.05,0.9 Q 12.7,8.5 12.05,8.7 L 11.9,8.75 11.6,8.9 11.2,8.7 Q 10.55,8.65 10.4,7.95 L 10.2,7.4 10.05,6.35 q 0,-2 1.1,-2 L 11.4,4.4 h 0.2 l 0.65,0.1 M 11.4,7.8 q 0.65,0 0.65,-1.1 0.15,-1.35 -0.85,-1.35 -0.7,0 -0.7,0.95 0,1.5 0.9,1.5 M -9.75,4.7 -9.55,4.65 q 0.7,0 0.85,0.95 0.1,0.5 0.05,0.95 0,2.45 -1.1,2.45 H -9.8 l -0.25,0.05 q -1.35,0 -1.45,-2.45 0,-1.95 1.55,-1.95 l 0.2,0.05 M -9.05,6.75 -9.1,6.2 q -0.1,-0.55 -0.55,-0.55 -0.9,0 -0.7,1.15 -0.2,1.25 0.6,1.25 0.45,0 0.6,-0.6 l 0.1,-0.7"
         inkscape:connector-curvature="0"
         style="fill:#e38902;fill-rule:evenodd;stroke:none" />
      <path
         id="path1649"
         d="m 11.4,7.8 q -0.9,0 -0.9,-1.5 0,-0.95 0.7,-0.95 1,0 0.85,1.35 0,1.1 -0.65,1.1 m -20.45,-1.05 -0.1,0.7 q -0.15,0.6 -0.6,0.6 -0.8,0 -0.6,-1.25 -0.2,-1.15 0.7,-1.15 0.45,0 0.55,0.55 l 0.05,0.55"
         inkscape:connector-curvature="0"
         style="fill:#9e6003;fill-rule:evenodd;stroke:none" />
    </g>
  </g>
</svg>
