<?xml version="1.0" encoding="UTF-8" standalone="no"?>
<!-- Created with Inkscape (http://www.inkscape.org/) -->

<svg
   xmlns:dc="http://purl.org/dc/elements/1.1/"
   xmlns:cc="http://creativecommons.org/ns#"
   xmlns:rdf="http://www.w3.org/1999/02/22-rdf-syntax-ns#"
   xmlns:svg="http://www.w3.org/2000/svg"
   xmlns="http://www.w3.org/2000/svg"
   xmlns:sodipodi="http://sodipodi.sourceforge.net/DTD/sodipodi-0.dtd"
   xmlns:inkscape="http://www.inkscape.org/namespaces/inkscape"
   width="50"
   height="50"
   viewBox="0 0 13.229166 13.229167"
   version="1.1"
   id="svg833"
   sodipodi:docname="bp.svg"
   inkscape:version="0.92.4 (5da689c313, 2019-01-14)">
  <defs
     id="defs827" />
  <sodipodi:namedview
     id="base"
     pagecolor="#ffffff"
     bordercolor="#666666"
     borderopacity="1.0"
     inkscape:pageopacity="0.0"
     inkscape:pageshadow="2"
     inkscape:zoom="7.9195959"
     inkscape:cx="26.667751"
     inkscape:cy="31.245885"
     inkscape:document-units="mm"
     inkscape:current-layer="layer1"
     showgrid="false"
     units="px"
     inkscape:window-width="1920"
     inkscape:window-height="975"
     inkscape:window-x="-8"
     inkscape:window-y="-8"
     inkscape:window-maximized="1" />
  <metadata
     id="metadata830">
    <rdf:RDF>
      <cc:Work
         rdf:about="">
        <dc:format>image/svg+xml</dc:format>
        <dc:type
           rdf:resource="http://purl.org/dc/dcmitype/StillImage" />
        <dc:title></dc:title>
      </cc:Work>
    </rdf:RDF>
  </metadata>
  <g
     inkscape:label="Layer 1"
     inkscape:groupmode="layer"
     id="layer1"
     transform="translate(0,-283.77082)">
    <g
       id="g1690"
       transform="matrix(0.26458333,0,0,0.26458333,6.5856195,290.37217)">
      <path
         id="path1672"
         d="m 1.6,-19 -0.1,-0.05 -2.25,-0.25 q -3.05,0 -3.8,4.9 l 0.3,1.45 v 0.05 q 1.1,2.2 1.1,2.65 -2.55,4.3 -2.85,6.4 2.55,-1.05 6.2,-1.05 l 1.9,0.1 v 0.05 h 0.15 l 0.1,-0.05 1.3,0.15 H 3.7 l 2.25,0.6 q -0.15,-2 -1.4,-4 -1.3,-2.1 -3.35,-2.65 l -0.45,-0.2 -0.05,0.05 -1.25,-0.1 H -0.8 L -1.75,-11 v -0.1 l -0.1,-0.2 0.1,-0.05 -0.05,-0.1 0.25,-0.1 0.95,-0.35 1.6,-0.25 v 0.05 l 0.35,-0.1 0.3,0.05 q 1.3,0.05 2.05,0.65 1,-1.2 1.1,-3.35 0,-2.8 -2.2,-3.8 L 1.6,-19 m 4.35,9.7 0.95,2.4 q 0.95,2.65 1,3.9 1.4,1.15 1.4,2.4 L 9.25,0.35 v 0.4 q 0,1.2 -0.95,1.3 V 2.1 L 8.15,2 8,4.15 7.9,4.5 q 0,0.7 0.7,0.7 H 8.75 9.2 L 9.85,5.15 q 3.05,0 2.8,2.6 0.15,5.1 -4.1,5.1 l -1.4,-0.2 V 13.3 L 6.9,15.6 q -0.2,2 -1.05,3.3 L 5.3,19.55 q -1.05,0.95 -2.7,1.2 l -3.3,0.45 q -1.7,0 -3.25,-0.7 -2.4,-0.75 -3.45,-2.75 -0.7,-1.35 -0.7,-3.6 l 0.05,-0.5 H -8.4 q -3.9,0 -4.05,-4.3 0,-3.35 3.3,-3.4 L -9.2,5.85 Q -8.35,5.75 -8.35,4.9 V 4.3 4.1 2.45 l -0.2,0.1 -0.85,-0.3 q -0.4,-0.5 -0.2,-1.7 0,-2.05 1,-2.7 L -7.65,-3 q 0.2,-1.5 1,-3.75 0.9,-2.75 1.9,-3.55 l -0.1,-0.1 q -1.45,-1.7 -1.45,-3.95 0.65,-6.75 5.7,-6.75 7.15,0 7.15,6.2 0,2.95 -1.35,4.6 l 0.75,1 m -0.2,9.15 V -0.1 H 5.9 L 6,-0.05 7.1,0.3 7.55,0.2 Q 8.1,0.15 8.1,-0.5 8.1,-0.95 7.7,-1.3 L 7.5,-1.5 5.8,-2.4 5.55,-2.5 H 5.45 L 4.55,-2.8 3.55,-3 3.45,-3.05 0,-3.2 q -3.5,0.05 -5.6,0.95 l -0.9,0.45 q -1.3,0.55 -1.45,1.45 L -8.2,0.3 q -0.25,0.8 0.75,0.8 l 0.8,-0.55 h 0.1 L -5.6,0.15 Q -2.55,-1 0.7,-1 l 2.7,0.2 0.15,0.1 0.1,-0.05 2.05,0.6 H 5.75 M 6.3,5.55 6.2,5.35 V 5.3 Q 5.5,4.7 3.55,4.7 H 3.1 L 2.9,4.65 q -0.7,0 -0.85,0.8 L 2,5.75 V 5.8 6.05 q -0.1,2 0.65,2 0.55,0 0.55,-0.65 L 3.35,6.95 Q 3.55,6.2 4.2,6.05 L 4.35,6.1 q 0.7,0.2 0.7,0.75 l -0.1,0.8 q 0,0.6 0.45,0.6 1,0 1,-1.7 L 6.35,6.1 V 5.95 5.9 5.75 L 6.3,5.55 m 0.45,-4.2 -1.9,-0.4 -3.6,-0.35 -5.3,0.6 -1.65,0.25 -1.5,0.5 0.4,1.8 0.7,-0.2 2.1,-0.3 1.5,-0.05 0.45,0.6 q 0.45,0.4 0.65,1.15 l 0.3,-0.1 h 0.4 l 1.2,0.1 Q 0.6,3.85 1.25,3.55 L 1.95,3.15 2.6,3.1 h 0.2 0.05 l 3.4,0.4 Q 6.4,1.95 6.75,1.35 M -1.5,6.8 q -0.4,0.55 -0.4,1.8 v 0.2 0.15 q 0,3.6 1.5,3.6 1.55,0 1.55,-4.25 V 8.2 Q 1.15,7.2 0.8,6.7 0.5,6.35 0.05,6.3 l -0.5,-0.05 q -0.65,0 -1,0.45 L -1.5,6.75 V 6.8 m 3.85,4.1 0.35,0.15 q 1,0.3 1.25,2.4 0,2.85 -1,3.25 -0.35,0.45 -0.85,0.45 v -0.2 Q 2.1,14.6 0.4,14.6 l -1.05,0.1 -1.25,0.15 -0.5,0.2 -0.2,0.15 v 0.05 Q -3,15.75 -3,16.8 v 0.55 h -0.05 l -0.25,0.1 q -0.45,0 -0.75,-0.6 Q -4.75,16 -5,13.35 l 0.15,-0.95 0.5,-0.8 Q -3.9,11.1 -3.3,10.9 L -3.45,9.55 H -3.5 l -1.9,0.2 H -5.75 -5.8 L -6.05,9.7 -6.15,9.75 H -6.2 -6.3 v 0.1 q -0.4,0.45 -0.45,2.7 V 12.9 13 q 0,4.15 2.65,5.75 l 1,0.55 2.7,0.25 0.3,0.05 0.6,-0.05 Q 2.15,19.5 3.3,18.85 L 3.6,18.7 q 0.95,-0.4 1.55,-1.8 l 0.5,-1.75 Q 5.9,13.65 5.75,11.7 5.8,10.3 5.55,9.85 V 9.75 L 5.45,9.65 H 5.4 L 5.2,9.6 4.95,9.65 2.6,9.45 2.35,10.7 v 0.2 M 7.7,7.25 7.5,8.7 7.85,8.5 Q 9.2,7.7 9.8,7.7 L 10.15,8.1 8.85,8.9 9.35,9.45 9.3,9.8 9,9.85 8.1,9.35 7.35,9.8 7.25,10.5 7.4,10.8 q 0.2,0.5 1.05,0.5 2.8,0 2.7,-3.5 0,-1.15 -1.45,-1.15 l -2,0.6 M -3.7,4.75 q -2.1,0 -3.5,0.85 l -0.1,0.75 q -0.1,1 0.3,1.45 0.2,0.55 0.6,0.55 0.45,0 0.45,-0.75 l -0.1,-0.95 q 0,-0.4 0.35,-0.6 l 0.45,-0.1 q 0.75,0 1,0.95 L -4.2,7 q -0.15,0.85 0.15,1.05 V 8.1 H -4 l 0.25,0.05 q 0.95,0 0.95,-2.3 0,-0.4 -0.2,-0.5 V 5.3 L -3.15,5 Q -3.35,4.75 -3.7,4.75 M -8.05,9.3 -8.2,7.9 -9.2,7.45 q -1.9,0 -1.75,1.95 0,2.7 2.55,2.7 l 0.35,-0.15 0.05,-1.5 -0.45,-0.3 -0.4,0.3 -0.7,0.4 -0.4,-0.1 L -10,10.5 -9.05,9.75 -10.2,8.95 q 0,-0.45 0.45,-0.45 0.75,0 1.6,0.8 l 0.1,0.1 V 9.3 m 2.3,4.2 v -0.05 l 0.05,0.1 -0.05,-0.05"
         inkscape:connector-curvature="0"
         style="fill:#000000;fill-rule:evenodd;stroke:none" />
      <path
         id="path1674"
         d="m 6.3,5.55 0.05,0.2 V 5.9 5.95 6.1 L 6.4,6.55 q 0,1.7 -1,1.7 -0.45,0 -0.45,-0.6 l 0.1,-0.8 Q 5.05,6.3 4.35,6.1 L 4.2,6.05 Q 3.55,6.2 3.35,6.95 L 3.2,7.4 Q 3.2,8.05 2.65,8.05 1.9,8.05 2,6.05 V 5.8 5.75 L 2.05,5.45 Q 2.2,4.65 2.9,4.65 L 3.1,4.7 h 0.45 q 1.95,0 2.65,0.6 v 0.05 l 0.1,0.2 m -10,-0.8 q 0.35,0 0.55,0.25 L -3,5.3 v 0.05 q 0.2,0.1 0.2,0.5 0,2.3 -0.95,2.3 L -4,8.1 H -4.05 V 8.05 Q -4.35,7.85 -4.2,7 L -4.25,6.9 q -0.25,-0.95 -1,-0.95 l -0.45,0.1 q -0.35,0.2 -0.35,0.6 l 0.1,0.95 q 0,0.75 -0.45,0.75 Q -6.8,8.35 -7,7.8 -7.4,7.35 -7.3,6.35 L -7.2,5.6 q 1.4,-0.85 3.5,-0.85"
         inkscape:connector-curvature="0"
         style="fill:#ffffff;fill-rule:evenodd;stroke:none" />
      <path
         id="path1676"
         d="M 2.1,-4.8 0.2,-4.9 q -3.65,0 -6.2,1.05 0.3,-2.1 2.85,-6.4 0,-0.45 -1.1,-2.65 v -0.05 l -0.3,-1.45 q 0.75,-4.9 3.8,-4.9 l 2.25,0.25 0.1,0.05 -0.1,0.1 q 1.6,1.45 1.6,3.9 0,1.85 -2.15,2.75 l 0.05,0.1 -1.6,0.25 -0.95,0.35 -0.25,0.1 0.05,0.1 -0.1,0.05 0.1,0.2 v 0.1 l 0.95,0.05 h 0.25 l 1.25,0.1 -0.1,0.1 q 1.3,0.3 1.8,4.65 0,0.9 -0.3,1.05 v 0.25 m 3.65,4.65 H 5.7 V -0.2 l 0.05,0.05 M 3.4,-0.8 0.7,-1 q -3.25,0 -6.3,1.15 l -0.95,0.4 h -0.1 l -0.8,0.55 q -1,0 -0.75,-0.8 l 0.25,-0.65 q 0.15,-0.9 1.45,-1.45 l 0.9,-0.45 Q -3.5,-3.15 0,-3.2 l 3.45,0.15 0.1,0.05 -0.05,0.05 0.5,1 q 0,0.75 -0.6,1.1 v 0.05 m -9.5,0.05 q 0,-0.3 -0.55,-0.3 -0.9,0 -0.9,1.1 0,0.45 0.35,0.45 l 0.65,-0.55 0.45,-0.7 M -3.05,-6.8 Q -2.5,-8 -2.5,-8.35 l -0.3,-0.4 q -0.4,0 -1.7,3 0,0.35 0.3,0.35 0.5,0 1.15,-1.4 m 2.6,-10.25 q -0.3,-1.15 -0.65,-1.15 -0.85,0 -1.7,1.1 -0.75,1.05 -0.75,1.8 0.15,0.7 0.85,0.7 0.75,0 1.55,-1.05 0.7,-0.9 0.7,-1.4 M -4.2,-5.7 h -0.05 v -0.05 l 0.05,0.05"
         inkscape:connector-curvature="0"
         style="fill:#666666;fill-rule:evenodd;stroke:none" />
      <path
         id="path1678"
         d="M 2.1,-4.8 V -5.05 Q 2.4,-5.2 2.4,-6.1 1.9,-10.45 0.6,-10.75 l 0.1,-0.1 0.05,-0.05 0.45,0.2 q 2.05,0.55 3.35,2.65 1.25,2 1.4,4 L 3.7,-4.65 H 3.65 L 2.35,-4.8 2.25,-4.75 H 2.1 V -4.8 M 1,-12.15 0.95,-12.25 q 2.15,-0.9 2.15,-2.75 0,-2.45 -1.6,-3.9 l 0.1,-0.1 1,0.35 q 2.2,1 2.2,3.8 -0.1,2.15 -1.1,3.35 -0.75,-0.6 -2.05,-0.65 L 1.35,-12.2 1,-12.1 v -0.05 m 2.55,9.15 1,0.2 0.9,0.3 h 0.1 l 0.25,0.1 1.7,0.9 0.2,0.2 q 0.4,0.35 0.4,0.8 0,0.65 -0.55,0.7 L 7.1,0.3 6,-0.05 5.9,-0.1 H 5.75 V -0.15 L 5.7,-0.2 v 0.05 L 3.65,-0.75 3.55,-0.7 3.4,-0.8 V -0.85 Q 4,-1.2 4,-1.95 L 3.5,-2.95 3.55,-3"
         inkscape:connector-curvature="0"
         style="fill:#404040;fill-rule:evenodd;stroke:none" />
      <path
         id="path1680"
         d="m -0.45,-17.05 q 0,0.5 -0.7,1.4 -0.8,1.05 -1.55,1.05 -0.7,0 -0.85,-0.7 0,-0.75 0.75,-1.8 0.85,-1.1 1.7,-1.1 0.35,0 0.65,1.15 m -2.6,10.25 q -0.65,1.4 -1.15,1.4 -0.3,0 -0.3,-0.35 1.3,-3 1.7,-3 l 0.3,0.4 q 0,0.35 -0.55,1.55 m -3.05,6.05 -0.45,0.7 -0.65,0.55 q -0.35,0 -0.35,-0.45 0,-1.1 0.9,-1.1 0.55,0 0.55,0.3 m 1.9,-4.95 -0.05,-0.05 v 0.05 h 0.05"
         inkscape:connector-curvature="0"
         style="fill:#7b7b7b;fill-rule:evenodd;stroke:none" />
      <path
         id="path1682"
         d="M -1.5,6.8 V 6.75 L -1.45,6.7 -1.5,6.8"
         inkscape:connector-curvature="0"
         style="fill:#fb8c1e;fill-rule:evenodd;stroke:none" />
      <path
         id="path1684"
         d="m -1.45,6.7 q 0.35,-0.45 1,-0.45 L 0.05,6.3 Q 0.5,6.35 0.8,6.7 1.15,7.2 1.15,8.2 v 0.1 q 0,4.25 -1.55,4.25 -1.5,0 -1.5,-3.6 V 8.8 8.6 q 0,-1.25 0.4,-1.8 l 0.05,-0.1"
         inkscape:connector-curvature="0"
         style="fill:#fdad35;fill-rule:evenodd;stroke:none" />
      <path
         id="path1686"
         d="M 6.75,1.35 Q 6.4,1.95 6.25,3.5 L 2.85,3.1 H 2.8 2.6 L 1.95,3.15 1.25,3.55 Q 0.6,3.85 0.5,4.95 l -1.2,-0.1 h -0.4 l -0.3,0.1 Q -1.6,4.2 -2.05,3.8 L -2.5,3.2 -4,3.25 l -2.1,0.3 -0.7,0.2 -0.4,-1.8 1.5,-0.5 1.65,-0.25 5.3,-0.6 3.6,0.35 1.9,0.4 M 2.35,10.9 V 10.7 L 2.6,9.45 4.95,9.65 5.2,9.6 5.4,9.65 h 0.05 l 0.1,0.1 v 0.1 q 0.25,0.45 0.2,1.85 0.15,1.95 -0.1,3.45 l -0.5,1.75 q -0.6,1.4 -1.55,1.8 l -0.3,0.15 q -1.15,0.65 -2.8,0.7 l -0.6,0.05 -0.3,-0.05 -2.7,-0.25 -1,-0.55 Q -6.75,17.15 -6.75,13 V 12.9 12.55 Q -6.7,10.3 -6.3,9.85 v -0.1 h 0.1 0.05 l 0.1,-0.05 0.25,0.05 h 0.05 0.35 l 1.9,-0.2 h 0.05 l 0.15,1.35 q -0.6,0.2 -1.05,0.7 l -0.5,0.8 -0.15,0.95 q 0.25,2.65 0.95,3.5 0.3,0.6 0.75,0.6 l 0.25,-0.1 H -3 V 16.8 q 0,-1.05 0.4,-1.55 V 15.2 l 0.2,-0.15 0.5,-0.2 1.25,-0.15 1.05,-0.1 q 1.7,0 1.7,2.35 v 0.2 q 0.5,0 0.85,-0.45 1,-0.4 1,-3.25 Q 3.7,11.35 2.7,11.05 L 2.35,10.9 m -8.1,2.6 0.05,0.05 -0.05,-0.1 v 0.05"
         inkscape:connector-curvature="0"
         style="fill:#fb9b0d;fill-rule:evenodd;stroke:none" />
      <path
         id="path1688"
         d="m 7.7,7.25 2,-0.6 q 1.45,0 1.45,1.15 0.1,3.5 -2.7,3.5 -0.85,0 -1.05,-0.5 L 7.25,10.5 7.35,9.8 8.1,9.35 9,9.85 9.3,9.8 9.35,9.45 8.85,8.9 10.15,8.1 9.8,7.7 Q 9.2,7.7 7.85,8.5 L 7.5,8.7 7.7,7.25 M -8.15,9.3 Q -9,8.5 -9.75,8.5 q -0.45,0 -0.45,0.45 l 1.15,0.8 -0.95,0.75 0.05,0.25 0.4,0.1 0.7,-0.4 0.4,-0.3 0.45,0.3 -0.05,1.5 -0.35,0.15 q -2.55,0 -2.55,-2.7 -0.15,-1.95 1.75,-1.95 l 1,0.45 0.15,1.4 h -0.1"
         inkscape:connector-curvature="0"
         style="fill:#ea8d04;fill-rule:evenodd;stroke:none" />
    </g>
  </g>
</svg>
