<?xml version="1.0" encoding="UTF-8" standalone="no"?>
<!-- Created with Inkscape (http://www.inkscape.org/) -->

<svg
   xmlns:dc="http://purl.org/dc/elements/1.1/"
   xmlns:cc="http://creativecommons.org/ns#"
   xmlns:rdf="http://www.w3.org/1999/02/22-rdf-syntax-ns#"
   xmlns:svg="http://www.w3.org/2000/svg"
   xmlns="http://www.w3.org/2000/svg"
   xmlns:sodipodi="http://sodipodi.sourceforge.net/DTD/sodipodi-0.dtd"
   xmlns:inkscape="http://www.inkscape.org/namespaces/inkscape"
   width="50"
   height="50"
   viewBox="0 0 13.229166 13.229167"
   version="1.1"
   id="svg833"
   sodipodi:docname="br.svg"
   inkscape:version="0.92.4 (5da689c313, 2019-01-14)">
  <defs
     id="defs827" />
  <sodipodi:namedview
     id="base"
     pagecolor="#ffffff"
     bordercolor="#666666"
     borderopacity="1.0"
     inkscape:pageopacity="0.0"
     inkscape:pageshadow="2"
     inkscape:zoom="11.2"
     inkscape:cx="28.661678"
     inkscape:cy="27.13251"
     inkscape:document-units="mm"
     inkscape:current-layer="layer1"
     showgrid="false"
     units="px"
     inkscape:window-width="1920"
     inkscape:window-height="975"
     inkscape:window-x="-8"
     inkscape:window-y="-8"
     inkscape:window-maximized="1" />
  <metadata
     id="metadata830">
    <rdf:RDF>
      <cc:Work
         rdf:about="">
        <dc:format>image/svg+xml</dc:format>
        <dc:type
           rdf:resource="http://purl.org/dc/dcmitype/StillImage" />
        <dc:title></dc:title>
      </cc:Work>
    </rdf:RDF>
  </metadata>
  <g
     inkscape:label="Layer 1"
     inkscape:groupmode="layer"
     id="layer1"
     transform="translate(0,-283.77082)">
    <g
       id="g1517"
       transform="matrix(0.26458333,0,0,0.26458333,6.5815104,290.37952)">
      <path
         id="path1503"
         d="m 13.95,-20.6 0.2,0.3 0.35,1.5 0.05,0.4 -0.05,0.2 0.3,2.3 0.4,4.6 q 0,2.2 -3.65,2.2 L 8.95,-9.05 8.7,-8.75 8.8,-8.5 8.75,-8.25 8.8,-8 8.95,-6.55 v 0.05 l 0.1,1.15 0.2,1.35 q 0.05,0.55 0.55,0.6 0.8,0.05 1,1.15 l 0.1,1.4 0.65,2.55 q 0,0.45 -0.6,0.75 v 0.1 h -0.9 V 3.2 l 0.3,2.15 0.55,3.35 0.9,0.75 q 2.15,1.9 2.45,2.95 l 0.35,0.65 0.5,1.45 0.2,0.45 q 0,0.4 -0.35,0.4 L 14.65,15.1 13.9,14.6 Q 13.15,14 11.1,14 h -0.05 l -0.2,0.55 q -0.7,2.75 -1.5,3.15 l -0.55,0.55 -0.85,0.8 q -2.2,1.85 -8.7,1.85 -2.95,0 -5.75,-1.65 -1.75,-1.05 -2.45,-2.2 L -9.1,16.75 -9.35,16.3 v -0.1 l -0.4,-2 q -2.95,0.05 -3.85,1.2 h -0.1 -0.05 l -0.3,0.4 q -0.4,0 -0.4,-0.35 l 0.15,-0.35 0.45,-1.75 0.3,-1.2 V 12.1 l 0.05,-0.05 q 0.25,-1.15 2.3,-2.7 l 1.55,-1 L -9.4,5.8 -9.2,3.5 V 2.55 h -1.1 L -10.75,1.95 -10.9,1 V 0.85 l 0.2,-2.35 v -0.2 q 0.05,-1.2 0.55,-1.55 l 0.9,-0.1 h 0.1 0.05 V -3.4 l 0.4,-0.35 0.05,-0.9 q 0.1,-0.65 0.05,-1.9 V -6.7 l -0.05,-0.45 0.1,-0.65 v -0.6 q -0.1,-0.45 -0.8,-0.7 l -4.7,-0.25 q -1,-0.35 -1,-1.5 l 0.2,-5 0.05,-2.8 q 0.05,-1.15 0.45,-1.55 l 0.1,-0.3 0.45,-0.2 6.1,-0.1 h 0.2 0.1 q 1.1,-0.05 0.85,2.9 l -0.1,1.5 1.3,-0.05 1.35,0.05 0.05,-1.5 q -0.15,-1.35 0.05,-2.05 V -20 q 0,-0.9 1,-0.85 l 6.15,0.1 0.45,0.2 0.2,0.55 -0.05,0.2 0.05,2.1 -0.05,1.2 2.85,0.1 0.1,-2.05 q -0.45,-1.6 0.15,-2.05 0.2,-0.4 0.8,-0.35 l 5.75,0.1 0.45,0.15 m -16,10.8 H -2.1 l -1.75,-0.5 2.15,-0.35 9,-0.1 0.55,-0.05 0.3,0.05 4,-0.05 q 1.35,-0.2 1.35,-0.75 l -0.6,-7.05 -0.05,-0.05 Q 12.7,-19.1 12.15,-19.2 H 12 l -1.5,0.05 H 9.6 l -0.55,0.05 q -0.5,0 -0.65,0.4 l 0.05,0.85 q 0,2.8 -0.85,2.85 H 7.45 L 7.2,-14.9 3.85,-14.85 3.5,-14.9 H 3.4 L 3.15,-14.95 H 3 l -0.3,-0.1 Q 2,-15.5 2.25,-17.7 l -0.1,-1 v -0.2 l -0.4,-0.3 -2.6,-0.05 -0.3,0.05 -1,0.25 -0.1,0.7 v 0.1 l -0.05,0.2 q 0.3,2.8 -0.8,2.85 H -3.25 L -5.4,-14.85 -7.3,-15 h -0.05 q -0.95,-0.05 -0.9,-0.95 l 0.05,-2.55 -0.1,-0.65 -3.45,0.25 -0.85,0.05 -0.3,0.15 -0.1,0.35 -0.35,7.2 q 0,0.35 0.7,0.35 l 0.25,-0.05 1.65,-0.05 q 2.95,0.05 3.75,0.65 l 0.2,0.65 v 1.35 l -0.25,4.05 0.15,0.6 0.7,0.25 h 3.45 v 0.05 h 0.25 l 0.25,-0.05 h 9.2 L 7.4,-3.95 Q 7.3,-4.3 7.35,-4.75 L 6.85,-9.2 H 6.8 L 1,-9.65 -0.95,-9.75 -2.05,-9.8 M 8.9,-1.7 H 8.85 L 8.65,-1.75 H 8.5 -8 -8.95 v 0.25 0.05 l -0.25,1.7 q 0,0.65 0.7,0.65 h 0.2 L 8,1 8.7,1.1 q 0.7,0 0.7,-0.75 -0.1,-1.7 -0.5,-2 V -1.7 M -8.3,-19.15 v -0.05 l -1.5,0.05 h 1.5 m 3.75,22.2 h -0.1 Q -6.2,3.2 -6.4,3.8 l -0.4,0.65 2.1,-0.1 2.25,-0.1 h 0.9 L -1.9,3.6 Q -2.35,3 -3.6,3 h -0.25 -0.4 l -0.3,0.05 M -4.9,5.8 h -0.55 l -1.3,-0.1 q -0.2,0.2 -0.2,0.55 0.15,1.2 1.15,1.2 h 0.15 0.1 q 0.8,0 0.8,-0.75 0,-0.3 -0.15,-0.45 V 6.15 L -4.95,5.9 -4.9,5.8 M -3.1,5.65 V 6.3 7.05 Q -2.2,6.85 -1.8,6.3 L -1.45,5.4 -3.1,5.65 M -0.3,5.5 -0.55,6.9 -0.7,7.1 -1.35,7.4 q -0.85,0.35 -0.85,1.9 0,2.4 2.25,2.4 Q 2.4,11.7 2.4,9.6 2.35,7.65 1.5,7.45 1.15,7.1 0.65,7.1 H 0.6 L 0.45,6.95 Q 0.05,6.2 0.05,4.9 0.05,3.15 0.7,2.55 h -2 q 0.8,0.6 1,2.95 M -6.7,2.9 Q -6.7,2.55 -7.05,2.55 -8,2.55 -8,3.15 -8,3.8 -7.65,3.8 L -6.7,2.9 M -7.9,6 Q -8.25,6.05 -8.25,6.55 L -8.3,7.8 -7.65,7.6 -7.9,6.05 V 6 m 5.7,8.75 -0.2,0.1 q -0.4,0.25 -0.4,0.65 0,0.95 1.95,0.95 L 3,16.15 Q 3.4,15.8 3.4,15.35 L 3.3,15.1 v -0.05 q 0,-0.8 -2.8,-0.8 -2,0 -2.7,0.5 m 0.35,2.95 q -2.4,-0.2 -2.4,-2.05 l 0.1,-0.9 -2.5,-0.35 -1.4,-0.05 0.15,0.2 -0.05,0.1 0.6,1.8 -0.1,-0.05 1.65,1.55 q 3.4,1.55 4.6,1.6 l 0.9,0.05 h 1 Q 4.75,19.15 6.45,18.3 L 7.8,17.15 q 0.7,-0.35 1.35,-2.3 0,-0.4 -0.45,-0.45 H 8.65 L 7.6,14.55 5.55,14.8 h -0.5 l 0.05,0.75 q 0,2.5 -4.4,2.2 L -1.85,17.7 m 13.55,-6.55 0.15,0.15 -0.3,-0.4 0.15,0.25 M 7,5.85 6.9,5.7 4.8,5.85 4.7,6.2 4.75,6.5 q 0,0.75 0.8,0.75 L 6.85,6.9 6.95,6.3 7,5.85 M 6.85,4.3 6.3,3.6 Q 5.7,3.05 4.9,2.95 L 4.75,2.9 4,2.8 Q 3.1,2.8 2.6,3.1 1.65,3.25 1.4,4.3 L 4.15,4.45 6.85,4.3 M 8.2,4.1 Q 8.55,4.1 8.55,3.5 8.55,2.55 7.9,2.55 7,2.55 7,2.9 7,3.25 7.7,3.45 L 8.2,4.1 M 8.65,5.2 8.25,5.65 8,7.4 8.7,7.55 8.95,7.1 8.65,5.2 M 2.95,5.85 1.45,5.7 Q 1.6,6.2 2.05,6.5 2.35,6.9 3,7.05 L 2.9,6.15 2.95,5.85"
         inkscape:connector-curvature="0"
         style="fill:#000000;fill-rule:evenodd;stroke:none" />
      <path
         id="path1505"
         d="M -3.1,5.65 -1.45,5.4 -1.8,6.3 Q -2.2,6.85 -3.1,7.05 V 6.3 5.65 M -4.9,5.8 -4.95,5.9 -4.9,6.15 v 0.1 q 0.15,0.15 0.15,0.45 0,0.75 -0.8,0.75 h -0.1 -0.15 q -1,0 -1.15,-1.2 0,-0.35 0.2,-0.55 l 1.3,0.1 H -4.9 M 7,5.85 6.95,6.3 6.85,6.9 5.55,7.25 q -0.8,0 -0.8,-0.75 L 4.7,6.2 4.8,5.85 6.9,5.7 7,5.85 M 2.95,5.85 2.9,6.15 3,7.05 Q 2.35,6.9 2.05,6.5 1.6,6.2 1.45,5.7 l 1.5,0.15"
         inkscape:connector-curvature="0"
         style="fill:#ffffff;fill-rule:evenodd;stroke:none" />
      <path
         id="path1507"
         d="M -2.75,-3.35 H -6.2 L -6.9,-3.6 -7.05,-4.2 -6.8,-8.25 V -9.6 L -7,-10.25 q -0.8,-0.6 -3.75,-0.65 l -1.65,0.05 -0.25,0.05 q -0.7,0 -0.7,-0.35 l 0.35,-7.2 0.1,-0.35 0.3,-0.15 0.85,-0.05 3.45,-0.25 0.1,0.65 -0.05,2.55 q -0.05,0.9 0.9,0.95 h 0.05 l 1.9,0.15 2.15,-0.25 h 0.15 q 1.1,-0.05 0.8,-2.85 l 0.05,-0.2 v -0.1 l 0.1,-0.7 1,-0.25 0.3,-0.05 2.6,0.05 0.4,0.3 v 0.2 l 0.1,1 Q 2,-15.5 2.7,-15.05 l 0.3,0.1 H 3.15 L 3.4,-14.9 H 3.5 L 3.85,-14.85 7.2,-14.9 7.45,-15 H 7.6 q 0.85,-0.05 0.85,-2.85 L 8.4,-18.7 q 0.15,-0.4 0.65,-0.4 l 0.55,-0.05 h 0.9 L 12,-19.2 h 0.15 q 0.55,0.1 0.7,0.55 l 0.05,0.05 0.6,7.05 q 0,0.55 -1.35,0.75 l -4,0.05 -0.3,-0.05 -0.55,0.05 -9,0.1 -2.15,0.35 1.75,0.5 h 0.05 l 2.25,0.85 q 1.65,0.2 1.85,0.6 l 0.15,2.3 q 0,1.35 -0.4,1.55 l -4.6,0.95 0.05,0.2 M 8.9,-1.7 v 0.05 q 0.4,0.3 0.5,2 0,0.75 -0.7,0.75 L 8,1 -8.3,0.9 h -0.2 q -0.7,0 -0.7,-0.65 l 0.25,-1.7 V -1.5 -1.75 H -8 8.5 8.65 l 0.2,0.05 H 8.9"
         inkscape:connector-curvature="0"
         style="fill:#666666;fill-rule:evenodd;stroke:none" />
      <path
         id="path1509"
         d="M -2.75,-3.35 -2.8,-3.55 1.8,-4.5 q 0.4,-0.2 0.4,-1.55 l -0.15,-2.3 q -0.2,-0.4 -1.85,-0.6 l -2.25,-0.85 1.1,0.05 1.95,0.1 5.8,0.45 h 0.05 l 0.5,4.45 Q 7.3,-4.3 7.4,-3.95 l -0.45,0.6 h -9.2 L -2.5,-3.3 h -0.25 v -0.05"
         inkscape:connector-curvature="0"
         style="fill:#404040;fill-rule:evenodd;stroke:none" />
      <path
         id="path1511"
         d="M -4.55,3.05 -4.25,3 h 0.4 0.25 q 1.25,0 1.7,0.6 l 0.35,0.65 h -0.9 l -2.25,0.1 -2.1,0.1 0.4,-0.65 q 0.2,-0.6 1.75,-0.75 h 0.1 M -0.3,5.5 q -0.2,-2.35 -1,-2.95 h 2 q -0.65,0.6 -0.65,2.35 0,1.3 0.4,2.05 L 0.6,7.1 h 0.05 q 0.5,0 0.85,0.35 0.85,0.2 0.9,2.15 0,2.1 -2.35,2.1 -2.25,0 -2.25,-2.4 0,-1.55 0.85,-1.9 L -0.7,7.1 -0.55,6.9 -0.3,5.5 m -1.9,9.25 q 0.7,-0.5 2.7,-0.5 2.8,0 2.8,0.8 v 0.05 l 0.1,0.25 q 0,0.45 -0.4,0.8 l -3.85,0.3 q -1.95,0 -1.95,-0.95 0,-0.4 0.4,-0.65 l 0.2,-0.1 M 6.85,4.3 4.15,4.45 1.4,4.3 Q 1.65,3.25 2.6,3.1 3.1,2.8 4,2.8 L 4.75,2.9 4.9,2.95 q 0.8,0.1 1.4,0.65 l 0.55,0.7"
         inkscape:connector-curvature="0"
         style="fill:#fdad35;fill-rule:evenodd;stroke:none" />
      <path
         id="path1513"
         d="M -6.7,2.9 -7.65,3.8 Q -8,3.8 -8,3.15 q 0,-0.6 0.95,-0.6 0.35,0 0.35,0.35 M -7.9,6 V 6.05 L -7.65,7.6 -8.3,7.8 -8.25,6.55 Q -8.25,6.05 -7.9,6 M 8.65,5.2 8.95,7.1 8.7,7.55 8,7.4 8.25,5.65 8.65,5.2 M 8.2,4.1 7.7,3.45 Q 7,3.25 7,2.9 7,2.55 7.9,2.55 q 0.65,0 0.65,0.95 0,0.6 -0.35,0.6"
         inkscape:connector-curvature="0"
         style="fill:#af6a03;fill-rule:evenodd;stroke:none" />
      <path
         id="path1515"
         d="m -1.85,17.7 2.55,0.05 q 4.4,0.3 4.4,-2.2 L 5.05,14.8 h 0.5 L 7.6,14.55 8.65,14.4 H 8.7 Q 9.15,14.45 9.15,14.85 8.5,16.8 7.8,17.15 L 6.45,18.3 q -1.7,0.85 -5.75,1.3 h -1 l -0.9,-0.05 q -1.2,-0.05 -4.6,-1.6 l -1.65,-1.55 0.1,0.05 -0.6,-1.8 0.05,-0.1 -0.15,-0.2 1.4,0.05 2.5,0.35 -0.1,0.9 q 0,1.85 2.4,2.05"
         inkscape:connector-curvature="0"
         style="fill:#f99706;fill-rule:evenodd;stroke:none" />
    </g>
  </g>
</svg>
