<?xml version="1.0" encoding="UTF-8" standalone="no"?>
<!-- Created with Inkscape (http://www.inkscape.org/) -->

<svg
   xmlns:dc="http://purl.org/dc/elements/1.1/"
   xmlns:cc="http://creativecommons.org/ns#"
   xmlns:rdf="http://www.w3.org/1999/02/22-rdf-syntax-ns#"
   xmlns:svg="http://www.w3.org/2000/svg"
   xmlns="http://www.w3.org/2000/svg"
   xmlns:sodipodi="http://sodipodi.sourceforge.net/DTD/sodipodi-0.dtd"
   xmlns:inkscape="http://www.inkscape.org/namespaces/inkscape"
   width="50"
   height="50"
   viewBox="0 0 13.229166 13.229167"
   version="1.1"
   id="svg833"
   inkscape:version="0.92.4 (5da689c313, 2019-01-14)"
   sodipodi:docname="wb.svg">
  <defs
     id="defs827" />
  <sodipodi:namedview
     id="base"
     pagecolor="#ffffff"
     bordercolor="#666666"
     borderopacity="1.0"
     inkscape:pageopacity="0.0"
     inkscape:pageshadow="2"
     inkscape:zoom="7.9195959"
     inkscape:cx="24.839101"
     inkscape:cy="28.691766"
     inkscape:document-units="mm"
     inkscape:current-layer="layer1"
     showgrid="false"
     units="px"
     inkscape:window-width="1920"
     inkscape:window-height="975"
     inkscape:window-x="-8"
     inkscape:window-y="-8"
     inkscape:window-maximized="1" />
  <metadata
     id="metadata830">
    <rdf:RDF>
      <cc:Work
         rdf:about="">
        <dc:format>image/svg+xml</dc:format>
        <dc:type
           rdf:resource="http://purl.org/dc/dcmitype/StillImage" />
        <dc:title></dc:title>
      </cc:Work>
    </rdf:RDF>
  </metadata>
  <g
     inkscape:label="Layer 1"
     inkscape:groupmode="layer"
     id="layer1"
     transform="translate(0,-283.77082)">
    <g
       id="g1746"
       transform="matrix(0.26458333,0,0,0.26458333,6.553504,290.3854)">
      <path
         id="path1736"
         d="M 1.85,-4.35 0.4,-4.4 l -5.2,0.65 1.7,-5 3.25,-10.9 1.7,15.3 M 3.75,-0.1 0.9,-0.35 q -3.4,0 -6.55,1.2 l -0.3,0.15 -0.4,0.15 -0.3,0.1 -0.1,0.05 -0.2,0.2 -0.7,0.2 Q -8.3,1.7 -8.4,1.1 V 1.05 l 0.25,-0.7 Q -8,-0.6 -6.6,-1.2 l 0.95,-0.45 q 2.2,-0.9 5.85,-0.95 l 3.6,0.15 -0.05,0.05 0.4,1.15 -0.05,0.3 -0.35,0.75 v 0.1 m -2.2,4.75 q 0,-2.2 2.3,-2.2 1.9,0 1.75,2.35 0,1.95 -2.05,1.95 -1.35,0 -1.8,-0.8 Q 1.5,5.5 1.55,4.9 V 4.65 m 2.9,0.1 Q 4.45,3.6 3.5,3.6 q -1.25,0 -1.25,1.1 0,1.2 1.1,1.2 1.1,-0.05 1.1,-1.15 m -8.05,-2 q 0.85,0.1 1.2,0.8 0.3,0.6 0.35,1.55 0,1.5 -1.9,1.65 h -0.1 q -1.7,-0.2 -1.65,-1.8 -0.05,-2.3 1.3,-2.3 l 0.8,0.1 m -0.25,1 Q -4.8,3.7 -4.8,5 -4.8,6 -3.6,6.05 -2.7,6 -2.7,5 -2.7,3.7 -3.85,3.75"
         inkscape:connector-curvature="0"
         style="fill:#ffffff;fill-rule:evenodd;stroke:none" />
      <path
         id="path1738"
         d="m 2.7,-17.1 1.6,5.95 q 0.45,1.9 2.6,7.9 0.9,0.4 1.9,1.2 1.25,1.15 1.25,2.5 0,1.7 -1.35,2 l 0.2,0.75 1.2,-0.15 1.7,0.2 q 0.7,0.3 1.2,1.2 l 0.4,2.75 q 0,1.05 -0.9,1.9 l 0.15,0.2 0.55,0.7 q 1.3,1.9 3,6.8 V 16.95 17 q 0,0.85 -0.9,0.85 -1.5,0 -3.25,-1.3 l -0.1,1.15 q 0.1,1.1 -0.75,1.1 -0.9,0 -2.75,-1.2 L 7.65,17.1 Q 7.35,18.9 6.25,19.4 4.85,20 3.2,21 2.35,21.5 1.45,21.5 l -2.9,-0.15 h -0.1 Q -3.9,21.3 -4.4,20.45 -4.95,19.55 -5.2,19.5 -6.6,19.35 -6.8,17.85 l -0.65,-0.4 -1.25,0.7 q -1.8,0.85 -2.85,0.85 -1.05,0 -0.9,-0.75 0,-0.75 0.55,-1.95 v -0.05 l -2.05,0.15 q -2.05,0 -1.75,-0.7 2.1,-2.65 2.45,-3.4 l 0.85,-2.3 0.1,-0.2 -0.3,-0.15 q -1.35,-0.4 -1.35,-2.65 0,-2.75 1.7,-3.15 0.5,-0.45 1.25,-0.2 l 1.65,0.2 0.2,-0.6 Q -10.05,2.9 -10.05,1.6 L -9.8,0.5 q 0.15,-1.5 0.95,-2.05 l 0.35,-0.35 1.1,-0.65 q 2.35,-5.55 2.95,-7.9 l 2.15,-6.4 q 1.55,-4.65 2.6,-4.65 1.15,0 2.4,4.4 M 1.85,-4.35 2.55,-4.3 H 2.6 l 1.45,0.15 h 0.1 L 4.2,-4.1 4.7,-4 Q 3.9,-5.65 3,-9.5 0.95,-17.9 0.15,-19.65 l -3.25,10.9 -1.7,5 5.2,-0.65 1.45,0.05 m 3.7,2.3 -1.5,-0.35 -0.2,-0.05 H 3.8 L 0.2,-2.6 q -3.65,0.05 -5.85,0.95 L -6.6,-1.2 Q -8,-0.6 -8.15,0.35 L -8.4,1.05 V 1.1 q 0.1,0.6 0.75,0.6 l 0.7,-0.2 0.2,-0.2 0.1,-0.05 0.3,-0.1 0.4,-0.15 0.3,-0.15 q 3.15,-1.2 6.55,-1.2 L 3.75,-0.1 3.8,-0.05 3.95,-0.1 5.45,0.25 V 0.3 l 0.1,0.05 h 0.1 l 0.8,0.3 1.15,0.4 0.45,-0.1 Q 8.6,0.9 8.65,0.2 L 8.2,-0.65 6.6,-1.65 5.85,-1.95 H 5.8 L 5.65,-2.05 5.6,-2 5.55,-2.05 M 10.4,8.3 q 0.6,0 1.1,-0.7 l 0.4,-0.9 q 0,-2.3 -2,-2.3 -0.55,0 -0.65,0.4 H 9.2 V 4.95 5 q 0,0.65 0.3,1.7 0,1.6 0.9,1.6 m 0,1.65 V 10 l 0.1,0.35 0.05,1 -0.6,2.25 Q 9.5,14 9.55,14.5 9.6,14.95 9.1,15.35 l -0.05,0.3 1.5,1.25 q 0,-1.95 0.95,-1.95 l 2.7,1 L 11,10 10.95,9.9 10.4,9.95 M 6.5,2.45 Q 6.85,3.2 7.05,4.8 7.05,6.3 6.25,7.05 6.7,7.8 7,10 l 0.1,0.8 q 0,2.05 -2.9,2.05 L 3,12.75 q -0.65,3 -2.65,3 -2.35,0 -3.05,-3.15 l -2.9,0.3 q -1.85,0 -1.7,-2.75 V 10 Q -7.25,7.6 -6.75,6.8 L -7.05,6.05 V 5.1 L -7.1,4.2 -6.85,3.55 -6.7,3.15 -6.5,2.8 -6.7,2.6 q -0.65,0 -0.9,0.6 L -7.65,3.25 V 3.4 L -7.8,4.45 -8.1,6.3 -8.3,7.2 -8.55,10 -8.6,11.35 q 0,1.4 0.65,2.15 l 2,2.05 0.9,2.1 0.25,0.45 h 0.1 q 0.55,0.05 0.9,0.4 h 0.05 l 0.6,0.65 q 0.55,0.75 4.45,0.75 0.55,0 2.3,-1 l 2.1,-1.55 0.55,-1.85 0.2,-0.4 q 0.5,-0.35 1.45,-0.45 l 0.05,-0.8 Q 8.8,12.5 8.8,11.65 L 8.6,10.15 V 10 L 8.1,6.35 7.95,5.7 7.85,4.95 7.75,3.35 7.3,2.45 Q 7,2.05 6.5,2.05 L 6.3,2.3 6.5,2.45 M 0.65,1.35 0,1.3 -2.85,1.5 Q -1.7,2 -1.4,2.35 -0.85,2.95 -0.8,4.4 L -1,7.2 -1.05,7.3 H -1.1 v 0.05 l -0.05,0.3 q -0.3,0.7 -0.3,2.35 v 0.05 l 0.05,1.1 q 0,2.6 1.5,2.6 1.3,0 1.55,-2 l 0.1,-1.6 V 10.05 10 L 1.2,7.6 Q 0.5,5.2 0.55,4.5 L 0.5,3.9 Q 0.5,2.05 2.05,1.35 H 1.5 0.65 m 0.9,3.3 V 4.9 Q 1.5,5.5 1.75,5.95 2.2,6.75 3.55,6.75 5.6,6.75 5.6,4.8 5.75,2.45 3.85,2.45 q -2.3,0 -2.3,2.2 m 2.9,0.1 q 0,1.1 -1.1,1.15 -1.1,0 -1.1,-1.2 0,-1.1 1.25,-1.1 0.95,0 0.95,1.15 M 4.85,7.7 4.1,7.75 3.05,7.65 3.25,9.15 V 9.45 10 L 3.2,10.95 h 0.55 q 1.6,0 1.65,-0.95 V 9.95 L 4.85,7.7 M 0,18.4 q -2.1,0 -2.1,-0.95 0,-0.85 3.35,-0.85 1.35,0 1.35,0.75 0,1.05 -2.6,1.05 M -3.6,2.75 -4.4,2.65 q -1.35,0 -1.3,2.3 -0.05,1.6 1.65,1.8 h 0.1 Q -2.05,6.6 -2.05,5.1 -2.1,4.15 -2.4,3.55 -2.75,2.85 -3.6,2.75 m -0.25,1 Q -2.7,3.7 -2.7,5 -2.7,6 -3.6,6.05 -4.8,6 -4.8,5 q 0,-1.3 0.95,-1.25 m -6,2.3 0.15,-0.45 q 0,-0.65 -0.85,-0.65 -1.75,0 -1.75,2.2 0,1.45 1.35,1.45 0.85,0 0.85,-0.75 l -0.05,-0.3 0.2,-1.15 0.1,-0.35 m 4.15,4.3 q 0,0.65 1.75,0.6 L -2.95,11 -3,10 V 9.15 l 0.1,-1.4 -0.9,0.1 H -3.85 -4.3 -4.5 L -5.25,7.8 -5.7,10.35 m -4.85,6.95 1.1,-0.85 1.15,-0.75 -1.05,-0.95 Q -10.5,13.8 -10.5,11.5 l 0.05,-0.65 q -1.55,2.85 -2.6,4.1 l 1.75,-0.3 q 0.95,0 0.9,1.05 l -0.2,1.6 -0.05,0.05 0.1,-0.05"
         inkscape:connector-curvature="0"
         style="fill:#000000;fill-rule:evenodd;stroke:none" />
      <path
         id="path1740"
         d="M 0.15,-19.65 Q 0.95,-17.9 3,-9.5 3.9,-5.65 4.7,-4 L 4.2,-4.1 4.15,-4.15 H 4.05 L 2.6,-4.3 H 2.55 l -0.7,-0.05 -1.7,-15.3 m 3.65,17.2 h 0.05 l 0.2,0.05 1.5,0.35 V -2 H 5.6 l 0.05,-0.05 0.15,0.1 h 0.05 l 0.75,0.3 1.6,1 0.45,0.85 Q 8.6,0.9 8.05,0.95 L 7.6,1.05 6.45,0.65 5.65,0.35 H 5.55 L 5.45,0.3 V 0.25 L 3.95,-0.1 3.8,-0.05 3.75,-0.1 V -0.2 L 4.1,-0.95 4.15,-1.25 3.75,-2.4 3.8,-2.45 M 10.4,9.95 10.95,9.9 11,10 l 3.2,5.95 -2.7,-1 q -0.95,0 -0.95,1.95 L 9.05,15.65 9.1,15.35 Q 9.6,14.95 9.55,14.5 9.5,14 9.95,13.6 l 0.6,-2.25 -0.05,-1 L 10.4,10 V 9.95 M 6.5,2.45 6.3,2.3 6.5,2.05 q 0.5,0 0.8,0.4 l 0.45,0.9 0.1,1.6 L 7.95,5.7 8.1,6.35 8.6,10 v 0.15 l 0.2,1.5 q 0,0.85 -0.85,2.2 L 7.9,14.65 Q 6.95,14.75 6.45,15.1 L 6.25,15.5 5.7,17.35 3.6,18.9 q -1.75,1 -2.3,1 -3.9,0 -4.45,-0.75 L -3.75,18.5 H -3.8 q -0.35,-0.35 -0.9,-0.4 h -0.1 l -0.25,-0.45 -0.9,-2.1 -2,-2.05 Q -8.6,12.75 -8.6,11.35 L -8.55,10 -8.3,7.2 -8.1,6.3 -7.8,4.45 -7.65,3.4 V 3.25 L -7.6,3.2 q 0.25,-0.6 0.9,-0.6 l 0.2,0.2 -0.2,0.35 -0.15,0.4 -0.25,0.65 0.05,0.9 v 0.95 l 0.3,0.75 Q -7.25,7.6 -7.3,10 v 0.15 q -0.15,2.75 1.7,2.75 l 2.9,-0.3 q 0.7,3.15 3.05,3.15 2,0 2.65,-3 l 1.2,0.1 q 2.9,0 2.9,-2.05 L 7,10 Q 6.7,7.8 6.25,7.05 7.05,6.3 7.05,4.8 6.85,3.2 6.5,2.45 M 0,18.4 q 2.6,0 2.6,-1.05 0,-0.75 -1.35,-0.75 -3.35,0 -3.35,0.85 0,0.95 2.1,0.95 m -10.6,-1.1 0.2,-1.6 q 0.05,-1.05 -0.9,-1.05 l -1.75,0.3 q 1.05,-1.25 2.6,-4.1 l -0.05,0.65 q 0,2.3 1.15,3.25 l 1.05,0.95 -1.15,0.75 -1.1,0.85 h -0.05"
         inkscape:connector-curvature="0"
         style="fill:#d0d0d0;fill-rule:evenodd;stroke:none" />
      <path
         id="path1742"
         d="M 10.4,8.3 Q 9.5,8.3 9.5,6.7 9.2,5.65 9.2,5 V 4.95 4.8 h 0.05 q 0.1,-0.4 0.65,-0.4 2,0 2,2.3 L 11.5,7.6 Q 11,8.3 10.4,8.3 M 0.65,1.35 H 1.5 2.05 Q 0.5,2.05 0.5,3.9 L 0.55,4.5 Q 0.5,5.2 1.2,7.6 L 1.75,10 v 0.05 0.1 l -0.1,1.6 q -0.25,2 -1.55,2 -1.5,0 -1.5,-2.6 l -0.05,-1.1 V 10 q 0,-1.65 0.3,-2.35 L -1.1,7.35 V 7.3 h 0.05 L -1,7.2 -0.8,4.4 Q -0.85,2.95 -1.4,2.35 -1.7,2 -2.85,1.5 L 0,1.3 0.65,1.35 m -10.5,4.7 -0.1,0.35 -0.2,1.15 0.05,0.3 q 0,0.75 -0.85,0.75 -1.35,0 -1.35,-1.45 0,-2.2 1.75,-2.2 0.85,0 0.85,0.65 l -0.15,0.45"
         inkscape:connector-curvature="0"
         style="fill:#ffcc66;fill-rule:evenodd;stroke:none" />
      <path
         id="path1744"
         d="M 4.85,7.7 5.4,9.95 V 10 Q 5.35,10.95 3.75,10.95 H 3.2 L 3.25,10 V 9.45 9.15 L 3.05,7.65 4.1,7.75 4.85,7.7 M -5.7,10.35 -5.25,7.8 -4.5,7.85 h 0.2 0.45 0.05 L -2.9,7.75 -3,9.15 V 10 l 0.05,1 -1,-0.05 Q -5.7,11 -5.7,10.35"
         inkscape:connector-curvature="0"
         style="fill:#feb74e;fill-rule:evenodd;stroke:none" />
    </g>
  </g>
</svg>
