<?xml version="1.0" encoding="UTF-8" standalone="no"?>
<!-- Created with Inkscape (http://www.inkscape.org/) -->

<svg
   xmlns:dc="http://purl.org/dc/elements/1.1/"
   xmlns:cc="http://creativecommons.org/ns#"
   xmlns:rdf="http://www.w3.org/1999/02/22-rdf-syntax-ns#"
   xmlns:svg="http://www.w3.org/2000/svg"
   xmlns="http://www.w3.org/2000/svg"
   xmlns:sodipodi="http://sodipodi.sourceforge.net/DTD/sodipodi-0.dtd"
   xmlns:inkscape="http://www.inkscape.org/namespaces/inkscape"
   width="50"
   height="50"
   viewBox="0 0 13.229166 13.229167"
   version="1.1"
   id="svg833"
   sodipodi:docname="wk.svg"
   inkscape:version="0.92.4 (5da689c313, 2019-01-14)">
  <defs
     id="defs827" />
  <sodipodi:namedview
     id="base"
     pagecolor="#ffffff"
     bordercolor="#666666"
     borderopacity="1.0"
     inkscape:pageopacity="0.0"
     inkscape:pageshadow="2"
     inkscape:zoom="11.2"
     inkscape:cx="25.881426"
     inkscape:cy="29.051399"
     inkscape:document-units="mm"
     inkscape:current-layer="layer1"
     showgrid="false"
     units="px"
     inkscape:window-width="1920"
     inkscape:window-height="975"
     inkscape:window-x="-8"
     inkscape:window-y="-8"
     inkscape:window-maximized="1" />
  <metadata
     id="metadata830">
    <rdf:RDF>
      <cc:Work
         rdf:about="">
        <dc:format>image/svg+xml</dc:format>
        <dc:type
           rdf:resource="http://purl.org/dc/dcmitype/StillImage" />
        <dc:title></dc:title>
      </cc:Work>
    </rdf:RDF>
  </metadata>
  <g
     inkscape:label="Layer 1"
     inkscape:groupmode="layer"
     id="layer1"
     transform="translate(0,-283.77082)">
    <g
       id="g1454"
       transform="matrix(0.26458333,0,0,0.26458333,6.588125,290.35233)">
      <path
         id="path1442"
         d="m -10.25,-5.45 -0.3,-1.65 q 0,-2.35 1.35,-3.6 l 0.45,-0.35 1.35,-0.7 0.2,-0.05 q 1.6,-0.65 3.05,-0.6 l 1.1,0.05 0.2,-0.05 0.4,0.35 q 0.3,1.55 2.3,1.55 2.35,0 2.55,-1.05 0.15,-0.95 1.5,-1.05 h 0.2 q 1.75,0.05 4.2,1.25 l 0.5,0.3 0.1,0.05 q 1.85,1.55 1.85,3.45 l -0.1,1.05 V -6 l -0.3,0.8 q -0.4,0.5 -1.3,0.5 -0.25,0 -0.25,-0.4 L 8.75,-5.5 H 8.6 L 8.7,-6.95 8.6,-8.25 8.2,-9.3 7.6,-10.2 6.9,-10.6 q -1.35,-0.7 -2.8,-1 l -0.05,0.1 2.4,1.65 q 0.95,0.75 1,2.2 l 0.05,0.7 -0.15,1.3 Q 6.55,-4.8 6,-4.8 5.25,-4.8 5.2,-5.35 L 5.1,-5.95 H 5.05 l 0.1,-1.5 V -7.9 L 5,-8.6 4.45,-9.85 l -1.1,-1 -0.25,0.2 0.75,1.2 q 0.4,1.15 0.4,1.95 l -0.2,1.35 q -0.6,0.7 -1.2,0.7 -0.4,0 -0.55,-0.45 L 2.05,-6.35 H 2 L 1.9,-7.45 1.25,-9.85 1,-9.8 1.1,-7.65 1,-6.25 0.95,-6.35 Q 0.4,-5.7 -0.4,-5.7 q -0.45,0 -0.9,-0.55 H -1.35 L -1.4,-6.7 v -0.2 l -0.1,-1.55 0.15,-1.45 h -0.2 l -0.65,1.6 -0.25,1.55 0.05,0.65 h -0.05 q -0.15,0.85 -1.3,0.85 -0.8,0 -0.95,-0.55 l -0.1,0.05 -0.1,-1.2 q 0,-1.3 0.85,-2.55 l 0.85,-0.9 -0.15,-0.1 -2.05,1.15 -0.45,0.65 -0.3,1.8 0.2,1.55 -0.1,-0.15 -0.6,0.55 q -0.35,0 -0.7,-0.4 L -7.4,-5.3 q -0.5,-1.25 -0.5,-2.45 l 0.1,-0.6 0.05,-0.1 q 0.45,-1.4 2.65,-2.45 l 0.95,-0.45 v -0.15 l -1.1,0.3 -1.9,0.7 -1.45,1.1 -0.2,0.3 -0.3,1.35 0.45,2.45 H -8.7 l -0.15,0.05 q 0,0.7 -0.4,0.7 -0.3,0 -0.9,-0.95 l -0.1,0.05 M 1.1,-19.65 h 0.05 v 2.1 h 1.3 l 0.3,-0.05 0.25,0.05 v 0.05 l 0.3,0.55 v 0.45 q 0,0.7 -0.3,0.8 v 0.1 H 1.15 v 3.55 l -0.2,0.3 -0.7,0.2 q -1.2,0 -1.3,-0.75 v -3.3 H -2.8 -2.95 q -0.4,-0.1 -0.35,-0.8 l 0.05,-0.5 0.3,-0.6 v -0.05 h 1.9 v -1.85 -0.05 l 0.05,-0.15 0.05,-0.05 0.1,-0.15 1,-0.3 q 0.8,0 0.95,0.45 m 7,18.7 H 8.85 L 9,-0.9 l 0.15,0.3 0.1,0.25 0.05,0.3 0.05,0.2 H 9.4 Q 9.4,0.9 8.7,0.9 L 1,1.45 -0.6,1.4 H -1.95 Q -7.2,1.4 -8.6,0.7 l -0.55,-0.35 -0.1,-0.4 v -0.1 l 0.05,-0.2 V -0.4 l 0.1,-0.2 q 0.25,-0.4 0.8,-0.5 l 0.55,0.1 8.8,0.55 7.05,-0.5 m 7.05,11.3 0.15,0.15 q 0,0.8 -1.2,2 -1.4,1.3 -3.05,1.3 -3.65,0 -5.15,-1.5 L 4.7,11.35 Q 4.1,10.8 4.1,10.3 L 4.3,9.8 4.2,9.65 q 0,-0.4 1,-0.4 0.9,0 3,1.4 2.05,1.4 3.9,1.45 2.75,0 2.9,-1.7 l 0.15,-0.05 M 6.75,5.1 Q 6.6,6.3 5.1,6.6 L 4.35,6.75 3.7,6.8 Q 2.55,6.8 2.05,6.2 1.35,5.7 1.35,4.7 1.35,3.05 2.6,2.85 3.1,2.55 4,2.55 L 4.75,2.65 4.9,2.7 Q 5.7,2.8 6.3,3.35 6.9,3.9 6.9,4.25 L 6.75,5.1 M 3.5,5.95 q 1.1,0 1.1,-1.15 0,-1.15 -0.95,-1.15 -1.25,0 -1.25,1.1 0,1.2 1.1,1.2 m -7.75,-3.2 h 0.4 0.25 q 1.25,0 1.7,0.6 0.45,0.45 0.45,1.55 -0.1,0.8 -0.35,1.1 -0.55,0.7 -2,0.8 l -0.65,0.05 q -2.4,0 -2.4,-2.15 0,-0.75 0.45,-1.15 0.2,-0.6 1.75,-0.75 h 0.1 l 0.3,-0.05 m 1.6,2.05 q 0,-1.15 -0.95,-1.15 -1.25,0 -1.25,1.1 0,1.2 1.1,1.2 1.1,0 1.1,-1.15 M -4,9.95 q 0,1.45 -2.2,2.35 -3.55,1.45 -5.85,1.45 -2.85,0 -2.85,-2.85 l 0.05,-0.65 0.2,-0.05 0.45,0.95 q 0.6,1 2.85,1 1.3,-0.05 3.45,-1.6 2.15,-1.6 2.95,-1.6 0.95,0 0.95,1"
         inkscape:connector-curvature="0"
         style="fill:#ffffff;fill-rule:evenodd;stroke:none" />
      <path
         id="path1444"
         d="m 2.5,-19.45 0.1,0.15 0.05,0.05 q 1.6,0.3 1.75,0.6 0.35,0.7 0.35,1.7 l -0.15,1.7 v 0.05 l -0.1,0.35 q -0.25,0.3 -1.05,0.45 H 3.4 l -0.85,0.2 -0.1,0.2 -0.05,0.15 v 0.05 0.1 H 2.3 l 0.45,0.4 H 3.1 3.25 l 1.2,-0.15 H 4.5 4.6 5.1 q 3.75,0.5 5.35,1.75 1.7,1.45 1.7,4.75 0,1.4 -0.45,2.4 -0.75,1.65 -1.4,2.15 h 0.15 L 10.4,-2.2 10.35,-2.15 10.4,-2 h -0.05 l 0.05,0.05 0.2,0.15 0.55,1.35 v 0.1 0.2 0.1 0.25 L 10.5,2 10.3,2.15 10.15,2.3 h -0.1 v 0.65 l 0.3,2.1 0.7,4.25 V 9.35 Q 11.4,10 11.9,10.3 L 12.35,10.2 12.8,9.95 12.9,9.9 Q 13.35,9.6 13.35,8.55 L 13.3,8.25 13.15,6.7 12.75,5.3 q 0,-0.3 0.2,-0.3 1.15,0 2.6,1.75 L 15.8,7 l 0.45,0.7 1,1.8 0.15,1.6 q 0,2.15 -1.45,3.9 -2,2.3 -6,2.3 H 9.25 L 9.2,17.35 7.95,19.7 7.4,20.3 6.05,20.55 Q 5.35,21.45 4.6,21.5 L 3.25,20.85 q -0.95,1.1 -1.85,1.1 -0.45,0 -1.35,-0.85 -1.25,0.8 -1.7,0.8 -1.1,0 -1.85,-1.4 -0.15,0 -1.15,0.5 -0.65,0 -1.2,-1.1 H -6.3 q -0.8,0 -1.8,-2.35 L -8.35,17.3 h -1.4 q -4,0 -6,-2.3 -1.45,-1.75 -1.45,-3.9 l 0.15,-1.6 1,-1.8 0.5,-0.7 0.2,-0.25 Q -13.9,5 -12.75,5 l 0.2,0.3 -0.4,1.4 0.05,0.05 -0.25,1.6 q 0,1.2 0.55,1.6 l 0.45,0.25 0.5,0.1 q 0.8,-0.05 1.55,-0.7 L -9.85,9.35 -9.75,9.2 -9.4,5.5 -9.2,3.25 V 2.4 L -9.15,2.35 H -9.2 V 2.3 H -9.25 Q -10.35,1.95 -11,0.65 L -11.05,0.1 v -0.15 -0.3 Q -11,-1.5 -10.55,-2 l 0.1,-0.15 0.1,-0.2 0.2,-0.05 q -0.65,-0.5 -1.4,-2.15 -0.45,-1 -0.45,-2.4 0,-3.3 1.7,-4.75 1.55,-1.25 5.3,-1.75 h 0.5 l 1.05,0.1 q 1.1,-0.2 1.1,-0.5 L -2.4,-14.1 -3,-14.25 -3.4,-14.2 q -0.55,-0.1 -0.85,-0.35 l -0.3,-0.5 -0.05,-0.05 -0.05,-0.2 -0.2,-2 q 0,-1.75 1.75,-1.85 l 0.05,-0.05 h 0.45 q 0.2,-0.15 0.2,-1.1 v -0.3 l 0.6,-0.8 1.65,-0.3 0.5,0.05 q 1.9,0.1 2.1,1.35 l 0.05,0.85 m -1.4,-0.2 Q 0.95,-20.1 0.15,-20.1 l -1,0.3 -0.1,0.15 -0.05,0.05 -0.05,0.15 v 0.05 1.85 h -1.9 v 0.05 l -0.3,0.6 -0.05,0.5 q -0.05,0.7 0.35,0.8 h 0.15 1.75 v 3.3 q 0.1,0.75 1.3,0.75 l 0.7,-0.2 0.2,-0.3 V -15.6 H 3 v -0.1 q 0.3,-0.1 0.3,-0.8 v -0.45 L 3,-17.5 v -0.05 l -0.25,-0.05 -0.3,0.05 h -1.3 v -2.1 H 1.1 m 9.25,14.45 0.3,-0.8 v -0.5 l 0.1,-1.05 q 0,-1.9 -1.85,-3.45 l -0.1,-0.05 -0.5,-0.3 Q 5.85,-12.55 4.1,-12.6 H 3.9 q -1.35,0.1 -1.5,1.05 -0.2,1.05 -2.55,1.05 -2,0 -2.3,-1.55 l -0.4,-0.35 -0.2,0.05 -1.1,-0.05 q -1.45,-0.05 -3.05,0.6 l -0.2,0.05 -1.35,0.7 -0.45,0.35 q -1.35,1.25 -1.35,3.6 l 0.3,1.65 h -0.05 l 0.2,0.5 1.15,1.95 0.05,0.1 q 0.25,0.8 1.5,0.8 0.4,0 0.4,-0.3 l -0.1,-0.15 -1.2,-1.95 -0.25,-0.55 -0.1,-0.25 -0.45,-2.45 0.3,-1.35 0.2,-0.3 1.45,-1.1 1.9,-0.7 1.1,-0.3 v 0.15 l -0.95,0.45 q -2.2,1.05 -2.65,2.45 l -0.05,0.1 -0.1,0.6 q 0,1.2 0.5,2.45 l -0.05,0.05 0.1,0.2 0.8,1.65 q 0.9,1.45 1.7,1.45 0.3,0 0.3,-0.3 l -0.2,-0.3 H -4.7 L -5.55,-4.05 -5.9,-5.2 v -0.1 l -0.05,-0.05 -0.2,-1.55 0.3,-1.8 0.45,-0.65 2.05,-1.15 0.15,0.1 -0.85,0.9 q -0.85,1.25 -0.85,2.55 l 0.1,1.2 0.05,0.15 q 0.25,1.35 1.05,2.55 0.75,1.45 1.5,1.45 0.5,0 0.5,-0.6 L -2.05,-3.25 -2.4,-5.65 -2.35,-6 -2.4,-6.1 -2.45,-6.75 -2.2,-8.3 -1.55,-9.9 h 0.2 l -0.15,1.45 0.1,1.55 v 0.2 l 0.05,0.45 -0.1,0.1 0.15,0.2 q 0.2,2.4 0.6,3.4 0.05,0.65 0.4,0.75 H -0.2 0 Q 0.8,-2.15 0.8,-4.75 L 0.95,-5.85 1.05,-6.2 1,-6.25 1.1,-7.65 1,-9.8 1.25,-9.85 1.9,-7.45 2,-6.35 H 1.9 v 0.1 q 0,0.45 0.15,0.7 L 2,-5.1 v 0.05 l -0.1,0.75 -0.1,0.45 -0.45,1.7 q 0,0.4 0.45,0.4 0.95,0 1.6,-2.1 l 0.45,-1.4 0.1,-0.4 0.2,-0.4 -0.1,-0.1 0.2,-1.35 q 0,-0.8 -0.4,-1.95 l -0.75,-1.2 0.25,-0.2 1.1,1 0.55,1.25 0.15,0.7 v 0.45 l -0.1,1.5 H 5 v 0.15 l -0.3,1.4 -0.5,1.25 -0.35,0.7 q 0,0.45 0.5,0.45 0.8,0 1.5,-0.55 H 5.9 l 0.15,-0.25 0.6,-0.95 0.6,-1.45 0.2,-0.3 -0.1,-0.15 0.15,-1.3 -0.05,-0.7 q -0.05,-1.45 -1,-2.2 l -2.4,-1.65 0.05,-0.1 q 1.45,0.3 2.8,1 l 0.7,0.4 0.6,0.9 0.4,1.05 0.1,1.3 -0.1,1.45 H 8.55 v 0.15 l -0.25,0.9 -0.55,1.1 q -0.4,0.2 -0.4,0.85 0,0.35 0.35,0.35 l 0.6,-0.2 0.8,-0.7 0.45,-0.75 0.6,-1 0.35,-0.4 -0.1,-0.1 -0.05,0.1 M 8.1,-0.95 1.05,-0.45 -7.75,-1 -8.3,-1.1 q -0.55,0.1 -0.8,0.5 l -0.1,0.2 v 0.05 l -0.05,0.2 v 0.1 l 0.1,0.4 0.55,0.35 q 1.4,0.7 6.65,0.7 H -0.6 L 1,1.45 8.7,0.9 q 0.7,0 0.7,-0.75 H 9.35 L 9.3,-0.05 9.25,-0.35 9.15,-0.6 9,-0.9 8.85,-0.95 H 8.1 m 6.3,10 V 9.1 l -0.1,0.75 q -0.25,1.5 -2.15,1.55 L 11.1,11.25 10.95,11.2 9.8,10.6 9.65,10.5 Q 8.4,9.45 7.5,9.05 L 7,8.8 6.65,8.5 6.1,8.25 5,8.15 H 4.65 L 3.8,8.35 3.3,8.6 v 0.1 l 0.05,0.65 q 0,1.3 -1,1.75 H 2.25 Q 2,11.1 2,11.45 q 0,1.2 0.45,2 Q 3,14.5 4.35,14.9 6.3,16 9.6,16.05 h 0.8 l 2.65,-0.5 q 1.15,-0.45 2,-1.65 1,-1.4 1,-2.6 V 11.15 11 L 15.95,10 15.7,9 15.35,8.25 14.65,7.05 13.8,6.4 l 0.3,1.05 0.05,0.1 0.25,1.5 m -2.65,-0.8 -0.1,-0.15 0.1,0.15 M 6.75,5.1 6.9,4.25 Q 6.9,3.9 6.3,3.35 5.7,2.8 4.9,2.7 L 4.75,2.65 4,2.55 q -0.9,0 -1.4,0.3 -1.25,0.2 -1.25,1.85 0,1 0.7,1.5 0.5,0.6 1.65,0.6 L 4.35,6.75 5.1,6.6 Q 6.6,6.3 6.75,5.1 M 8.65,4.95 Q 8.4,4.9 8.05,5.8 L 7.4,6.7 q 0,0.5 1.1,0.55 L 8.95,6.8 8.65,4.95 M 8.2,3.85 q 0.35,0 0.35,-0.6 Q 8.55,2.3 7.9,2.3 7,2.3 7,2.65 7,3 7.7,3.2 L 8.2,3.85 M 0.25,2.95 H -0.8 q 0.4,0.75 0.5,2.25 -0.1,1.05 -0.35,1.7 -1,0.25 -1,1.85 0,1.3 1.85,1.3 Q 1.75,10 1.75,8.6 1.75,7.15 0.7,7.05 0.05,6.3 0.05,4.65 0.05,3.6 0.3,2.95 H 0.25 m 3.25,3 q -1.1,0 -1.1,-1.2 0,-1.1 1.25,-1.1 0.95,0 0.95,1.15 0,1.15 -1.1,1.15 m -3.05,5.4 h -0.3 -0.2 -0.2 L -0.5,12.9 0.7,12.85 q -0.25,-0.7 -0.25,-1.5 m 7.1,6.3 Q 7.55,17.1 6,17.1 H 5.85 L 4.05,16.4 Q 3.4,16.2 2.8,15.65 L 2.75,15.6 2.45,15.4 1.65,14.5 0.3,14.3 l -1.75,0.2 -0.8,0.9 -0.3,0.25 -1.3,0.75 -1.75,0.7 -0.15,0.05 -0.05,-0.05 -0.25,0.05 H -6.1 l -0.3,0.25 0.4,0.85 0.75,0.25 0.8,0.55 1,-0.15 0.2,0.05 0.6,0.3 q 0.75,0.7 1.2,0.7 l 0.85,-0.5 0.55,-0.05 q 0.85,0 1.5,0.85 l 1.4,-0.75 q 0.85,0 1.55,0.5 l 0.75,-0.55 1.4,-0.5 1,-1.3 M 1.45,20.3 H 1.4 v 0.05 L 1.45,20.3 M -4.25,2.75 -4.55,2.8 h -0.1 q -1.55,0.15 -1.75,0.75 -0.45,0.4 -0.45,1.15 0,2.15 2.4,2.15 L -3.8,6.8 q 1.45,-0.1 2,-0.8 0.25,-0.3 0.35,-1.1 0,-1.1 -0.45,-1.55 -0.45,-0.6 -1.7,-0.6 h -0.25 -0.4 m 1.6,2.05 q 0,1.15 -1.1,1.15 -1.1,0 -1.1,-1.2 0,-1.1 1.25,-1.1 0.95,0 0.95,1.15 M -7.5,7.7 -6.85,7.35 -7.8,5.7 q -0.45,0 -0.45,0.55 L -8.3,7.6 -7.95,7.95 -7.5,7.7 M -6.7,2.65 Q -6.7,2.3 -7.05,2.3 -8,2.3 -8,2.9 -8,3.55 -7.65,3.55 L -6.7,2.65 M -6.45,8.5 -6.8,8.8 -7.3,9.05 q -0.95,0.4 -2.3,1.55 l -1.15,0.6 -0.15,0.05 -1.05,0.15 q -1.9,-0.05 -2.15,-1.55 L -14.2,9.1 V 9.05 l 0.3,-1.6 0.3,-1.05 -0.8,0.65 -0.75,1.2 -0.35,0.75 -0.2,1 -0.15,1 v 0.15 0.15 q 0,1.2 1,2.6 0.85,1.2 2.05,1.65 l 3.4,0.5 Q -6.1,16 -4.15,14.9 -1.8,14.25 -1.8,11.45 -1.8,11.1 -2.05,11.1 H -2.1 Q -3.15,10.65 -3.15,9.35 L -3.1,8.6 Q -3.65,8.2 -4.45,8.15 H -4.8 l -1.1,0.1 -0.55,0.25 m -5,-0.4 -0.05,0.15 0.05,-0.15 m 9.95,12.2 h -0.05 v 0.05 L -1.5,20.3"
         inkscape:connector-curvature="0"
         style="fill:#000000;fill-rule:evenodd;stroke:none" />
      <path
         id="path1446"
         d="m -10.25,-5.45 0.1,-0.05 q 0.6,0.95 0.9,0.95 0.4,0 0.4,-0.7 L -8.7,-5.3 h 0.05 l 0.1,0.25 0.25,0.55 1.2,1.95 0.1,0.15 q 0,0.3 -0.4,0.3 -1.25,0 -1.5,-0.8 l -0.05,-0.1 -1.15,-1.95 -0.2,-0.5 h 0.05 m 2.85,0.15 0.05,-0.05 q 0.35,0.4 0.7,0.4 l 0.6,-0.55 0.1,0.15 0.05,0.05 v 0.1 l 0.35,1.15 0.85,1.5 h -0.05 l 0.2,0.3 q 0,0.3 -0.3,0.3 -0.8,0 -1.7,-1.45 l -0.8,-1.65 -0.1,-0.2 0.05,-0.05 m 2.6,-0.45 0.1,-0.05 q 0.15,0.55 0.95,0.55 1.15,0 1.3,-0.85 h 0.05 l 0.05,0.1 -0.05,0.35 0.35,2.4 0.35,1.05 q 0,0.6 -0.5,0.6 -0.75,0 -1.5,-1.45 -0.8,-1.2 -1.05,-2.55 L -4.8,-5.75 m 3.45,-0.5 h 0.05 q 0.45,0.55 0.9,0.55 0.8,0 1.35,-0.65 l 0.05,0.1 0.05,0.05 -0.1,0.35 -0.15,1.1 q 0,2.6 -0.8,2.95 h -0.2 -0.1 q -0.35,-0.1 -0.4,-0.75 -0.4,-1 -0.6,-3.4 l -0.15,-0.2 0.1,-0.1 M 2,-6.35 H 2.05 L 2.3,-5.9 q 0.15,0.45 0.55,0.45 0.6,0 1.2,-0.7 l 0.1,0.1 -0.2,0.4 -0.1,0.4 -0.45,1.4 q -0.65,2.1 -1.6,2.1 -0.45,0 -0.45,-0.4 L 1.8,-3.85 1.9,-4.3 2,-5.05 V -5.1 L 2.05,-5.55 Q 1.9,-5.8 1.9,-6.25 v -0.1 H 2 m 3.05,0.4 H 5.1 l 0.1,0.6 q 0.05,0.55 0.8,0.55 0.55,0 1.35,-0.85 l 0.1,0.15 -0.2,0.3 -0.6,1.45 -0.6,0.95 -0.15,0.25 H 5.85 Q 5.15,-2 4.35,-2 3.85,-2 3.85,-2.45 L 4.2,-3.15 4.7,-4.4 5,-5.8 V -5.95 H 5.05 M 8.6,-5.5 h 0.15 l 0.05,0.4 q 0,0.4 0.25,0.4 0.9,0 1.3,-0.5 l 0.05,-0.1 0.1,0.1 -0.35,0.4 -0.6,1 -0.45,0.75 -0.8,0.7 -0.6,0.2 q -0.35,0 -0.35,-0.35 0,-0.65 0.4,-0.85 l 0.55,-1.1 0.25,-0.9 V -5.5 H 8.6 M 14.4,9.05 14.15,7.55 14.1,7.45 13.8,6.4 l 0.85,0.65 0.7,1.2 0.35,0.75 0.25,1 0.1,1 v 0.15 0.15 q 0,1.2 -1,2.6 -0.85,1.2 -2,1.65 l -2.65,0.5 H 9.6 Q 6.3,16 4.35,14.9 3,14.5 2.45,13.45 2,12.65 2,11.45 2,11.1 2.25,11.1 h 0.1 q 1,-0.45 1,-1.75 L 3.3,8.7 V 8.6 L 3.8,8.35 4.65,8.15 H 5 L 6.1,8.25 6.65,8.5 7,8.8 7.5,9.05 q 0.9,0.4 2.15,1.45 l 0.15,0.1 1.15,0.6 0.15,0.05 1.05,0.15 q 1.9,-0.05 2.15,-1.55 L 14.4,9.1 V 9.05 m 0.75,1.3 L 15,10.4 q -0.15,1.7 -2.9,1.7 -1.85,-0.05 -3.9,-1.45 -2.1,-1.4 -3,-1.4 -1,0 -1,0.4 L 4.3,9.8 4.1,10.3 q 0,0.5 0.6,1.05 l 1.2,0.95 q 1.5,1.5 5.15,1.5 1.65,0 3.05,-1.3 1.2,-1.2 1.2,-2 L 15.15,10.35 M -6.45,8.5 -5.9,8.25 -4.8,8.15 h 0.35 q 0.8,0.05 1.35,0.45 l -0.05,0.75 q 0,1.3 1.05,1.75 h 0.05 q 0.25,0 0.25,0.35 0,2.8 -2.35,3.45 -1.95,1.1 -5.25,1.15 l -3.4,-0.5 q -1.2,-0.45 -2.05,-1.65 -1,-1.4 -1,-2.6 V 11.15 11 l 0.15,-1 0.2,-1 0.35,-0.75 0.75,-1.2 0.8,-0.65 -0.3,1.05 -0.3,1.6 V 9.1 l 0.1,0.75 q 0.25,1.5 2.15,1.55 l 1.05,-0.15 0.15,-0.05 1.15,-0.6 Q -8.25,9.45 -7.3,9.05 L -6.8,8.8 -6.45,8.5 M -4,9.95 q 0,-1 -0.95,-1 -0.8,0 -2.95,1.6 -2.15,1.55 -3.45,1.6 -2.25,0 -2.85,-1 l -0.45,-0.95 -0.2,0.05 -0.05,0.65 q 0,2.85 2.85,2.85 2.3,0 5.85,-1.45 Q -4,11.4 -4,9.95"
         inkscape:connector-curvature="0"
         style="fill:#d0d0d0;fill-rule:evenodd;stroke:none" />
      <path
         id="path1448"
         d="M 0.25,2.95 H 0.3 q -0.25,0.65 -0.25,1.7 0,1.65 0.65,2.4 1.05,0.1 1.05,1.55 0,1.4 -1.55,1.45 -1.85,0 -1.85,-1.3 0,-1.6 1,-1.85 Q -0.4,6.25 -0.3,5.2 -0.4,3.7 -0.8,2.95 h 1.05"
         inkscape:connector-curvature="0"
         style="fill:#ffcc66;fill-rule:evenodd;stroke:none" />
      <path
         id="path1450"
         d="M 8.2,3.85 7.7,3.2 Q 7,3 7,2.65 7,2.3 7.9,2.3 q 0.65,0 0.65,0.95 0,0.6 -0.35,0.6 M 8.65,4.95 8.95,6.8 8.5,7.25 Q 7.4,7.2 7.4,6.7 L 8.05,5.8 Q 8.4,4.9 8.65,4.95 m -8.2,6.4 q 0,0.8 0.25,1.5 l -1.2,0.05 0.25,-1.55 h 0.2 0.2 0.3 M -6.7,2.65 -7.65,3.55 Q -8,3.55 -8,2.9 -8,2.3 -7.05,2.3 -6.7,2.3 -6.7,2.65 M -7.5,7.7 -7.95,7.95 -8.3,7.6 -8.25,6.25 Q -8.25,5.7 -7.8,5.7 L -6.85,7.35 -7.5,7.7"
         inkscape:connector-curvature="0"
         style="fill:#ca7902;fill-rule:evenodd;stroke:none" />
      <path
         id="path1452"
         d="m 7.55,17.65 -1,1.3 -1.4,0.5 L 4.4,20 Q 3.7,19.5 2.85,19.5 l -1.4,0.75 Q 0.8,19.4 -0.05,19.4 l -0.55,0.05 -0.85,0.5 q -0.45,0 -1.2,-0.7 l -0.6,-0.3 -0.2,-0.05 -1,0.15 L -5.25,18.5 -6,18.25 -6.4,17.4 -6.1,17.15 h 0.05 l 0.25,-0.05 0.05,0.05 0.15,-0.05 1.75,-0.7 1.3,-0.75 0.3,-0.25 0.8,-0.9 1.75,-0.2 1.35,0.2 0.8,0.9 0.3,0.2 0.05,0.05 q 0.6,0.55 1.25,0.75 l 1.8,0.7 H 6 q 1.55,0 1.55,0.55"
         inkscape:connector-curvature="0"
         style="fill:#c8c8c8;fill-rule:evenodd;stroke:none" />
    </g>
  </g>
</svg>
