<?xml version="1.0" encoding="UTF-8" standalone="no"?>
<!-- Created with Inkscape (http://www.inkscape.org/) -->

<svg
   xmlns:dc="http://purl.org/dc/elements/1.1/"
   xmlns:cc="http://creativecommons.org/ns#"
   xmlns:rdf="http://www.w3.org/1999/02/22-rdf-syntax-ns#"
   xmlns:svg="http://www.w3.org/2000/svg"
   xmlns="http://www.w3.org/2000/svg"
   xmlns:sodipodi="http://sodipodi.sourceforge.net/DTD/sodipodi-0.dtd"
   xmlns:inkscape="http://www.inkscape.org/namespaces/inkscape"
   width="50"
   height="50"
   viewBox="0 0 13.229166 13.229167"
   version="1.1"
   id="svg833"
   sodipodi:docname="wn.svg"
   inkscape:version="0.92.4 (5da689c313, 2019-01-14)">
  <defs
     id="defs827" />
  <sodipodi:namedview
     id="base"
     pagecolor="#ffffff"
     bordercolor="#666666"
     borderopacity="1.0"
     inkscape:pageopacity="0.0"
     inkscape:pageshadow="2"
     inkscape:zoom="11.2"
     inkscape:cx="32.358017"
     inkscape:cy="28.702167"
     inkscape:document-units="mm"
     inkscape:current-layer="layer1"
     showgrid="false"
     units="px"
     inkscape:window-width="1920"
     inkscape:window-height="975"
     inkscape:window-x="-8"
     inkscape:window-y="-8"
     inkscape:window-maximized="1" />
  <metadata
     id="metadata830">
    <rdf:RDF>
      <cc:Work
         rdf:about="">
        <dc:format>image/svg+xml</dc:format>
        <dc:type
           rdf:resource="http://purl.org/dc/dcmitype/StillImage" />
        <dc:title></dc:title>
      </cc:Work>
    </rdf:RDF>
  </metadata>
  <g
     inkscape:label="Layer 1"
     inkscape:groupmode="layer"
     id="layer1"
     transform="translate(0,-283.77082)">
    <g
       id="g1720"
       transform="matrix(0.26458333,0,0,0.26458333,6.572865,290.2928)">
      <path
         id="path1710"
         d="M 8.75,-5.75 Q 7.65,-4.8 6.85,-4.8 H 6.7 Q 6.35,-4.95 6.35,-5.2 v -0.1 q 1.5,-0.65 2.95,-2.9 l 0.35,-0.5 q 2.5,-3.4 2.5,-5.5 0,-0.4 -0.45,-0.4 -2.8,0 -5.05,3.1 -1.05,1.4 -1.45,2.45 L 4.75,-8.25 4.5,-7.8 4,-8.15 4.3,-9.5 q -0.7,-0.65 -2.3,-0.65 -1.5,0 -3.15,0.7 l -0.5,0.3 -0.35,0.1 -1.75,-0.9 -0.45,-0.2 q -0.55,0.5 -0.6,1 l -0.05,0.1 0.05,0.05 0.2,0.2 q 0.45,0.55 0.45,1.75 -0.15,1.85 -0.65,3.1 l -0.6,1.25 q -0.7,1 -1.6,1.45 l -0.1,-0.05 -0.05,0.1 -1.4,0.25 h -0.6 l -2.8,5.95 -0.75,2.05 -0.1,0.1 0.05,0.05 q -0.55,1.05 -1.9,1.5 -1.2,0.35 -1.75,3.55 v 0.05 0.1 l 0.3,0.55 0.3,0.4 3.75,4.9 2.55,-0.35 2.15,-0.65 q 2.7,-0.35 2.9,-1.6 L -4.6,12.5 -2.5,9.95 -1.5,8.8 0.75,6.45 1.8,5.4 4,3.1 4.15,3.05 q 0.25,0 0.3,0.35 L 3.95,4.6 H 3.85 V 4.75 L 3.8,4.85 2.6,6.7 q 0,0.35 0.35,0.35 H 3.1 q 6.35,0.85 7.4,-5.4 0.25,-1.55 -0.25,-3.2 v -0.1 L 10.05,-2.2 9.7,-3 9.25,-3.9 l 0.3,-0.2 0.1,0.05 0.05,0.1 h 0.1 q 0.8,0.6 1.45,2.5 0.7,2.15 0.7,3.65 V 2.25 L 11.6,4 10.55,6.05 Q 8.45,8.8 4.5,8.8 L 4.45,9.05 4,10.65 q -0.3,1.6 0.3,3.2 0.95,2.8 4.1,3.35 l 2.9,0.1 h 0.1 q 1.5,0 2.8,-0.65 1.25,-0.65 1.25,-1.3 l -0.35,-0.3 q -2.1,0 -3.6,-1.1 -1.35,-1 -1.35,-2.1 l 0.25,-0.4 0.65,-0.35 2.5,-0.8 Q 16.6,8.35 16.6,7.9 16.6,7.6 14.8,7.6 h -0.05 l -1.4,-0.8 -0.1,-0.4 q 0,-0.35 1.55,-1.35 L 16.35,3.7 q 0,-0.25 -0.7,-0.3 Q 15.55,3.25 15.2,3.25 H 15.1 Q 13.35,2.05 13.2,0.6 13.05,-0.3 13.35,-1.95 L 13.4,-3.3 13.1,-5.25 v -0.1 l -0.6,-1.45 -1.2,-1.65 -0.05,0.1 H 11.2 l -0.3,0.3 -0.15,0.05 -1,1.25 -0.7,0.7 L 9,-6 8.75,-5.75 m 4.75,-8.9 q -0.2,2 -0.55,2.8 l -0.9,2 1.4,1.75 q 1.3,1.45 1.7,4.45 l 0.05,1.2 -0.05,0.15 -0.2,2.15 0.1,1.05 q 0.2,0.6 0.7,0.85 l 0.3,0.2 1.75,-0.2 q 0.85,0.15 0.7,1 l -1.15,1.7 -1.55,1.8 -0.05,0.05 0.2,0.05 1.9,-0.05 q 0.8,0.1 0.65,1 -0.25,1.55 -3.05,3.35 -2.35,1.5 -3.65,1.75 1.55,1.3 2.7,1.45 l 2.25,-0.4 q 0.8,0.15 0.7,1.05 Q 17,16.6 16,17.1 15.5,17.8 13.8,18.4 11.2,19.3 8.1,18.8 1.2,17.65 2.35,10.3 L 2.8,8.85 2.75,8.65 2.45,8.6 1.65,8.45 l -4.5,4.6 0.05,2.85 q -0.45,2.65 -2.85,2.8 -1.15,0.05 -3.4,0.8 l -3.25,0.35 q -1.2,-0.2 -2.3,-1.8 l -1.2,-1.9 q -2.55,-3 -2.4,-3.7 0.45,-3 1.1,-4.3 0.15,-0.3 1.35,-0.85 l 1.25,-0.95 0.95,-2 2.05,-4.95 0.6,-1.25 -0.15,-0.25 q -0.35,-0.6 -0.35,-1.5 0.55,-6.15 4.8,-6.15 h 0.15 l 0.75,-1 0.4,-0.3 0.1,-0.1 q -0.65,-0.9 -0.7,-2.35 l -0.15,-1.2 q 0.1,-1.9 0.65,-2.3 v -0.1 l 0.2,-0.25 0.05,0.1 h 0.05 q 0.5,0 2.3,2.45 1.35,-2.4 2.25,-2.4 v 0.1 q 0.4,0.1 0.6,1 0.2,0.7 0.85,1.1 l 1.35,-1.9 q 1.9,-2.25 3.45,-2.25 1.1,0 1.1,0.85 -0.25,3.55 -0.85,4.45 L 6.6,-13.5 8.35,-15 q 1.75,-0.95 4.05,-0.95 1.3,0 1.1,1.3 m -9,-2.9 q -0.75,0.3 -0.9,0.75 -0.8,0.7 -1.65,2.1 l 2.75,0.5 0.05,-0.3 0.2,-0.4 0.5,-2.05 0.05,-0.2 v -0.25 q 0.1,-0.4 -0.35,-0.4 l -0.65,0.25 m 0.05,6.6 0.8,-1.2 H 5.4 v -0.05 l 0.2,-0.4 -1.6,-0.8 -1.45,-0.25 -0.3,0.05 -0.2,-0.05 q -2,-0.05 -2.4,-0.65 l -0.55,-1.05 -0.6,1.15 q -0.3,0.85 -1,0.85 -0.25,0 -1.75,-1.45 l -0.6,-0.35 0.15,1.3 v 0.35 q 0.55,2.15 1.6,2.65 0.45,0.3 1,0.3 l 1.1,-0.3 0.15,-0.05 q 0.85,-0.5 2.55,-0.5 2.15,0 2.85,0.5 H 4.6 L 4.55,-10.95 M 0.05,-0.2 q -1.15,0 -1.15,-1.25 0,-0.85 0.35,-1.3 0.3,-0.85 1.1,-0.85 1.3,0 1.3,1.1 L 1.55,-2 v 0.05 L 1.35,-1.3 1,-0.75 0.05,-0.2 M 0.7,-5.65 Q -1.45,-6 -2.75,-1.3 -3.1,0.85 -1.1,1.2 q 3.2,0.5 4.3,-3.35 0.45,-3 -2.5,-3.5 M 4.6,-1.8 Q 3.7,3.45 -1.25,2.6 -4.95,2 -4.3,-1.65 -4.05,-3.2 -3.05,-4.8 -1.4,-7.4 1.1,-7 q 4.2,0.7 3.5,5.2 m -11.85,-6.35 -0.3,0.1 -0.75,0.35 q -1.35,0.3 -1.8,3.9 0,1.8 1.55,1.8 1.15,0 1.95,-1.4 l 0.05,-0.05 0.1,-0.2 0.05,-0.05 q 0.85,-0.85 0.9,-3.4 L -5.7,-7.7 Q -6,-8.25 -6.6,-8.25 l -0.65,0.1 m 0.85,3.25 q 0,1.4 -1.55,1.4 -0.8,0 -0.9,-0.75 l 0.4,-0.9 q 0.5,-0.7 1,-0.7 l 0.85,0.45 0.2,0.5 m -1.75,0.7 v 0.05 H -8.1 L -8.15,-4.2 m 1.05,18.85 q 0,1.55 -2.05,1.7 L -9.6,16.4 q -1.75,0 -1.75,-0.75 0,-0.35 2.5,-1.65 0.55,-0.5 0.85,-0.5 0.5,0 0.75,0.55 l 0.15,0.6"
         inkscape:connector-curvature="0"
         style="fill:#000000;fill-rule:evenodd;stroke:none" />
      <path
         id="path1712"
         d="m -7,-1.25 q 0.9,-0.45 1.6,-1.45 l 0.6,-1.25 q 0.5,-1.25 0.65,-3.1 0,-1.2 -0.45,-1.75 L -4.8,-9 -4.85,-9.05 -4.8,-9.15 q 0.05,-0.5 0.6,-1 l 0.45,0.2 1.75,0.9 0.35,-0.1 0.5,-0.3 q 1.65,-0.7 3.15,-0.7 1.6,0 2.3,0.65 L 4,-8.15 4.5,-7.8 4.75,-8.25 5.2,-9.05 q 0.4,-1.05 1.45,-2.45 2.25,-3.1 5.05,-3.1 0.45,0 0.45,0.4 0,2.1 -2.5,5.5 L 9.3,-8.2 q -1.45,2.25 -2.95,2.9 v 0.1 q 0,0.25 0.35,0.4 h 0.15 q 0.8,0 1.9,-0.95 l -0.05,0.2 0.95,1.5 -0.1,-0.05 -0.3,0.2 0.45,0.9 0.35,0.8 -0.15,-0.1 -0.2,0.1 q 0,6.25 -5.75,6.8 L 4.45,3.4 Q 4.4,3.05 4.15,3.05 L 4,3.1 1.8,5.4 0.75,6.45 -1.5,8.8 V 8.7 L -1.55,8.55 -1.7,8.5 -4.25,10.3 q -1.35,0.4 -3,1.6 l -1.3,-0.3 q -1.55,0 -2.4,1.7 l -1.55,0.35 -1,1 -2.75,-2.4 h -0.15 q 0.55,-3.2 1.75,-3.55 1.35,-0.45 1.9,-1.5 l 0.2,0.05 3.7,-4.6 L -8.9,2.5 -8.35,1.65 q 1.45,-2.3 1.45,-2.7 L -7,-1.25 M 9,-6 9.05,-6.05 9.1,-6 H 9 M 3.8,4.85 3.85,4.75 V 4.9 L 3.8,4.85 m -19.9,8.1 -0.3,-0.55 v -0.1 l 0.3,0.65 M 4.55,-10.95 4.6,-10.9 H 4.55 v -0.05 M 6.2,-7.55 6.75,-7 q 1.05,0 3.7,-4.5 0,-0.45 -0.4,-0.45 -2.2,0 -3.85,4.4 m -5.5,1.9 q 2.95,0.5 2.5,3.5 Q 2.1,1.7 -1.1,1.2 -3.1,0.85 -2.75,-1.3 -1.45,-6 0.7,-5.65 M 0.05,-0.2 1,-0.75 1.35,-1.3 1.55,-1.95 V -2 l 0.1,-0.5 q 0,-1.1 -1.3,-1.1 -0.8,0 -1.1,0.85 -0.35,0.45 -0.35,1.3 0,1.25 1.15,1.25 M 4.6,-1.8 Q 5.3,-6.3 1.1,-7 q -2.5,-0.4 -4.15,2.2 -1,1.6 -1.25,3.15 Q -4.95,2 -1.25,2.6 3.7,3.45 4.6,-1.8 m -11.85,-6.35 0.65,-0.1 q 0.6,0 0.9,0.55 l 0.2,0.6 q -0.05,2.55 -0.9,3.4 l -0.05,0.05 -0.1,0.2 -0.05,0.05 q -0.8,1.4 -1.95,1.4 -1.55,0 -1.55,-1.8 0.45,-3.6 1.8,-3.9 l 0.75,-0.35 0.3,-0.1 m 0.85,3.25 -0.2,-0.5 -0.85,-0.45 q -0.5,0 -1,0.7 l -0.4,0.9 q 0.1,0.75 0.9,0.75 1.55,0 1.55,-1.4"
         inkscape:connector-curvature="0"
         style="fill:#ffffff;fill-rule:evenodd;stroke:none" />
      <path
         id="path1714"
         d="m -8.15,-4.2 0.05,0.05 H -8.15 V -4.2"
         inkscape:connector-curvature="0"
         style="fill:#ff9966;fill-rule:evenodd;stroke:none" />
      <path
         id="path1716"
         d="M 8.75,-5.75 9,-6 h 0.1 l -0.05,-0.05 0.7,-0.7 1,-1.25 0.15,-0.05 0.3,-0.3 h 0.05 l 0.05,-0.1 1.2,1.65 0.6,1.45 v 0.1 l 0.3,1.95 -0.05,1.35 q -0.3,1.65 -0.15,2.55 0.15,1.45 1.9,2.65 h 0.1 q 0.35,0 0.45,0.15 0.7,0.05 0.7,0.3 L 14.8,5.05 q -1.55,1 -1.55,1.35 l 0.1,0.4 1.4,0.8 h 0.05 q 1.8,0 1.8,0.3 0,0.45 -3.05,2.4 l -2.5,0.8 -0.65,0.35 -0.25,0.4 q 0,1.1 1.35,2.1 1.5,1.1 3.6,1.1 l 0.35,0.3 q 0,0.65 -1.25,1.3 -1.3,0.65 -2.8,0.65 H 11.3 L 8.4,17.2 Q 5.25,16.65 4.3,13.85 3.7,12.25 4,10.65 L 4.45,9.05 4.5,8.8 q 3.95,0 6.05,-2.75 L 11.6,4 11.95,2.25 V 2.2 q 0,-1.5 -0.7,-3.65 -0.65,-1.9 -1.45,-2.5 H 9.7 l -0.05,-0.1 -0.95,-1.5 0.05,-0.2 m -4.2,-5.15 q -0.7,-0.5 -2.85,-0.5 -1.7,0 -2.55,0.5 l -0.15,0.05 -1.1,0.3 q -0.55,0 -1,-0.3 -1.05,-0.5 -1.6,-2.65 v -0.35 l -0.15,-1.3 0.6,0.35 q 1.5,1.45 1.75,1.45 0.7,0 1,-0.85 l 0.6,-1.15 0.55,1.05 q 0.4,0.6 2.4,0.65 l 0.2,0.05 0.3,-0.05 1.45,0.25 1.6,0.8 -0.2,0.4 v 0.05 H 5.35 l -0.8,1.2 v 0.05 m 1.65,3.35 q 1.65,-4.4 3.85,-4.4 0.4,0 0.4,0.45 Q 7.8,-7 6.75,-7 L 6.2,-7.55"
         inkscape:connector-curvature="0"
         style="fill:#bbbbbb;fill-rule:evenodd;stroke:none" />
      <path
         id="path1718"
         d="m 10.05,-2.2 0.2,0.55 v 0.1 Q 10.75,0.1 10.5,1.65 9.45,7.9 3.1,7.05 H 2.95 Q 2.6,7.05 2.6,6.7 L 3.8,4.85 3.85,4.9 V 4.75 4.6 h 0.1 Q 9.7,4.05 9.7,-2.2 l 0.2,-0.1 0.15,0.1 m -11.55,11 -1,1.15 -2.1,2.55 0.15,3.15 q -0.2,1.25 -2.9,1.6 l -2.15,0.65 -2.55,0.35 -3.75,-4.9 -0.3,-0.4 -0.3,-0.65 v -0.05 h 0.15 l 2.75,2.4 1,-1 1.55,-0.35 q 0.85,-1.7 2.4,-1.7 l 1.3,0.3 q 1.65,-1.2 3,-1.6 L -1.7,8.5 -1.55,8.55 -1.5,8.7 v 0.1 m -11.25,-1.6 -0.05,-0.05 0.1,-0.1 0.75,-2.05 2.8,-5.95 h 0.6 l 1.4,-0.25 0.05,-0.1 0.1,0.05 0.1,0.2 q 0,0.4 -1.45,2.7 l -0.55,0.85 0.05,0.15 -3.7,4.6 -0.2,-0.05 M 4.5,-17.55 5.15,-17.8 q 0.45,0 0.35,0.4 v 0.25 l -0.05,0.2 -0.5,2.05 -0.2,0.4 -0.05,0.3 -2.75,-0.5 q 0.85,-1.4 1.65,-2.1 0.15,-0.45 0.9,-0.75 m -11.6,32.2 -0.15,-0.6 Q -7.5,13.5 -8,13.5 q -0.3,0 -0.85,0.5 -2.5,1.3 -2.5,1.65 0,0.75 1.75,0.75 l 0.45,-0.05 q 2.05,-0.15 2.05,-1.7"
         inkscape:connector-curvature="0"
         style="fill:#e6e6e6;fill-rule:evenodd;stroke:none" />
    </g>
  </g>
</svg>
