<?xml version="1.0" encoding="UTF-8" standalone="no"?>
<!-- Created with Inkscape (http://www.inkscape.org/) -->

<svg
   xmlns:dc="http://purl.org/dc/elements/1.1/"
   xmlns:cc="http://creativecommons.org/ns#"
   xmlns:rdf="http://www.w3.org/1999/02/22-rdf-syntax-ns#"
   xmlns:svg="http://www.w3.org/2000/svg"
   xmlns="http://www.w3.org/2000/svg"
   xmlns:sodipodi="http://sodipodi.sourceforge.net/DTD/sodipodi-0.dtd"
   xmlns:inkscape="http://www.inkscape.org/namespaces/inkscape"
   width="50"
   height="50"
   viewBox="0 0 13.229166 13.229167"
   version="1.1"
   id="svg833"
   sodipodi:docname="wp.svg"
   inkscape:version="0.92.4 (5da689c313, 2019-01-14)">
  <defs
     id="defs827" />
  <sodipodi:namedview
     id="base"
     pagecolor="#ffffff"
     bordercolor="#666666"
     borderopacity="1.0"
     inkscape:pageopacity="0.0"
     inkscape:pageshadow="2"
     inkscape:zoom="11.2"
     inkscape:cx="25.652807"
     inkscape:cy="28.827904"
     inkscape:document-units="mm"
     inkscape:current-layer="layer1"
     showgrid="false"
     units="px"
     inkscape:window-width="1920"
     inkscape:window-height="975"
     inkscape:window-x="-8"
     inkscape:window-y="-8"
     inkscape:window-maximized="1" />
  <metadata
     id="metadata830">
    <rdf:RDF>
      <cc:Work
         rdf:about="">
        <dc:format>image/svg+xml</dc:format>
        <dc:type
           rdf:resource="http://purl.org/dc/dcmitype/StillImage" />
        <dc:title></dc:title>
      </cc:Work>
    </rdf:RDF>
  </metadata>
  <g
     inkscape:label="Layer 1"
     inkscape:groupmode="layer"
     id="layer1"
     transform="translate(0,-283.77082)">
    <g
       id="g1485"
       transform="matrix(0.26458333,0,0,0.26458333,6.5484375,290.40525)">
      <path
         id="path1471"
         d="M 1.75,-19 H 1.7 q 1.4,1.8 1.4,3.1 0,1.2 -0.9,2.45 l -0.9,1.25 0.05,0.05 H 1.3 l -1.9,0.25 -0.95,0.35 -0.25,0.1 0.05,0.1 -0.1,0.05 0.1,0.2 v 0.1 l 0.95,0.05 h 0.25 l 1.9,0.3 0.2,0.25 0.8,2.15 0.15,1.4 -0.2,1.3 L 2.35,-5.5 2.2,-5 2.3,-4.8 0.2,-4.9 q -3.65,0 -6.2,1.05 0.3,-2.1 2.85,-6.4 0,-0.45 -1.1,-2.65 v -0.05 l -0.3,-1.45 q 0.75,-4.9 3.8,-4.9 l 2.5,0.3 M 3.5,-3 H 3.4 L 3.85,-1.9 3.75,-1.55 3.4,-0.9 3.45,-0.8 0.7,-1 q -3.25,0 -6.3,1.15 l -0.95,0.4 h -0.1 l -0.8,0.55 q -1,0 -0.75,-0.8 l 0.25,-0.65 q 0.15,-0.9 1.45,-1.45 l 0.9,-0.45 Q -3.5,-3.15 0,-3.2 L 3.5,-3 m 1.7,0.4 H 5.15 V -2.65 L 5.2,-2.6 M 2.9,7.9 q 1.05,0 1.05,-1.1 0,-1.1 -0.9,-1.1 -1.2,0 -1.2,1.05 0,1.15 1.05,1.15 M 3.1,8.75 Q 1,8.75 1.15,6.7 q 0,-2.1 2.2,-2.1 1.85,0 1.7,2.25 0,1.9 -1.95,1.9 M -2.6,5.7 q 0.3,0.55 0.3,1.45 0,1.45 -1.8,1.6 H -4.15 Q -5.8,8.55 -5.8,7 q 0,-2.2 1.25,-2.2 l 0.8,0.1 Q -2.9,5 -2.6,5.7 m -1.15,2.35 q 0.85,0 0.85,-1 0,-1.2 -1.1,-1.2 -0.9,0 -0.9,1.2 0,1 1.15,1"
         inkscape:connector-curvature="0"
         style="fill:#ffffff;fill-rule:evenodd;stroke:none" />
      <path
         id="path1473"
         d="m 1.35,-12.15 v 0.05 l 0.15,-0.05 h 0.05 q 1.35,0.05 2.15,0.65 1,-1.2 1.1,-3.35 0,-2.95 -2.45,-3.95 l -0.5,-0.25 -0.1,0.05 -2.5,-0.3 q -3.05,0 -3.8,4.9 l 0.3,1.45 v 0.05 q 1.1,2.2 1.1,2.65 -2.55,4.3 -2.85,6.4 2.55,-1.05 6.2,-1.05 l 2.1,0.1 h 0.05 l 1.4,0.15 H 3.8 L 3.85,-4.6 H 3.9 l 2.05,0.55 q -0.15,-2 -1.4,-4 -1,-1.6 -2.4,-2.3 l -0.15,-0.1 -0.35,-0.2 -0.25,-0.1 -0.1,0.05 0.05,0.05 -1.9,-0.3 H -0.8 L -1.75,-11 v -0.1 l -0.1,-0.2 0.1,-0.05 -0.05,-0.1 0.25,-0.1 0.95,-0.35 1.9,-0.25 h 0.05 m 4.6,2.85 0.95,2.4 q 0.95,2.65 1,3.9 1.4,1.15 1.4,2.4 L 9.25,0.35 v 0.4 q 0,1.2 -0.95,1.3 L 8.5,3.2 Q 9.75,2 11.15,2 q 2.1,0 2.5,5.4 0,0.9 -0.9,1.95 l -0.6,0.55 0.1,0.25 v 0.75 l 0.45,1.5 q 0.15,0.45 1.05,1.35 l 0.95,0.65 0.45,0.65 q 0,0.8 -1.6,0.95 l 1.85,2.05 q 0,0.85 -1.45,0.85 l -3.4,-0.65 -1.3,-0.6 -0.15,0.15 q -2.7,3.15 -6.2,3.15 -1.1,0 -2.65,-0.85 -0.7,0.85 -2.2,0.85 -3.25,0 -4.65,-1.15 L -8,17.95 q -0.7,1.35 -4.45,1.35 -0.9,0 -0.9,-0.75 0.75,-1 0.95,-1.55 l 0.05,-0.05 -1.55,0.15 q -1,0 -1,-0.75 0,-0.55 0.55,-0.75 0.75,-0.3 1.05,-0.8 l 0.9,-1.7 0.5,-1.8 0.1,-0.75 q -1.8,-0.6 -2,-2.6 0.15,-5.45 2.4,-5.45 1,0 2.35,0.75 l 0.15,-0.7 q -0.95,-0.25 -0.7,-2 0,-2.05 1,-2.7 L -7.65,-3 q 0.2,-1.5 1,-3.75 0.9,-2.75 1.9,-3.55 l -0.1,-0.1 q -1.45,-1.7 -1.45,-3.95 0.65,-6.75 5.7,-6.75 7.15,0 7.15,6.2 0,2.95 -1.35,4.6 l 0.75,1 M 5.15,-2.65 3.7,-3 3.5,-3.05 V -3 L 0,-3.2 q -3.5,0.05 -5.6,0.95 l -0.9,0.45 q -1.3,0.55 -1.45,1.45 L -8.2,0.3 q -0.25,0.8 0.75,0.8 l 0.8,-0.55 h 0.1 L -5.6,0.15 Q -2.55,-1 0.7,-1 l 2.75,0.2 v 0.05 l 0.15,-0.05 0.05,0.05 1.4,0.35 0.1,0.05 h 0.1 L 6,-0.05 7.1,0.3 7.55,0.2 Q 8.1,0.15 8.1,-0.5 8.1,-0.95 7.7,-1.3 7.25,-1.8 6.15,-2.25 l -0.7,-0.3 H 5.4 L 5.25,-2.65 5.2,-2.6 5.15,-2.65 m 5.9,8.4 -0.8,0.9 q 0.55,0.2 0.7,0.9 l -0.3,0.4 -0.95,-0.7 -1.1,1.2 0.15,0.6 1.2,-0.3 Q 11.9,8.5 11.9,7.35 11.9,5.8 11.05,3.9 l -2.5,1.95 -0.1,1.1 v 0.4 L 9,6.65 q 1.15,-1.35 1.7,-1.35 0.35,0 0.35,0.45 M 0.75,9.05 0.45,7.75 0.15,6 q 0,-2.9 4.05,-2.9 2,0 2,0.75 L 6.15,4.25 5.9,4.6 Q 6.25,5.35 6.45,6.85 6.45,9.7 3.6,9.7 L 2.65,9.6 2.8,11.2 q 0,3.25 -2.8,3.25 -3.2,0 -3.2,-3.4 L -3.1,9.7 -3.95,9.8 H -4 -4.45 -4.65 L -6.25,9.35 Q -7,8.9 -7.2,7.45 l -0.05,0.5 q -0.1,1.65 -1.5,5.25 l 1.95,3.4 q 1.4,2.6 4.65,2.6 1.4,-1 2.4,-1 0.75,0 2.5,0.9 2.45,0 4.8,-2.35 1.95,-2 1.95,-2.9 L 8.1,12.1 Q 6.7,10.35 6.7,7.6 V 4.65 L 6.85,3.05 Q 6.9,1.25 5.35,1.1 L 1.25,0.6 -4.05,1.2 Q -6.2,1.25 -7,2.3 h -0.05 v 0.05 q -0.4,0.55 -0.4,1.4 l 0.15,2.6 0.1,0.4 0.3,-1.1 0.5,-0.9 Q -6.85,4.6 -6.85,4.15 L -6.8,3.9 q 0.1,-0.8 1.75,-0.8 l 1.8,0.5 q 1.3,0.55 1.6,0.9 0.55,0.6 0.55,2 l -0.2,2.7 v 0.05 h -0.05 v 0.1 l -0.05,0.25 -0.05,0.2 -0.2,1.5 0.05,0.55 v 0.05 q 0.3,1.05 1.6,1.05 0.7,0 1.05,-0.5 L 1.3,11.3 V 11.15 L 0.8,9.35 0.75,9.05 M 2.9,7.9 q -1.05,0 -1.05,-1.15 0,-1.05 1.2,-1.05 0.9,0 0.9,1.1 0,1.1 -1.05,1.1 m 0.2,0.85 q 1.95,0 1.95,-1.9 Q 5.2,4.6 3.35,4.6 1.15,4.6 1.15,6.7 1,8.75 3.1,8.75 m 9.45,8.45 q -0.85,-1.1 -0.85,-1.75 0,-0.65 0.7,-0.9 -0.5,-0.2 -1.15,-1.75 -0.55,-1.4 -0.6,-2.2 l -1.1,0.15 0.3,0.35 q 1.4,1.55 1.4,2.75 0,1.05 -1.05,2.6 l 2.3,0.75 h 0.05 M 1.3,15.25 h 0.1 q 1.15,0.1 1.15,0.85 0,1 -1.25,1 l -1.5,-0.15 q -0.95,0 -0.95,-0.75 0,-0.8 2.35,-0.95 H 1.3 M -2.6,5.7 Q -2.9,5 -3.75,4.9 l -0.8,-0.1 q -1.25,0 -1.25,2.2 0,1.55 1.65,1.75 h 0.05 q 1.8,-0.15 1.8,-1.6 0,-0.9 -0.3,-1.45 M -9,6.95 -9.1,5.15 -11.25,4.4 q -0.7,1.65 -0.7,3.3 0,1 1.65,1.15 l 1.1,0.3 0.1,-0.55 -0.75,-1.05 q -0.2,0.5 -1,0.5 l -0.4,-0.1 -0.05,-0.25 q 0,-0.75 0.95,-0.8 L -11.1,5.95 q 0,-0.35 0.45,-0.35 0.85,0 1.55,1.35 l 0.1,0.2 v -0.2 m -1.05,3.8 h -0.25 q 0,1.6 -1.35,4.2 1,0.05 1,1.05 0,0.75 -0.35,1.55 l 2,-0.9 q -1.5,-2.15 -1.5,-3.35 l 0.9,-2.55 h -0.45 m 6.3,-2.7 q -1.15,0 -1.15,-1 0,-1.2 0.9,-1.2 1.1,0 1.1,1.2 0,1 -0.85,1"
         inkscape:connector-curvature="0"
         style="fill:#000000;fill-rule:evenodd;stroke:none" />
      <path
         id="path1475"
         d="M 11.05,5.75 Q 11.05,5.3 10.7,5.3 10.15,5.3 9,6.65 l -0.55,0.7 v -0.4 l 0.1,-1.1 2.5,-1.95 q 0.85,1.9 0.85,3.45 0,1.15 -1.95,1.4 l -1.2,0.3 -0.15,-0.6 1.1,-1.2 0.95,0.7 0.3,-0.4 q -0.15,-0.7 -0.7,-0.9 l 0.8,-0.9 M -1.3,9.25 V 9.2 l 0.2,-2.7 q 0,-1.4 -0.55,-2 -0.3,-0.35 -1.6,-0.9 l -1.8,-0.5 q -1.65,0 -1.75,0.8 l -0.05,0.25 q 0,0.45 0.45,0.6 l -0.5,0.9 -0.3,1.1 -0.1,-0.4 -0.15,-2.6 q 0,-0.85 0.4,-1.4 V 2.3 H -7 q 0.8,-1.05 2.95,-1.1 l 5.3,-0.6 4.1,0.5 Q 6.9,1.25 6.85,3.05 L 6.7,4.65 V 7.6 q 0,2.75 1.4,4.5 l 1.4,1.75 q 0,0.9 -1.95,2.9 Q 5.2,19.1 2.75,19.1 1,18.2 0.25,18.2 q -1,0 -2.4,1 -3.25,0 -4.65,-2.6 l -1.95,-3.4 q 1.4,-3.6 1.5,-5.25 l 0.05,-0.5 q 0.2,1.45 0.95,1.9 l 1.6,0.45 h 0.2 0.45 0.05 l 0.85,-0.1 -0.1,1.35 q 0,3.4 3.2,3.4 2.8,0 2.8,-3.25 L 2.65,9.6 3.6,9.7 Q 6.45,9.7 6.45,6.85 6.25,5.35 5.9,4.6 L 6.15,4.25 6.2,3.85 Q 6.2,3.1 4.2,3.1 0.15,3.1 0.15,6 l 0.3,1.75 0.3,1.3 H 0.7 v 0.1 l 0.1,0.6 q 0,1.05 -0.9,1.05 -0.8,0 -0.95,-0.8 L -1.25,9.2 -1.3,9.25 m -0.3,2.65 v -0.05 0.05 m 8.1,3.75 Q 8,15.65 8,13.25 7.8,10.8 6.6,10.8 5,10.8 5,13.35 q 0.15,2.3 1.5,2.3 M 1.3,15.25 H 1.2 q -2.35,0.15 -2.35,0.95 0,0.75 0.95,0.75 l 1.5,0.15 q 1.25,0 1.25,-1 0,-0.75 -1.15,-0.85 H 1.3 M -9.1,6.95 Q -9.8,5.6 -10.65,5.6 q -0.45,0 -0.45,0.35 l 0.75,0.95 q -0.95,0.05 -0.95,0.8 l 0.05,0.25 0.4,0.1 q 0.8,0 1,-0.5 l 0.75,1.05 -0.1,0.55 -1.1,-0.3 q -1.65,-0.15 -1.65,-1.15 0,-1.65 0.7,-3.3 l 2.15,0.75 0.1,1.8 h -0.1 m 1.75,7.65 q 0.6,1.45 1.55,1.45 1.3,0 1.3,-2.05 0,-3.05 -1.75,-3.05 -1.5,0 -1.5,1.9 l 0.4,1.75"
         inkscape:connector-curvature="0"
         style="fill:#ffcc66;fill-rule:evenodd;stroke:none" />
      <path
         id="path1477"
         d="m 0.75,9.05 0.05,0.3 0.5,1.8 v 0.15 l -0.25,1.15 q -0.35,0.5 -1.05,0.5 -1.3,0 -1.6,-1.05 V 11.85 L -1.65,11.3 -1.45,9.8 -1.4,9.6 -1.35,9.35 v -0.1 h 0.05 l 0.05,-0.05 0.2,0.8 q 0.15,0.8 0.95,0.8 0.9,0 0.9,-1.05 L 0.7,9.15 v -0.1 h 0.05"
         inkscape:connector-curvature="0"
         style="fill:#fed69a;fill-rule:evenodd;stroke:none" />
      <path
         id="path1479"
         d="m 6.5,15.65 q -1.35,0 -1.5,-2.3 0,-2.55 1.6,-2.55 1.2,0 1.4,2.45 0,2.4 -1.5,2.4 M -7.35,14.6 -7.75,12.85 q 0,-1.9 1.5,-1.9 1.75,0 1.75,3.05 0,2.05 -1.3,2.05 -0.95,0 -1.55,-1.45"
         inkscape:connector-curvature="0"
         style="fill:#ff9966;fill-rule:evenodd;stroke:none" />
      <path
         id="path1481"
         d="M 1.35,-12.15 1.3,-12.2 2.2,-13.45 q 0.9,-1.25 0.9,-2.45 0,-1.3 -1.4,-3.1 h 0.05 l 0.1,-0.05 0.5,0.25 q 2.45,1 2.45,3.95 -0.1,2.15 -1.1,3.35 -0.8,-0.6 -2.15,-0.65 H 1.5 l -0.15,0.05 v -0.05 M 2.3,-4.8 2.2,-5 2.35,-5.5 2.3,-5.55 l 0.2,-1.3 -0.15,-1.4 -0.8,-2.15 -0.2,-0.25 -0.05,-0.05 0.1,-0.05 0.25,0.1 0.35,0.2 0.15,0.1 q 1.4,0.7 2.4,2.3 1.25,2 1.4,4 L 3.9,-4.6 H 3.85 L 3.8,-4.65 H 3.75 L 2.35,-4.8 H 2.3 M 3.5,-3 V -3.05 L 3.7,-3 5.15,-2.65 V -2.6 H 5.2 l 0.05,-0.05 0.15,0.1 h 0.05 l 0.7,0.3 q 1.1,0.45 1.55,0.95 0.4,0.35 0.4,0.8 0,0.65 -0.55,0.7 L 7.1,0.3 6,-0.05 5.25,-0.35 H 5.15 L 5.05,-0.4 3.65,-0.75 3.6,-0.8 3.45,-0.75 V -0.8 L 3.4,-0.9 3.75,-1.55 3.85,-1.9 3.4,-3 h 0.1"
         inkscape:connector-curvature="0"
         style="fill:#d0d0d0;fill-rule:evenodd;stroke:none" />
      <path
         id="path1483"
         d="m 12.5,17.2 -2.3,-0.75 q 1.05,-1.55 1.05,-2.6 0,-1.2 -1.4,-2.75 l -0.3,-0.35 1.1,-0.15 q 0.05,0.8 0.6,2.2 0.65,1.55 1.15,1.75 -0.7,0.25 -0.7,0.9 0,0.65 0.85,1.75 H 12.5 m -22.55,-6.45 h 0.45 l -0.9,2.55 q 0,1.2 1.5,3.35 l -2,0.9 q 0.35,-0.8 0.35,-1.55 0,-1 -1,-1.05 1.35,-2.6 1.35,-4.2 h 0.25"
         inkscape:connector-curvature="0"
         style="fill:#999999;fill-rule:evenodd;stroke:none" />
    </g>
  </g>
</svg>
