<?xml version="1.0" encoding="UTF-8" standalone="no"?>
<!-- Created with Inkscape (http://www.inkscape.org/) -->

<svg
   xmlns:dc="http://purl.org/dc/elements/1.1/"
   xmlns:cc="http://creativecommons.org/ns#"
   xmlns:rdf="http://www.w3.org/1999/02/22-rdf-syntax-ns#"
   xmlns:svg="http://www.w3.org/2000/svg"
   xmlns="http://www.w3.org/2000/svg"
   xmlns:sodipodi="http://sodipodi.sourceforge.net/DTD/sodipodi-0.dtd"
   xmlns:inkscape="http://www.inkscape.org/namespaces/inkscape"
   width="50"
   height="50"
   viewBox="0 0 13.229166 13.229167"
   version="1.1"
   id="svg833"
   sodipodi:docname="wq.svg"
   inkscape:version="0.92.4 (5da689c313, 2019-01-14)">
  <defs
     id="defs827" />
  <sodipodi:namedview
     id="base"
     pagecolor="#ffffff"
     bordercolor="#666666"
     borderopacity="1.0"
     inkscape:pageopacity="0.0"
     inkscape:pageshadow="2"
     inkscape:zoom="11.2"
     inkscape:cx="25.862313"
     inkscape:cy="28.492667"
     inkscape:document-units="mm"
     inkscape:current-layer="layer1"
     showgrid="false"
     units="px"
     inkscape:window-width="1920"
     inkscape:window-height="975"
     inkscape:window-x="-8"
     inkscape:window-y="-8"
     inkscape:window-maximized="1" />
  <metadata
     id="metadata830">
    <rdf:RDF>
      <cc:Work
         rdf:about="">
        <dc:format>image/svg+xml</dc:format>
        <dc:type
           rdf:resource="http://purl.org/dc/dcmitype/StillImage" />
        <dc:title></dc:title>
      </cc:Work>
    </rdf:RDF>
  </metadata>
  <g
     inkscape:label="Layer 1"
     inkscape:groupmode="layer"
     id="layer1"
     transform="translate(0,-283.77082)">
    <g
       id="g1423"
       transform="matrix(0.26458333,0,0,0.26458333,6.6873437,290.30084)">
      <path
         id="path1407"
         d="m 14.75,-10.65 q -0.2,-0.25 -0.25,-0.7 -0.55,-1.1 0.4,-2.2 1.9,-2.2 3.8,-0.6 1.15,0.95 1.05,2.05 l -0.4,1.1 -0.3,0.35 q -1.5,1.85 -3.15,0.8 l -0.45,0.55 q -0.8,0.65 -2.05,2.55 L 11.65,-3.8 11.45,-3.45 8.95,0.9 8.8,0.7 8.25,0.3 7.35,-0.25 5.95,-0.65 5.05,-0.95 3,-1.25 0.85,-1.3 H 0.65 L -4.45,-0.85 -6,-0.35 -8.45,0.8 -8.5,0.85 -8.85,1.2 -8.9,1.25 -10.75,-2.3 -11.4,-3.5 -12.9,-5.75 q -2,-3.3 -2.8,-3.8 l -0.2,-0.3 q -1.7,1.05 -3.25,-0.8 -1.6,-1.9 0.4,-3.5 1.9,-1.6 3.85,0.6 1.15,1.35 0.1,2.75 l -0.05,0.05 0.05,0.05 -0.4,0.55 1.65,1.7 1.45,2 1.4,1.9 q 1.35,1.8 1.75,1.8 0.35,0 0.5,-0.15 0.8,-0.2 1,-0.55 0.3,-0.3 0.45,-0.9 l 0.2,-1.25 q 0,-0.65 -0.25,-0.75 L -7,-7 l -0.65,-3.9 -1.3,-3.5 q -1.6,0.35 -2.35,-1.6 -0.8,-2.05 1.25,-2.85 2,-0.85 3,1.5 0.55,1.45 -0.65,2.35 l -0.05,0.05 v 0.05 l -0.45,0.45 0.65,1.85 1.25,3.35 0.65,2.6 0.05,1.65 q 0.05,1.05 0.7,1.05 2,0 3.05,-1.4 0.6,-0.6 0.6,-2.3 l -0.15,-0.55 0.05,-0.15 0.05,-0.4 0.1,-0.5 0.35,-3.3 0.2,-1.85 v -0.75 q -2,-0.3 -2,-2.7 0,-2.5 2.55,-2.5 2.5,0 2.6,2.95 0,1.75 -1.6,2.15 l -0.1,-0.1 q -0.75,0.25 -0.85,0.9 0.05,0.85 -0.05,1.2 l -0.1,2.5 0.15,1.75 -0.55,4.15 q 0,0.55 2.1,0.55 1,0 1.5,-1.5 L 3.9,-7.6 3.85,-7.75 h -0.1 l 0.2,-0.2 0.55,-0.8 -0.05,-0.05 0.25,-0.35 1.3,-3 0.5,-1.2 0.8,-1.9 q -0.9,-0.8 -0.35,-2.1 1,-2.35 3.05,-1.5 2.05,0.8 1.25,2.85 -0.75,1.95 -2.35,1.6 L 9,-14.45 8.6,-14.6 q -1,0 -2.35,4.9 -1.95,3.5 -1.95,5.2 0,0.3 1.6,1.1 1.6,0.9 2.4,0.9 l 1.95,-1.7 1.95,-2.1 3.1,-3.95 -0.55,-0.4 M 3.75,2.65 0.9,2.4 -0.05,2.45 q -2.9,0.1 -5.6,1.15 l -0.3,0.15 -0.4,0.15 -0.3,0.1 -0.1,0.05 -0.2,0.2 -0.7,0.2 q -0.65,0 -0.75,-0.6 V 3.8 L -8.15,3.1 Q -8,2.15 -6.6,1.55 L -5.65,1.1 Q -3.45,0.2 0.2,0.15 L 3.8,0.3 3.75,0.35 4.15,1.5 4.1,1.8 3.85,2.2 3.75,2.55 v 0.1 m 0.25,5 0.5,0.1 q 1.1,0.4 1,2.25 0,1.95 -2.05,1.95 -1.35,0 -1.8,-0.8 Q 1.4,10.7 1.45,10.1 V 9.85 Q 1.45,9.25 1.6,8.8 L 1.8,8.4 Q 2.35,7.65 3.75,7.65 H 4 M 3.25,11.1 q 1.1,-0.05 1.1,-1.15 0,-1.15 -0.95,-1.15 -1.25,0 -1.25,1.1 0,1.2 1.1,1.2 m 4.7,4 v -0.15 l 0.1,-0.3 0.25,-1.6 q 0.3,-0.25 0.8,-0.25 0.5,0 1.2,1.8 v 0.25 0.2 L 10.1,15.5 9.9,15.7 9.15,15.8 Q 8.4,15.8 8.1,15.3 L 7.95,15.1 m -9.6,-6.7 0.2,0.4 q 0.15,0.45 0.15,1.05 v 0.25 l -0.2,1.05 q -0.45,0.8 -1.85,0.8 -2.05,0 -2.05,-1.95 -0.15,-1.85 1,-2.25 l 0.55,-0.1 h 0.25 q 1.35,0 1.95,0.75 m -1.5,2.7 q 1.1,0 1.15,-1.2 -0.05,-1.1 -1.3,-1.1 -0.95,0 -0.95,1.15 0,1.1 1.1,1.15 m -5.05,1.95 0.1,0.6 0.4,1.7 -0.05,0.05 Q -8,15.75 -8.6,15.75 L -9.05,15.7 q -0.7,-0.1 -0.85,-0.65 l -0.05,-0.4 0.1,-0.3 0.05,-0.4 0.15,-0.45 0.3,-0.35 1.05,-0.15 0.1,0.05"
         inkscape:connector-curvature="0"
         style="fill:#ffffff;fill-rule:evenodd;stroke:none" />
      <path
         id="path1409"
         d="m 12.1,-14.9 q -1.05,1.85 -2.45,1.85 H 9.6 L 9.4,-12.3 9.15,-10.85 8.65,-8 v 0.85 l 0.2,0.05 2.1,-1.85 q 1.3,-1.55 2.1,-2.1 V -11.1 L 13,-11.5 12.95,-12.05 v -0.1 q 0,-1.65 1.5,-3 1.4,-1.25 2.85,-1.25 0.65,0 1.45,0.55 2.25,1 2.25,3.1 l -0.05,0.9 v 0.1 q 0,0.95 -0.9,2.15 -1.25,1.65 -3.3,1.65 H 16.3 l -1.2,1.55 -1.35,2.2 -0.75,1.05 -0.15,0.3 -1.3,3 Q 10.4,2.65 10.4,3.1 10.4,4.5 9.65,4.9 L 9.7,5.95 9.65,6.7 H 9.8 q 2.05,0.1 2.05,2.3 -0.3,2.5 -1,3.4 0.55,0.75 0.75,2.4 0,1.6 -1.5,1.95 l -0.8,0.1 H 9.1 q -1.15,0 -1.7,-0.55 l -0.45,1 -0.55,1.25 q -2.45,3.7 -6.75,3.7 l -1.9,-0.4 -1.5,-0.6 -0.6,-0.4 -0.85,-0.65 q -1.2,-0.6 -2.1,-3.4 l -1,0.05 q -2.7,0 -2.7,-2.4 l 0.25,-1.65 q -0.65,-1 -0.65,-2.95 0,-2.55 2.15,-2.55 L -9,7.2 -9.05,6.55 -9,6.05 H -9.1 Q -10.35,5.8 -10.35,3.8 l 0.1,-0.55 v -0.3 q 0,-0.65 -1.2,-3 l -1.5,-2.7 -2.6,-4.05 -0.7,-1.25 -0.05,-0.1 -1.45,0.25 q -3.7,0 -3.8,-4.5 0.45,-2.4 1.6,-2.95 l 0.1,-0.1 q 1.1,-0.8 2.85,-0.8 3.75,0 4,3.85 0.15,0.55 0,1.05 l -0.1,0.55 0.2,0.2 4.15,3.4 0.05,-0.55 -0.4,-2.95 -0.7,-2.5 -0.45,-0.1 q -1.35,-0.2 -2.2,-1.7 -0.4,-0.7 -0.4,-1.95 0,-3.3 4.15,-3.3 2.1,0 2.7,1.85 0.45,1.1 0.45,2.1 0,1.7 -0.7,2.1 l 1.15,2 q 1.55,2.8 2.1,2.8 0.35,0 0.75,-2.75 l 0.15,-1.95 q -1,-0.25 -1.6,-1.85 l -0.35,-2.15 q 0,-3.35 4.15,-3.5 h -0.4 q 4.15,-0.2 4.15,3.3 l -0.25,2.35 -0.35,0.6 -0.6,0.8 -0.55,0.45 -0.05,0.4 0.45,3.55 v 0.1 l 0.4,0.85 1.5,-2 0.05,-0.15 0.05,-0.1 0.1,-0.15 0.3,-0.7 1.1,-2.55 Q 5.75,-15.1 5.6,-15.7 l -0.05,-0.4 -0.15,-0.25 0.2,-1.6 q 0.55,-2.8 3.8,-2.65 H 9 q 1.9,0.05 3.05,1.5 0.85,1.05 0.85,2 0,0.8 -0.8,2.2 m -26.9,4.2 -0.05,-0.05 0.05,-0.05 q 1.05,-1.4 -0.1,-2.75 -1.95,-2.2 -3.85,-0.6 -2,1.6 -0.4,3.5 1.55,1.85 3.25,0.8 l 0.2,0.3 q 0.8,0.5 2.8,3.8 l 1.5,2.25 0.65,1.2 L -8.9,1.25 -8.85,1.2 -8.5,0.85 -8.45,0.8 -6,-0.35 l 1.55,-0.5 5.1,-0.45 h 0.2 l 2.15,0.05 2.05,0.3 0.9,0.3 1.4,0.4 0.9,0.55 0.55,0.4 0.15,0.2 2.5,-4.35 0.2,-0.35 1.75,-2.95 q 1.25,-1.9 2.05,-2.55 l 0.45,-0.55 q 1.65,1.05 3.15,-0.8 l 0.3,-0.35 0.4,-1.1 q 0.1,-1.1 -1.05,-2.05 -1.9,-1.6 -3.8,0.6 -0.95,1.1 -0.4,2.2 0.05,0.45 0.25,0.7 l -0.05,0.05 -0.3,0.45 -0.7,0.65 -2.45,2.7 Q 8.95,-5.2 7.95,-5.2 7,-5.2 7,-6.6 l 0.05,-1 v -0.15 l 0.25,-1.65 0.8,-2.8 0.45,-1.6 0.2,-0.6 H 8.9 q 1.6,0.35 2.35,-1.6 0.8,-2.05 -1.25,-2.85 -2.05,-0.85 -3.05,1.5 -0.55,1.3 0.35,2.1 l -0.8,1.9 -0.5,1.2 -1.3,3 -0.25,0.35 H 4.4 l -0.45,0.85 -0.2,0.2 H 3.65 L 3.55,-7.5 Q 3.1,-7.1 2.7,-7.1 2.05,-7.1 1.75,-8 L 1.45,-8.7 1.3,-9.5 1.25,-9.9 1.1,-11.4 0.95,-12.05 0.85,-13.15 0.7,-14.45 0.75,-15 v -0.15 l 0.15,-0.1 q 1.6,-0.4 1.6,-2.15 -0.1,-2.95 -2.6,-2.95 -2.55,0 -2.55,2.5 0,2.4 2,2.7 v 0.75 l -0.2,1.85 -0.35,3.3 -0.1,0.5 -0.05,0.4 -0.05,0.15 -0.1,0.05 v 0.1 q -0.5,0.95 -1.3,0.95 -0.8,0 -1.4,-0.6 L -6,-10.75 -7.1,-13 l -0.4,-0.85 -0.1,-0.35 -0.05,-0.35 -0.05,-0.2 0.1,-0.1 -0.1,-0.1 -0.05,0.05 v -0.05 L -7.7,-15 q 1.2,-0.9 0.65,-2.35 -1,-2.35 -3,-1.5 -2.05,0.8 -1.25,2.85 0.75,1.95 2.35,1.6 l 1.3,3.5 0.65,3.9 -0.05,0.65 -0.1,-0.05 v 0.45 q -0.25,1.15 -0.9,1.15 l -0.75,-0.1 -0.45,-0.35 -0.5,-0.45 -1.3,-1.3 -1.1,-1.05 -0.5,-0.4 -0.8,-0.8 -0.95,-0.9 -0.25,-0.4 v -0.05 l -0.1,-0.15 -0.05,0.05 M 3.75,2.65 3.8,2.7 3.95,2.65 5.45,3 v 0.05 l 0.1,0.05 h 0.1 L 6.45,3.4 7.6,3.8 8.05,3.7 Q 8.6,3.65 8.65,2.95 L 8.3,2.2 8.2,2.1 6.6,1.1 5.85,0.8 H 5.8 L 5.65,0.7 5.6,0.75 5.55,0.7 4.05,0.35 3.85,0.3 H 3.8 L 0.2,0.15 Q -3.45,0.2 -5.65,1.1 L -6.6,1.55 Q -8,2.15 -8.15,3.1 L -8.4,3.8 v 0.05 q 0.1,0.6 0.75,0.6 l 0.7,-0.2 0.2,-0.2 0.1,-0.05 0.3,-0.1 0.4,-0.15 0.3,-0.15 q 2.7,-1.05 5.6,-1.15 L 0.9,2.4 3.75,2.65 M 7.05,4.8 6.9,4.85 6.2,4.6 1.9,3.8 1.7,3.75 -0.05,3.8 h -0.3 L -4.3,4.3 -6.15,5.1 -7,5.65 h -0.05 l -0.75,0.3 v 0.1 l 0.05,0.4 0.05,0.25 0.35,2.3 0.6,3.4 0.15,0.35 v 0.1 l 0.85,3.2 q 1.6,4.6 5.2,4.6 2.5,0 4.55,-1.8 Q 5.4,17.6 5.75,16.6 L 6.5,14.05 6.55,13.85 6.5,13.8 6.7,12.75 7.35,8.85 Q 7.45,7 7.7,5.9 L 8,5.05 7.05,4.8 M 3.8,5.55 H 3.75 3.6 Q 1.5,5.45 1.5,7.2 q 0,0.4 0.4,0.4 0.7,-0.45 1.75,-0.45 2,0 2.3,0.95 L 6.4,7.65 Q 6.4,7.1 5.7,6.4 4.95,5.55 3.9,5.55 H 3.8 M 3.75,5 q 3.3,0.4 3.3,2.45 L 6.7,10.6 6.65,11 v 0.1 L 6.6,11.25 6.55,11.35 Q 5.85,13 3.6,13 1.85,13 0.85,12 L 0.55,11.15 Q 0.4,10.55 0.4,9.5 V 9.1 L 0.6,7.95 Q 0.85,5.2 3.35,5 h 0.4 M 4,7.65 H 3.75 Q 2.35,7.65 1.8,8.4 L 1.6,8.8 Q 1.45,9.25 1.45,9.85 v 0.25 q -0.05,0.6 0.2,1.05 0.45,0.8 1.8,0.8 Q 5.5,11.95 5.5,10 5.6,8.15 4.5,7.75 L 4,7.65 M 3.25,11.1 q -1.1,0 -1.1,-1.2 0,-1.1 1.25,-1.1 0.95,0 0.95,1.15 0,1.1 -1.1,1.15 M 9.35,8.65 H 9.3 L 8.9,10.3 8.6,11.55 8.95,11.6 9.1,11.55 9.65,11.3 9.8,10.9 9.95,10.6 10,9.25 Q 9.9,8.65 9.35,8.65 m -1.4,6.45 0.15,0.2 q 0.3,0.5 1.05,0.5 l 0.75,-0.1 0.2,-0.2 0.2,-0.45 v -0.2 -0.25 q -0.7,-1.8 -1.2,-1.8 -0.5,0 -0.8,0.25 l -0.25,1.6 -0.1,0.3 v 0.15 m -6.2,-0.75 2.35,2.2 q -0.25,0.75 -1.4,1.8 -1.55,1.3 -2.8,1.35 -1.8,-0.05 -3.3,-1.95 l -1.1,-1.95 1.75,-1 1.7,-0.75 q 0.4,0.1 1.05,0.75 0.7,-0.55 1.35,-0.55 l 0.4,0.1 M 1.5,15.25 1.25,15.2 0.05,15.55 q -0.7,-0.4 -1.05,-0.4 -0.75,0 -0.9,0.3 l -1.3,0.5 -0.05,0.3 q 0,0.6 1.05,1.45 1.15,0.9 2.35,0.9 0.65,0 1.8,-0.85 l 1.1,-1.15 q -0.4,0.75 -3.6,0.75 -2.05,0 -2,-0.85 -0.05,-0.35 0.3,-0.35 0.7,0 1.7,0.55 L 2.8,16.05 2.5,15.75 Q 1.85,15.2 1.5,15.2 v 0.05 M -3.4,5.75 H -4.15 Q -6,5.8 -6,7.5 l 0.45,0.45 q 0.85,-0.9 2.1,-0.9 l 1.3,0.25 h 0.05 0.05 l 0.4,0.2 q 0.4,0 0.4,-0.45 Q -2,5.25 -3.4,5.75 m -5.3,3.5 q -0.25,-0.3 -0.45,-0.3 -0.7,0 -0.7,0.55 -0.05,1.85 0.5,2.45 l 1,-0.05 L -8.7,9.25 M -6.95,7.85 -6.9,7.2 q 0,-2.4 3.95,-2.3 2.8,-0.15 2.8,4.45 l -0.1,0.85 -0.1,0.7 V 11 q 0,1.95 -3,1.95 -2.95,0 -3.2,-2.65 L -6.6,10.25 -6.7,9.4 -6.6,8.8 -6.95,7.85 m 5.3,0.55 Q -2.25,7.65 -3.6,7.65 h -0.25 l -0.55,0.1 q -1.15,0.4 -1,2.25 0,1.95 2.05,1.95 1.4,0 1.85,-0.8 L -1.3,10.1 V 9.85 q 0,-0.6 -0.15,-1.05 L -1.65,8.4 M -8.2,13.05 -8.3,13 l -1.05,0.15 -0.3,0.35 -0.15,0.45 -0.05,0.4 -0.1,0.3 0.05,0.4 q 0.15,0.55 0.85,0.65 l 0.45,0.05 q 0.6,0 0.85,-0.35 l 0.05,-0.05 -0.4,-1.7 -0.1,-0.6 m 5.05,-1.95 q -1.1,-0.05 -1.1,-1.15 0,-1.15 0.95,-1.15 1.25,0 1.3,1.1 -0.05,1.2 -1.15,1.2"
         inkscape:connector-curvature="0"
         style="fill:#000000;fill-rule:evenodd;stroke:none" />
      <path
         id="path1411"
         d="m -14.8,-10.7 0.05,-0.05 0.1,0.15 v 0.05 l 0.25,0.4 0.95,0.9 0.8,0.8 0.5,0.4 1.1,1.05 1.3,1.3 0.5,0.45 0.45,0.35 0.75,0.1 q 0.65,0 0.9,-1.15 V -6.4 l 0.1,0.05 q 0.25,0.1 0.25,0.75 L -7,-4.35 q -0.15,0.6 -0.45,0.9 -0.2,0.35 -1,0.55 -0.15,0.15 -0.5,0.15 -0.4,0 -1.75,-1.8 l -1.4,-1.9 -1.45,-2 -1.65,-1.7 0.4,-0.55 m 7.05,-4.2 0.05,-0.05 0.1,0.1 -0.1,0.1 0.05,0.2 0.05,0.35 0.1,0.35 0.4,0.85 1.1,2.25 1.8,3.05 q 0.6,0.6 1.4,0.6 0.8,0 1.3,-0.95 v -0.1 l 0.1,-0.05 0.15,0.55 q 0,1.7 -0.6,2.3 -1.05,1.4 -3.05,1.4 -0.65,0 -0.7,-1.05 l -0.05,-1.65 -0.65,-2.6 -1.25,-3.35 -0.65,-1.85 0.45,-0.45 m 8.65,-0.35 -0.15,0.1 V -15 l -0.05,0.55 0.15,1.3 0.1,1.1 0.15,0.65 0.15,1.5 0.05,0.4 0.15,0.8 0.3,0.7 q 0.3,0.9 0.95,0.9 0.4,0 0.85,-0.4 l 0.1,-0.25 h 0.1 0.1 L 3.9,-7.6 3,-5.8 q -0.5,1.5 -1.5,1.5 -2.1,0 -2.1,-0.55 l 0.55,-4.15 -0.15,-1.75 0.1,-2.5 q 0.1,-0.35 0.05,-1.2 0.1,-0.65 0.85,-0.9 l 0.1,0.1 m 8,0.85 H 8.75 l -0.2,0.6 -0.45,1.6 -0.8,2.8 -0.25,1.65 V -7.6 L 7,-6.6 q 0,1.4 0.95,1.4 1,0 3.3,-1.6 l 2.45,-2.7 0.7,-0.65 0.3,-0.45 0.05,-0.05 0.55,0.4 -3.1,3.95 -1.95,2.1 -1.95,1.7 q -0.8,0 -2.4,-0.9 -1.6,-0.8 -1.6,-1.1 0,-1.7 1.95,-5.2 1.35,-4.9 2.35,-4.9 L 9,-14.45 8.9,-14.4 M 5.6,0.75 5.65,0.7 5.8,0.8 h 0.05 l 0.75,0.3 1.6,1 0.1,0.1 0.35,0.75 Q 8.6,3.65 8.05,3.7 L 7.6,3.8 6.45,3.4 5.65,3.1 H 5.55 L 5.45,3.05 V 3 L 3.95,2.65 3.8,2.7 3.75,2.65 V 2.55 L 3.85,2.2 4.1,1.8 4.15,1.5 3.75,0.35 3.8,0.3 h 0.05 l 0.2,0.05 1.5,0.35 V 0.75 H 5.6"
         inkscape:connector-curvature="0"
         style="fill:#d0d0d0;fill-rule:evenodd;stroke:none" />
      <path
         id="path1413"
         d="M 7.05,4.8 8,5.05 7.7,5.9 Q 7.45,7 7.35,8.85 L 6.7,12.75 6.5,13.8 6.55,13.85 6.5,14.05 5.75,16.6 q -0.35,1 -1.75,2.25 -2.05,1.8 -4.55,1.8 -3.6,0 -5.2,-4.6 l -0.85,-3.2 v -0.1 L -6.75,12.4 -7.35,9 -7.7,6.7 -7.75,6.45 -7.8,6.05 v -0.1 l 0.75,-0.3 H -7 L -6.15,5.1 -4.3,4.3 -0.35,3.8 h 0.3 L 1.7,3.75 1.9,3.8 6.2,4.6 6.9,4.85 7.05,4.8 M 3.75,5 H 3.35 Q 0.85,5.2 0.6,7.95 L 0.4,9.1 v 0.4 q 0,1.05 0.15,1.65 L 0.85,12 q 1,1 2.75,1 2.25,0 2.95,-1.65 L 6.6,11.25 6.65,11.1 V 11 L 6.7,10.6 7.05,7.45 Q 7.05,5.4 3.75,5 m 5.6,3.65 q 0.55,0 0.65,0.6 L 9.95,10.6 9.8,10.9 9.65,11.3 9.1,11.55 8.95,11.6 8.6,11.55 8.9,10.3 9.3,8.65 h 0.05 m -7.6,5.7 -0.4,-0.1 Q 0.7,14.25 0,14.8 -0.65,14.15 -1.05,14.05 l -1.7,0.75 -1.75,1 1.1,1.95 q 1.5,1.9 3.3,1.95 1.25,-0.05 2.8,-1.35 1.15,-1.05 1.4,-1.8 l -2.35,-2.2 m -8.7,-6.5 0.35,0.95 -0.1,0.6 0.1,0.85 0.05,0.05 q 0.25,2.65 3.2,2.65 3,0 3,-1.95 v -0.1 l 0.1,-0.7 0.1,-0.85 q 0,-4.6 -2.8,-4.45 Q -6.9,4.8 -6.9,7.2 l -0.05,0.65 m -1.75,1.4 0.35,2.65 -1,0.05 q -0.55,-0.6 -0.5,-2.45 0,-0.55 0.7,-0.55 0.2,0 0.45,0.3"
         inkscape:connector-curvature="0"
         style="fill:#feb74e;fill-rule:evenodd;stroke:none" />
      <path
         id="path1415"
         d="M 3.95,-7.95 4.4,-8.8 h 0.05 l 0.05,0.05 -0.55,0.8"
         inkscape:connector-curvature="0"
         style="fill:#b7b7b7;fill-rule:evenodd;stroke:none" />
      <path
         id="path1417"
         d="M 1.5,15.25 V 15.2 q 0.35,0 1,0.55 l 0.3,0.3 -3.35,0.65 q -1,-0.55 -1.7,-0.55 -0.35,0 -0.3,0.35 -0.05,0.85 2,0.85 3.2,0 3.6,-0.75 l -1.1,1.15 q -1.15,0.85 -1.8,0.85 -1.2,0 -2.35,-0.9 -1.05,-0.85 -1.05,-1.45 l 0.05,-0.3 1.3,-0.5 -0.1,0.2 0.3,0.35 0.65,-0.1 0.85,0.35 q 1.95,-0.4 1.95,-0.7 L 1.5,15.25"
         inkscape:connector-curvature="0"
         style="fill:#ff0000;fill-rule:evenodd;stroke:none" />
      <path
         id="path1419"
         d="m -1.9,15.45 q 0.15,-0.3 0.9,-0.3 0.35,0 1.05,0.4 l 1.2,-0.35 0.25,0.05 0.25,0.3 q 0,0.3 -1.95,0.7 L -1.05,15.9 -1.7,16 -2,15.65 l 0.1,-0.2"
         inkscape:connector-curvature="0"
         style="fill:#fe9a9a;fill-rule:evenodd;stroke:none" />
      <path
         id="path1421"
         d="m 3.8,5.55 h 0.1 q 1.05,0 1.8,0.85 0.7,0.7 0.7,1.25 L 5.95,8.1 Q 5.65,7.15 3.65,7.15 2.6,7.15 1.9,7.6 1.5,7.6 1.5,7.2 1.5,5.45 3.6,5.55 H 3.75 3.8 m -7.2,0.2 q 1.4,-0.5 2.15,1.3 0,0.45 -0.4,0.45 L -2.05,7.3 H -2.1 -2.15 l -1.3,-0.25 q -1.25,0 -2.1,0.9 L -6,7.5 q 0,-1.7 1.85,-1.75 h 0.75"
         inkscape:connector-curvature="0"
         style="fill:#663399;fill-rule:evenodd;stroke:none" />
    </g>
  </g>
</svg>
