<?xml version="1.0" encoding="UTF-8" standalone="no"?>
<!-- Created with Inkscape (http://www.inkscape.org/) -->

<svg
   xmlns:dc="http://purl.org/dc/elements/1.1/"
   xmlns:cc="http://creativecommons.org/ns#"
   xmlns:rdf="http://www.w3.org/1999/02/22-rdf-syntax-ns#"
   xmlns:svg="http://www.w3.org/2000/svg"
   xmlns="http://www.w3.org/2000/svg"
   xmlns:sodipodi="http://sodipodi.sourceforge.net/DTD/sodipodi-0.dtd"
   xmlns:inkscape="http://www.inkscape.org/namespaces/inkscape"
   width="50"
   height="50"
   viewBox="0 0 13.229166 13.229167"
   version="1.1"
   id="svg833"
   sodipodi:docname="wr.svg"
   inkscape:version="0.92.4 (5da689c313, 2019-01-14)">
  <defs
     id="defs827" />
  <sodipodi:namedview
     id="base"
     pagecolor="#ffffff"
     bordercolor="#666666"
     borderopacity="1.0"
     inkscape:pageopacity="0.0"
     inkscape:pageshadow="2"
     inkscape:zoom="11.2"
     inkscape:cx="25.94037"
     inkscape:cy="28.392604"
     inkscape:document-units="mm"
     inkscape:current-layer="layer1"
     showgrid="false"
     units="px"
     inkscape:window-width="1920"
     inkscape:window-height="975"
     inkscape:window-x="-8"
     inkscape:window-y="-8"
     inkscape:window-maximized="1" />
  <metadata
     id="metadata830">
    <rdf:RDF>
      <cc:Work
         rdf:about="">
        <dc:format>image/svg+xml</dc:format>
        <dc:type
           rdf:resource="http://purl.org/dc/dcmitype/StillImage" />
        <dc:title></dc:title>
      </cc:Work>
    </rdf:RDF>
  </metadata>
  <g
     inkscape:label="Layer 1"
     inkscape:groupmode="layer"
     id="layer1"
     transform="translate(0,-283.77082)">
    <g
       id="g1390"
       transform="matrix(0.26458333,0,0,0.26458333,6.5947396,290.37952)">
      <path
         id="path1378"
         d="M -2.05,-9.8 H -2.1 l -1.75,-0.5 2.15,-0.35 9,-0.1 0.55,-0.05 0.3,0.05 4,-0.05 q 1.35,-0.2 1.35,-0.75 l -0.6,-7.05 -0.05,-0.05 Q 12.7,-19.1 12.15,-19.2 H 12 l -1.5,0.05 H 9.6 l -0.55,0.05 q -0.5,0 -0.65,0.4 l 0.05,0.85 q 0,2.8 -0.85,2.85 H 7.45 L 7.2,-14.9 3.85,-14.85 3.5,-14.9 H 3.4 L 3.15,-14.95 H 3 l -0.3,-0.1 Q 2,-15.5 2.25,-17.7 l -0.1,-1 v -0.2 l -0.4,-0.3 -2.6,-0.05 -0.3,0.05 -1,0.25 -0.1,0.7 v 0.1 l -0.05,0.2 q 0.3,2.8 -0.8,2.85 H -3.25 L -5.4,-14.85 -7.3,-15 h -0.05 q -0.95,-0.05 -0.9,-0.95 l 0.05,-2.55 -0.1,-0.65 -3.45,0.25 -0.85,0.05 -0.3,0.15 -0.1,0.35 -0.35,7.2 q 0,0.35 0.7,0.35 l 0.25,-0.05 1.65,-0.05 q 2.95,0.05 3.75,0.65 l 0.2,0.65 v 1.35 l -0.25,4.05 0.15,0.6 0.7,0.25 h 3.45 v 0.05 h 0.25 l 0.25,-0.05 h 9.2 L 7.4,-3.95 Q 7.3,-4.3 7.35,-4.75 L 6.85,-9.2 H 6.8 L 1,-9.65 -0.95,-9.75 -2.05,-9.8 m 16.2,-10.5 0.35,1.5 0.05,0.4 -0.05,0.2 0.3,2.3 0.4,4.6 q 0,2.2 -3.65,2.2 L 8.95,-9.05 8.7,-8.75 8.8,-8.5 8.75,-8.25 8.8,-8 8.95,-6.55 v 0.05 l 0.1,1.15 0.2,1.35 q 0.05,0.55 0.55,0.6 0.8,0.05 1,1.15 l 0.1,1.4 0.65,2.55 q 0,0.45 -0.6,0.75 v 0.1 h -0.9 V 3.2 l 0.3,2.15 0.7,4.3 0.05,0.55 0.6,0.95 1.05,0.75 0.6,0.2 0.95,0.55 0.1,0.1 0.05,0.05 -0.15,0.35 h -0.1 l -0.5,0.4 -2.75,1.8 -0.15,0.1 q -0.3,1.1 -0.7,1.3 l -2.15,2.3 q -2.2,1.85 -8.7,1.85 -2.95,0 -5.75,-1.65 -1.95,-1.15 -2.6,-2.5 l -0.35,-1.15 -0.95,-0.45 -3,-2.1 -0.25,-0.3 V 12.7 q 0,-0.4 0.6,-0.5 l 0.9,-0.1 0.25,-0.2 1.3,-0.9 0.85,-1.2 0.35,-4 0.2,-2.3 V 2.55 h -1.1 L -10.75,1.95 -10.9,1 V 0.85 l 0.2,-2.35 v -0.2 q 0.05,-1.2 0.55,-1.55 l 0.9,-0.1 h 0.1 0.05 V -3.4 l 0.4,-0.35 0.05,-0.9 q 0.1,-0.65 0.05,-1.9 V -6.7 l -0.05,-0.45 0.1,-0.65 v -0.6 q -0.1,-0.45 -0.8,-0.7 l -4.7,-0.25 q -1,-0.35 -1,-1.5 l 0.2,-5 0.05,-2.8 q 0.05,-1.15 0.45,-1.55 l 0.1,-0.3 0.45,-0.2 6.1,-0.1 h 0.2 0.1 q 1.1,-0.05 0.85,2.9 l -0.1,1.5 1.3,-0.05 1.35,0.05 0.05,-1.5 q -0.15,-1.35 0.05,-2.05 V -20 q 0,-0.9 1,-0.85 l 6.15,0.1 0.45,0.2 0.2,0.55 -0.05,0.2 0.05,2.1 -0.05,1.2 2.85,0.1 0.1,-2.05 q -0.45,-1.6 0.15,-2.05 0.2,-0.4 0.8,-0.35 l 5.75,0.1 0.45,0.15 0.2,0.3 M 8.5,-1.75 H -8 -8.95 v 0.25 0.05 l -0.25,1.7 q 0,0.65 0.7,0.65 h 0.2 L 8,1 8.7,1.1 q 0.7,0 0.7,-0.75 -0.1,-1.7 -0.5,-2 V -1.7 H 8.85 L 8.65,-1.75 H 8.5 M 6.9,4.5 Q 6.9,4.15 6.3,3.6 5.7,3.05 4.9,2.95 L 4.75,2.9 4,2.8 Q 3.1,2.8 2.6,3.1 1.35,3.3 1.35,4.95 1.35,6 2.05,6.5 2.55,7.1 3.7,7.1 L 4.35,7.05 5.1,6.9 Q 6.6,6.6 6.75,5.4 L 6.9,4.5 M 8.65,5.2 Q 8.4,5.2 8.05,6.1 L 7.4,7 q 0,0.55 1.1,0.55 L 8.95,7.1 8.65,5.2 M 8.2,4.1 Q 8.55,4.1 8.55,3.5 8.55,2.55 7.9,2.55 7,2.55 7,2.9 7,3.25 7.7,3.45 L 8.2,4.1 m -3.6,1 q 0,1.1 -1.1,1.15 -1.1,0 -1.1,-1.2 0,-1.1 1.25,-1.1 0.95,0 0.95,1.15 M 0.7,2.55 h -2 q 0.8,0.6 1,2.95 -0.15,1.25 -0.45,1.9 -0.45,0.25 -0.45,1.2 0,0.9 1.15,0.9 L 0.8,9.35 1.1,8.8 V 8.3 L 0.95,7.8 0.75,7.4 Q 0.05,6.65 0.05,4.9 0.05,3.15 0.7,2.55 m -0.35,9.7 q 0.05,-0.1 0.25,-0.1 l 0.25,0.1 0.05,0.1 0.1,0.15 0.45,0.7 q 1.7,1.4 4.2,1.95 l 1,0.05 H 7.2 q 2.25,-0.45 5.5,-2.15 -1.25,-0.2 -2.05,-0.95 L 9.2,10.35 7.65,8.75 6,8.3 H 5.8 Q 4.05,8.3 3.3,9.05 L 3.05,9.45 V 9.8 L 3,9.85 q -0.55,1.5 -3.15,1.5 -2.45,0 -2.6,-2.05 -0.6,-0.7 -1.7,-0.8 H -4.8 L -5.9,8.6 -6.75,9 -6.9,9.1 -7.1,9.15 -7.45,9.5 l -0.7,0.85 -0.1,0.15 v 0.05 H -8.3 l -0.4,0.5 -1.05,0.95 -1.8,0.95 q 2.8,1.7 5.75,2.15 h 1.15 l 2.7,-0.8 q 1,-0.3 1.3,-0.65 l 0.3,-0.4 q 0.1,-1 0.6,-1 h 0.1 M 8.4,16.5 6.25,16.8 q -1.7,0 -3.85,-0.85 L 0.6,14.6 q -0.5,0.5 -2.35,1.2 -2.45,0.9 -3.95,0.9 l -1.75,-0.3 1.65,1.55 q 3.4,1.55 4.6,1.6 l 0.9,0.05 h 1 Q 4.75,19.15 6.45,18.3 L 8.4,16.5 M -8.3,-19.15 v -0.05 l -1.5,0.05 h 1.5 M -3.6,3 h -0.25 -0.4 l -0.3,0.05 h -0.1 Q -6.2,3.2 -6.4,3.8 q -0.45,0.4 -0.45,1.15 0,2.2 2.4,2.2 L -3.8,7.1 Q -2.35,7 -1.8,6.3 -1.55,6 -1.45,5.15 -1.45,4.1 -1.9,3.6 -2.35,3 -3.6,3 m 0.95,2.1 q 0,1.1 -1.1,1.15 -1.1,0 -1.1,-1.2 0,-1.1 1.25,-1.1 0.95,0 0.95,1.15 M -7.5,8 -6.85,7.65 -7.8,6 Q -8.25,6 -8.25,6.55 L -8.3,7.9 q 0,0.4 0.35,0.4 L -7.5,8 M -6.7,2.9 Q -6.7,2.55 -7.05,2.55 -8,2.55 -8,3.15 -8,3.8 -7.65,3.8 L -6.7,2.9"
         inkscape:connector-curvature="0"
         style="fill:#000000;fill-rule:evenodd;stroke:none" />
      <path
         id="path1380"
         d="M -2.75,-3.35 H -6.2 L -6.9,-3.6 -7.05,-4.2 -6.8,-8.25 V -9.6 L -7,-10.25 q -0.8,-0.6 -3.75,-0.65 l -1.65,0.05 -0.25,0.05 q -0.7,0 -0.7,-0.35 l 0.35,-7.2 0.1,-0.35 0.3,-0.15 0.85,-0.05 3.45,-0.25 0.1,0.65 -0.05,2.55 q -0.05,0.9 0.9,0.95 h 0.05 l 1.9,0.15 2.15,-0.25 h 0.15 q 1.1,-0.05 0.8,-2.85 l 0.05,-0.2 v -0.1 l 0.1,-0.7 1,-0.25 0.3,-0.05 2.6,0.05 0.4,0.3 v 0.2 l 0.1,1 Q 2,-15.5 2.7,-15.05 l 0.3,0.1 H 3.15 L 3.4,-14.9 H 3.5 L 3.85,-14.85 7.2,-14.9 7.45,-15 H 7.6 q 0.85,-0.05 0.85,-2.85 L 8.4,-18.7 q 0.15,-0.4 0.65,-0.4 l 0.55,-0.05 h 0.9 L 12,-19.2 h 0.15 q 0.55,0.1 0.7,0.55 l 0.05,0.05 0.6,7.05 q 0,0.55 -1.35,0.75 l -4,0.05 -0.3,-0.05 -0.55,0.05 -9,0.1 -2.15,0.35 1.75,0.5 h 0.05 l 2.25,0.85 q 1.65,0.2 1.85,0.6 l 0.15,2.3 q 0,1.35 -0.4,1.55 l -4.6,0.95 0.05,0.2 m 11.25,1.6 h 0.15 l 0.2,0.05 H 8.9 v 0.05 q 0.4,0.3 0.5,2 0,0.75 -0.7,0.75 L 8,1 -8.3,0.9 h -0.2 q -0.7,0 -0.7,-0.65 l 0.25,-1.7 V -1.5 -1.75 H -8 8.5 M 6.9,4.5 6.75,5.4 Q 6.6,6.6 5.1,6.9 L 4.35,7.05 3.7,7.1 Q 2.55,7.1 2.05,6.5 1.35,6 1.35,4.95 1.35,3.3 2.6,3.1 3.1,2.8 4,2.8 L 4.75,2.9 4.9,2.95 Q 5.7,3.05 6.3,3.6 6.9,4.15 6.9,4.5 M 4.6,5.1 q 0,-1.15 -0.95,-1.15 -1.25,0 -1.25,1.1 0,1.2 1.1,1.2 Q 4.6,6.2 4.6,5.1 m 1.05,4.4 q 0.95,-0.35 2.65,1.05 1.6,1.3 1.6,2 0,0.8 -1.2,0.8 -1.1,0 -2.7,-0.9 -1.7,-0.95 -1.7,-1.7 0,-1.3 1.2,-1.3 L 5.65,9.5 M -3.6,3 q 1.25,0 1.7,0.6 0.45,0.5 0.45,1.55 Q -1.55,6 -1.8,6.3 -2.35,7 -3.8,7.1 l -0.65,0.05 q -2.4,0 -2.4,-2.2 0,-0.75 0.45,-1.15 0.2,-0.6 1.75,-0.75 h 0.1 L -4.25,3 h 0.4 0.25 m 0.95,2.1 q 0,-1.15 -0.95,-1.15 -1.25,0 -1.25,1.1 0,1.2 1.1,1.2 1.1,-0.05 1.1,-1.15 m -2.5,4.35 q 1.45,0 1.45,0.95 0,0.9 -1.2,1.7 -1.25,0.85 -2.9,0.85 -1.05,0 -1.05,-0.5 0,-0.95 1.25,-1.65 l 1.1,-0.95 q 0.35,-0.4 1.35,-0.4"
         inkscape:connector-curvature="0"
         style="fill:#ffffff;fill-rule:evenodd;stroke:none" />
      <path
         id="path1382"
         d="M -2.75,-3.35 -2.8,-3.55 1.8,-4.5 q 0.4,-0.2 0.4,-1.55 l -0.15,-2.3 q -0.2,-0.4 -1.85,-0.6 l -2.25,-0.85 1.1,0.05 1.95,0.1 5.8,0.45 h 0.05 l 0.5,4.45 Q 7.3,-4.3 7.4,-3.95 l -0.45,0.6 h -9.2 L -2.5,-3.3 h -0.25 v -0.05 m 3.1,15.6 h -0.1 q -0.5,0 -0.6,1 l -0.3,0.4 q -0.3,0.35 -1.3,0.65 l -2.7,0.8 H -5.8 q -2.95,-0.45 -5.75,-2.15 l 1.8,-0.95 1.05,-0.95 0.4,-0.5 h 0.05 V 10.5 L -8.15,10.35 -7.45,9.5 -7.1,9.15 -6.9,9.1 -6.75,9 -5.9,8.6 -4.8,8.5 h 0.35 q 1.1,0.1 1.7,0.8 0.15,2.05 2.6,2.05 2.6,0 3.15,-1.5 L 3.05,9.8 V 9.45 L 3.3,9.05 Q 4.05,8.3 5.8,8.3 H 6 l 1.65,0.45 1.55,1.6 1.45,1.75 q 0.8,0.75 2.05,0.95 -3.25,1.7 -5.5,2.15 H 6.65 l -1,-0.05 Q 3.15,14.6 1.45,13.2 L 1,12.5 0.9,12.35 0.85,12.25 0.6,12.15 q -0.2,0 -0.25,0.1 M 5.65,9.5 5.5,9.45 q -1.2,0 -1.2,1.3 0,0.75 1.7,1.7 1.6,0.9 2.7,0.9 1.2,0 1.2,-0.8 0,-0.7 -1.6,-2 Q 6.6,9.15 5.65,9.5 M -5.15,9.45 q -1,0 -1.35,0.4 l -1.1,0.95 q -1.25,0.7 -1.25,1.65 0,0.5 1.05,0.5 1.65,0 2.9,-0.85 1.2,-0.8 1.2,-1.7 0,-0.95 -1.45,-0.95"
         inkscape:connector-curvature="0"
         style="fill:#d0d0d0;fill-rule:evenodd;stroke:none" />
      <path
         id="path1384"
         d="m 0.7,2.55 q -0.65,0.6 -0.65,2.35 0,1.75 0.7,2.5 L 0.95,7.8 1.1,8.3 V 8.8 L 0.8,9.35 -0.05,9.5 q -1.15,0 -1.15,-0.9 0,-0.95 0.45,-1.2 0.3,-0.65 0.45,-1.9 -0.2,-2.35 -1,-2.95 h 2"
         inkscape:connector-curvature="0"
         style="fill:#ffcc66;fill-rule:evenodd;stroke:none" />
      <path
         id="path1386"
         d="M 8.2,4.1 7.7,3.45 Q 7,3.25 7,2.9 7,2.55 7.9,2.55 q 0.65,0 0.65,0.95 0,0.6 -0.35,0.6 M 8.65,5.2 8.95,7.1 8.5,7.55 Q 7.4,7.55 7.4,7 L 8.05,6.1 Q 8.4,5.2 8.65,5.2 M -6.7,2.9 -7.65,3.8 Q -8,3.8 -8,3.15 q 0,-0.6 0.95,-0.6 0.35,0 0.35,0.35 M -7.5,8 -7.95,8.3 Q -8.3,8.3 -8.3,7.9 L -8.25,6.55 Q -8.25,6 -7.8,6 L -6.85,7.65 -7.5,8"
         inkscape:connector-curvature="0"
         style="fill:#ca7902;fill-rule:evenodd;stroke:none" />
      <path
         id="path1388"
         d="m 8.4,16.5 -1.95,1.8 q -1.7,0.85 -5.75,1.3 h -1 l -0.9,-0.05 q -1.2,-0.05 -4.6,-1.6 l -1.65,-1.55 1.75,0.3 q 1.5,0 3.95,-0.9 1.85,-0.7 2.35,-1.2 l 1.8,1.35 Q 4.55,16.8 6.25,16.8 L 8.4,16.5"
         inkscape:connector-curvature="0"
         style="fill:#fca625;fill-rule:evenodd;stroke:none" />
    </g>
  </g>
</svg>
